**ABCDEFGHIJKLMNOPQRSTUVWXYZabcdefghijklmnopqrstuvwxyz**************************
**PARASOLID !"#$%&'()*+,-./:;<=>?@[\]^_`{|}~0123456789**************************
**PART1;
MC=AMD64;
MC_MODEL=Intel64 Family 6 Model 44 Stepping 2, GenuineIntel;
MC_ID=unknown;
OS=Windows_NT;
OS_RELEASE=unknown;
FRU=Parasolid Version 28.0, build 224,  7-29-2016;
APPL=SOLIDWORKS 2016-2016286;
SITE=;
USER=unknown;
FORMAT=text;
GUISE=transmit;
KEY=25MMX19MM_PLASTIC_KNOP;
FILE=25MMX19MM_PLASTIC_KNOP.x_t;
DATE=Sun Jul 02 01:02:50 2023;
**PART2;
SCH=SCH_2800224_28002;
USFLD_SIZE=0;
**PART3;
**END_OF_HEADER*****************************************************************
T51 : TRANSMIT FILE created by modeller version 280022423 SCH_2800224_28002_1300
6200 0 12 30 CCCCCCCCCCCCCDI5 owner1040 0 CCCCCCCCCA13 boundary_mesh1006 0 A16 i
ndex_map_offset0 0 1 dA9 index_map82 0 A17 node_id_index_map82 0 A20 schema_embe
dding_map82 0 A5 child12 0 A14 lowest_node_id0 0 1 dZ1 7280 0 2 0 0 0 0 1e3 1e-8
 0 3 0 1 0 1 1 4 5 6 7 8 9 10 0 0 0 0 0 0 0 70 11 CI9 list_type0 0 1 uI10 notran
smit0 0 1 lCCCDCCDI12 finger_index0 0 1 dI12 finger_block1012 0 CZ2 0 4 T1 0 0 2
 20 1 11 11 13 255 4 50 0 1 0 12 0 0 13 0 50 255 5 91 0 12 14 0 0 +0 0 0 0 0 -1
 -1 0 0 31 255 6 95 0 9 15 0 0 +0 0 -.0193 0 0 1 1 0 0 .01225 29 255 7 141 0 10
 16 0 -.00102354739361517 .0122071639103038 -.0153 19 8 CCCCCCCA5 owner12 0 Z8 5
4 0 1 13 0 17 V0 16 255 9 145 0 ?18 0 19 6 0 0 1 18 255 10 139 0 20 0 21 7 ?1 17
 255 20 0 22 23 24 10 25 26 0 27 -18 21 203 0 28 10 29 16 ?1 17 28 0 30 31 32 21
 33 34 0 35 +18 29 211 0 36 21 37 38 ?1 29 16 265 0 21 38 7 .00102354739361517 .
0122071639103038 -.0193 29 38 266 0 29 39 16 -.00102354739361517 .01220716391030
38 -.0193 29 39 268 0 37 40 38 .00102354739361517 .0122071639103038 -.0153 18 37
 205 0 23 29 41 39 ?1 29 40 270 0 42 43 39 0 .01398 -.0193 18 42 212 0 44 41 0 4
0 ?1 29 43 273 0 41 0 40 0 .01398 -.0153 18 41 210 0 25 37 42 43 ?1 17 25 0 45 4
6 27 41 20 26 0 47 +15 255 45 238 0 36 48 0 17 46 0 45 36 25 42 47 49 0 31 +17 2
7 0 45 25 36 10 50 51 0 52 +16 26 192 0 ?25 53 54 55 0 0 1 17 47 0 30 32 31 41 4
6 49 0 24 -15 30 234 0 32 56 0 17 32 0 30 28 47 37 24 53 0 33 +17 31 0 30 47 28
 42 35 54 0 0 -16 49 195 0 ?46 51 53 57 0 0 1 17 24 0 22 20 23 41 32 53 0 0 -15
 22 241 0 23 58 0 17 23 0 22 24 20 37 59 19 0 32 -16 53 187 0 ?32 49 26 60 0 0 1
 30 255 60 262 0 53 55 61 0 +0 .01398 -.0153 .5 -.866025403784442 0 30 55 263 0
 26 62 60 0 +0 .01398 -.0153 .5 .866025403784442 0 30 61 260 0 63 60 64 0 +0 .01
398 -.0193 .5 .866025403784442 0 16 63 200 0 ?44 54 65 61 0 0 1 30 64 259 0 54 6
1 57 0 +0 .01398 -.0193 .5 -.866025403784442 0 16 54 196 0 ?35 26 63 64 0 0 1 30
 57 257 0 49 64 66 0 +0 .01398 -.0153 0 0 -1 30 66 254 0 51 57 67 0 +-.001023547
39361517 .0122071639103038 0 0 0 1 16 51 191 0 ?27 34 49 66 0 0 1 30 67 253 0 34
 66 68 0 -.00102354739361517 .0122071639103038 0 0 0 1 16 34 190 0 ?28 69 51 67
 0 0 1 31 68 92 0 69 67 70 0 +0 0 0 0 0 1 1 0 0 .00765 16 69 56 0 ?71 72 34 68 0
 0 1 31 70 93 0 72 68 15 0 +0 0 -.0123 0 0 1 1 0 0 .00815 16 72 58 0 ?73 74 69 7
0 0 0 1 31 15 94 0 19 70 6 0 +0 0 -.0153 0 0 1 1 0 0 .01225 16 19 63 0 ?59 9 74
 15 74 74 1 17 59 0 75 76 76 10 23 19 0 0 +16 74 140 0 ?76 19 72 15 19 19 1 17 7
6 0 75 59 59 37 52 74 0 0 +15 75 117 0 59 77 78 17 52 0 79 50 33 10 76 74 0 59 -
15 79 149 0 33 80 0 17 50 0 79 18 52 29 27 51 0 81 -17 33 0 79 52 18 37 28 34 0
 76 -17 18 0 79 33 50 21 81 9 0 0 +17 81 0 82 44 35 29 18 9 0 0 -15 82 161 0 35
 83 0 17 44 0 82 35 81 42 36 63 0 46 +17 35 0 82 81 44 21 31 54 0 18 +17 36 0 45
 27 46 29 44 63 0 50 -14 255 83 76 84 ?80 12 85 4 14 +0 0 80 12 17 81 255 1 84 7
267 86 83 87 0 0 88 89 14 80 71 88 ?77 83 79 4 90 +0 0 77 83 17 14 12 84 91 ?83
 0 92 4 5 -0 0 83 0 17 15 85 1009 0 93 83 82 50 14 90 0 83 90 5 0 +0 0 -.0193 0
 0 -1 -1 0 0 13 17 53 0 0 0 0 0 0 8 12 51 255 90 89 0 80 94 14 0 +0 0 0 0 0 1 .0
1225 1 0 0 52 255 94 88 0 77 95 90 0 +0 0 -.0123 0 0 -1 .00815 .80703032565843 .
590509994384218 -1 0 0 14 77 66 96 ?97 80 75 4 94 +0 0 97 80 17 52 95 87 0 97 98
 94 0 +0 0 0 0 0 -1 .00765 .0406168615770732 .999174794796 -1 0 0 14 97 61 99 ?5
6 77 100 4 95 +0 0 56 77 17 50 98 248 0 48 101 95 0 +0 .01398 -.0153 -.866025403
784442 .5 0 -.5 -.866025403784442 0 14 48 235 102 ?58 56 45 4 98 +0 0 58 56 17 5
0 101 249 0 56 103 98 0 +0 .01398 -.0153 .866025403784442 .5 0 -.5 .866025403784
442 0 14 56 231 104 ?48 97 30 4 101 +0 0 48 97 17 50 103 251 0 58 105 101 0 +0 0
 -.0153 0 0 -1 -1 0 0 14 58 239 106 ?107 48 22 4 103 -0 0 107 48 17 51 105 323 0
 107 108 103 0 +3061616997868385e-34 .00515 -2e-4 0 0 1 6e-4 1 0 0 14 107 310 10
9 ?110 58 111 4 105 -0 0 110 58 17 50 108 325 0 110 112 105 0 +3061616997868385e
-34 .00515 -2e-4 0 0 1 1 0 0 14 110 315 113 ?114 107 115 4 108 +0 0 114 107 17 5
1 112 1035 0 114 116 108 0 +0 0 -.0153 0 0 -1 .011 -1 0 0 14 114 1022 117 ?118 1
10 119 4 112 -0 0 118 110 17 50 116 1037 0 118 120 112 0 +0 0 -.0153 0 0 -1 -1 0
 0 14 118 1027 121 ?122 114 123 4 116 +0 0 122 114 17 51 120 1076 0 122 124 116
 0 +0 0 -.0043 0 0 -1 .003 -1 0 0 14 122 1063 125 ?126 118 127 4 120 -0 0 126 11
8 17 50 124 1078 0 126 0 120 0 +0 0 -.0043 0 0 -1 -1 0 0 14 126 1068 128 ?0 122
 129 4 124 +0 0 0 122 17 81 1 128 7280 86 126 130 0 125 0 131 15 129 1070 0 132
 126 0 17 132 0 129 132 132 0 133 134 0 0 +17 133 0 127 133 133 0 132 134 0 0 -1
6 134 1057 0 ?132 135 136 137 0 0 1 16 135 1019 0 ?138 139 134 140 0 0 1 16 136
 1060 0 ?141 134 0 142 0 0 1 31 137 1080 0 134 0 142 0 +0 0 -.0043 0 0 -1 -1 0 0
 .003 31 142 1079 0 136 137 143 0 +0 0 -.0153 0 0 -1 -1 0 0 .003 31 143 1039 0 1
39 142 140 0 +0 0 -.0153 0 0 -1 -1 0 0 .011 16 139 1016 0 ?144 145 135 143 0 0 1
 31 140 1038 0 135 143 146 0 +0 0 -.0193 0 0 -1 -1 0 0 .011 31 146 327 0 65 140
 62 0 +3061616997868385e-34 .00515 -2e-4 0 0 1 1 0 0 6e-4 16 65 304 0 ?147 63 14
5 146 0 0 1 31 62 326 0 145 146 55 0 +3061616997868385e-34 .00515 0 0 0 1 1 0 0
 6e-4 16 145 307 0 ?148 65 139 62 0 0 1 17 148 0 149 148 148 0 150 145 0 0 +15 1
49 314 0 148 107 0 17 150 0 92 150 150 0 148 145 0 0 -15 92 298 0 150 12 151 15
 151 83 0 71 12 0 17 71 0 151 71 71 0 152 69 0 0 +17 152 0 153 152 152 0 71 69 0
 0 -15 153 60 0 152 97 0 17 147 0 115 147 147 0 154 65 0 0 +15 115 317 0 147 110
 0 17 154 0 111 154 154 0 147 65 0 0 -15 111 313 0 154 107 149 17 144 0 155 144
 144 0 156 139 0 0 +15 155 1029 0 144 118 0 17 156 0 119 156 156 0 144 139 0 0 -
15 119 1025 0 156 114 157 15 157 1026 0 138 114 0 17 138 0 157 138 138 0 93 135
 0 0 +17 93 0 85 93 93 0 138 135 0 0 -17 141 0 158 141 141 0 159 136 0 0 +15 158
 1067 0 141 122 0 17 159 0 123 159 159 0 141 136 0 0 -15 123 1052 0 159 118 155
 15 127 1066 0 133 122 158 80 255 1 86 160 161 9000 1 1 1 1 1 1 1 1 0 FFFFTFTFFF
FFFF1 81 1 130 7235 162 126 0 128 163 0 164 81 1 125 7279 86 122 163 0 121 128 1
65 82 255 1 131 -632487791 81 1 163 7234 162 122 0 125 166 130 167 81 1 121 7278
 86 118 166 0 117 125 168 82 1 165 -630521711 81 1 166 7233 162 118 0 121 169 16
3 170 81 1 117 7277 86 114 169 0 113 121 171 82 1 168 1732903057 81 1 169 7232 1
62 114 0 117 172 166 173 81 1 113 7276 86 110 172 0 109 117 174 82 1 171 1734869
133 81 1 172 7231 162 110 0 113 175 169 176 81 1 109 7275 86 107 175 0 106 113 1
77 82 1 174 1615921288 81 1 175 7230 162 107 0 109 178 172 179 81 1 106 7274 86
 58 178 0 104 109 180 82 1 177 1617887368 81 1 178 7229 162 58 0 106 181 175 182
 81 1 104 7273 86 56 183 0 102 106 184 82 1 180 1660027009 81 1 183 7227 162 56
 0 104 185 181 186 81 1 102 7272 86 48 181 0 99 104 187 82 1 184 1665204353 81 1
 181 7228 162 48 0 102 183 178 188 81 1 99 7271 86 97 185 0 96 102 189 82 1 187
 1665335425 81 1 185 7226 162 97 0 99 190 183 191 81 1 96 7270 86 77 190 0 91 99
 192 82 1 189 1924726902 81 1 190 7225 162 77 0 96 193 185 194 81 1 91 7269 86 1
2 195 0 88 96 196 82 1 192 1925316737 81 1 195 7222 162 12 0 91 0 87 197 81 1 88
 7268 86 80 193 0 84 91 198 82 1 196 1927413896 81 1 193 7224 162 80 0 88 87 190
 199 82 1 198 1925906561 80 1 162 0 200 8001 0 0 0 0 3 5 0 0 0 FFFFTFTFFFFFFF2 8
1 1 87 7223 162 83 0 84 195 193 201 83 255 3 199 .250980392156863 .2509803921568
63 .250980392156863 83 3 201 .250980392156863 .250980392156863 .250980392156863
 79 255 15 200 SDL/TYSA_COLOUR83 3 197 .250980392156863 .250980392156863 .250980
392156863 83 3 194 .250980392156863 .250980392156863 .250980392156863 83 3 191 .
250980392156863 .250980392156863 .250980392156863 83 3 188 .250980392156863 .250
980392156863 .250980392156863 83 3 186 .250980392156863 .250980392156863 .250980
392156863 83 3 182 .250980392156863 .250980392156863 .250980392156863 83 3 179 .
250980392156863 .250980392156863 .250980392156863 83 3 176 .250980392156863 .250
980392156863 .250980392156863 83 3 173 .250980392156863 .250980392156863 .250980
392156863 83 3 170 .250980392156863 .250980392156863 .250980392156863 83 3 167 .
250980392156863 .250980392156863 .250980392156863 83 3 164 .250980392156863 .250
980392156863 .250980392156863 79 14 161 SWEntUnchanged15 100 116 0 73 97 153 17
 73 0 100 73 73 0 202 72 0 0 +17 202 0 78 202 202 0 73 72 0 0 -15 78 65 0 202 77
 0 82 1 89 1926496397 19 13 49 0 1 0 8 4 S0 74 4 CI16 index_map_offset0 0 1 dCCZ
20 11 2 0 0 128 130 0 0 0 0 0 0 0 0 0 0 0 0 0 0 0 0 0 0 1 0 
