**ABCDEFGHIJKLMNOPQRSTUVWXYZabcdefghijklmnopqrstuvwxyz**************************
**PARASOLID !"#$%&'()*+,-./:;<=>?@[\]^_`{|}~0123456789**************************
**PART1;
MC=AMD64;
MC_MODEL=Intel64 Family 6 Model 44 Stepping 2, GenuineIntel;
MC_ID=unknown;
OS=Windows_NT;
OS_RELEASE=unknown;
FRU=Parasolid Version 28.0, build 224,  7-29-2016;
APPL=SOLIDWORKS 2016-2016286;
SITE=;
USER=unknown;
FORMAT=text;
GUISE=transmit;
KEY=HEATSINK_14X14X6;
FILE=HEATSINK_14X14X6.x_t;
DATE=Fri May 05 01:36:32 2023;
**PART2;
SCH=SCH_2800224_28002;
USFLD_SIZE=0;
**PART3;
**END_OF_HEADER*****************************************************************
T51 : TRANSMIT FILE created by modeller version 280022423 SCH_2800224_28002_1300
6200 0 12 30 CCCCCCCCCCCCCDI5 owner1040 0 CCCCCCCCCA13 boundary_mesh1006 0 A16 i
ndex_map_offset0 0 1 dA9 index_map82 0 A17 node_id_index_map82 0 A20 schema_embe
dding_map82 0 A5 child12 0 A14 lowest_node_id0 0 1 dZ1 1659 0 2 0 0 0 0 1e3 1e-8
 0 3 0 1 0 1 1 4 5 6 7 8 9 10 0 0 0 0 0 0 0 70 11 CI9 list_type0 0 1 uI10 notran
smit0 0 1 lCCCDCCDI12 finger_index0 0 1 dI12 finger_block1012 0 CZ2 0 4 T1 0 0 2
 20 1 11 11 13 255 4 574 0 1 0 12 0 0 13 0 50 255 5 545 0 12 14 0 0 +0 0 .0141 1
 1264902534566422e-31 0 -1264902534566422e-31 1 0 30 255 6 573 0 9 15 0 0 +65052
1303491303e-33 -.006 .0141 0 0 -1 29 255 7 406 0 16 17 0 0 0 0 19 8 CCCCCCCA5 ow
ner12 0 Z8 172 0 1 13 0 18 V0 16 255 9 461 0 ?19 0 20 6 0 0 1 18 255 10 169 0 21
 0 22 23 ?1 17 255 21 0 24 25 26 10 27 28 0 29 +18 22 166 0 26 10 30 31 ?1 29 23
 171 0 10 31 32 0 0 .0141 29 31 168 0 22 33 23 .01409881058383202 0 .0141 29 32
 433 0 34 23 35 650521303491303e-33 -.006 0 18 34 376 0 36 37 0 32 ?1 29 35 432
 0 37 32 38 9e-4 -.006 0 18 37 375 0 39 40 34 35 ?1 29 38 431 0 40 35 41 9e-4 -.
0016 0 18 40 374 0 42 43 37 38 ?1 29 41 430 0 43 38 44 .0022 -.0016 0 18 43 373
 0 45 46 40 41 ?1 29 44 429 0 46 41 47 .0022 -.006 0 18 46 372 0 48 49 43 44 ?1
 29 47 428 0 49 44 50 .0031 -.006 0 18 49 371 0 51 52 46 47 ?1 29 50 427 0 52 47
 53 .0031 -.0016 0 18 52 370 0 54 55 49 50 ?1 29 53 426 0 55 50 56 .0044 -.0016
 0 18 55 369 0 57 58 52 53 ?1 29 56 425 0 58 53 59 .0044 -.006 0 18 58 368 0 60
 61 55 56 ?1 29 59 424 0 61 56 62 .0053 -.006 0 18 61 367 0 63 64 58 59 ?1 29 62
 423 0 64 59 65 .0053 -.0016 0 18 64 366 0 66 67 61 62 ?1 29 65 422 0 67 62 68 .
0066 -.0016 0 18 67 365 0 69 70 64 65 ?1 29 68 421 0 70 65 71 .0066 -.006 0 18 7
0 364 0 72 73 67 68 ?1 29 71 420 0 73 68 74 .0075 -.006 0 18 73 363 0 75 76 70 7
1 ?1 29 74 419 0 76 71 77 .0075 -.0016 0 18 76 362 0 78 79 73 74 ?1 29 77 418 0
 79 74 80 .0088 -.0016 0 18 79 361 0 81 82 76 77 ?1 29 80 417 0 82 77 83 .0088 -
.006 0 18 82 360 0 84 85 79 80 ?1 29 83 416 0 85 80 86 .00969881058383202 -.006
 0 18 85 359 0 87 88 82 83 ?1 29 86 415 0 88 83 89 .00969881058383202 -.0016 0 1
8 88 358 0 90 91 85 86 ?1 29 89 414 0 91 86 92 .01099881058383202 -.0016 0 18 91
 357 0 93 94 88 89 ?1 29 92 413 0 94 89 95 .01099881058383202 -.006 0 18 94 356
 0 96 97 91 92 ?1 29 95 412 0 97 92 98 .01189881058383202 -.006 0 18 97 355 0 99
 100 94 95 ?1 29 98 411 0 100 95 101 .01189881058383202 -.0016 0 18 100 354 0 10
2 103 97 98 ?1 29 101 410 0 103 98 104 .01319881058383202 -.0016 0 18 103 353 0
 105 106 100 101 ?1 29 104 409 0 106 101 107 .01319881058383202 -.006 0 18 106 3
52 0 108 109 103 104 ?1 29 107 408 0 109 104 17 .01409881058383202 -.006 0 18 10
9 351 0 110 111 106 107 ?1 29 17 407 0 111 107 7 .01409881058383202 0 0 18 111 3
50 0 112 16 109 17 ?1 17 112 0 113 114 115 111 116 117 0 118 +18 16 349 0 119 12
0 111 7 ?1 17 119 0 121 29 118 16 122 123 0 124 +18 120 88 0 125 126 16 127 ?1 1
7 125 0 128 19 129 120 130 131 0 25 -18 126 91 0 130 132 120 133 ?1 29 127 90 0
 120 0 133 650521303491303e-33 -.006 .0141 29 133 93 0 126 127 134 9e-4 -.006 .0
141 29 134 96 0 132 133 135 9e-4 -.0016 .0141 18 132 94 0 136 137 126 134 ?1 29
 135 99 0 137 134 138 .0022 -.0016 .0141 18 137 97 0 139 140 132 135 ?1 29 138 1
02 0 140 135 141 .0022 -.006 .0141 18 140 100 0 142 143 137 138 ?1 29 141 105 0
 143 138 144 .0031 -.006 .0141 18 143 103 0 145 146 140 141 ?1 29 144 108 0 146
 141 147 .0031 -.0016 .0141 18 146 106 0 148 149 143 144 ?1 29 147 111 0 149 144
 150 .0044 -.0016 .0141 18 149 109 0 151 152 146 147 ?1 29 150 114 0 152 147 153
 .0044 -.006 .0141 18 152 112 0 154 155 149 150 ?1 29 153 117 0 155 150 156 .005
3 -.006 .0141 18 155 115 0 157 158 152 153 ?1 29 156 120 0 158 153 159 .0053 -.0
016 .0141 18 158 118 0 160 161 155 156 ?1 29 159 123 0 161 156 162 .0066 -.0016
 .0141 18 161 121 0 163 164 158 159 ?1 29 162 126 0 164 159 165 .0066 -.006 .014
1 18 164 124 0 166 167 161 162 ?1 29 165 129 0 167 162 168 .0075 -.006 .0141 18
 167 127 0 169 170 164 165 ?1 29 168 132 0 170 165 171 .0075 -.0016 .0141 18 170
 130 0 172 173 167 168 ?1 29 171 135 0 173 168 174 .0088 -.0016 .0141 18 173 133
 0 175 176 170 171 ?1 29 174 138 0 176 171 177 .0088 -.006 .0141 18 176 136 0 17
8 179 173 174 ?1 29 177 141 0 179 174 180 .00969881058383202 -.006 .0141 18 179
 139 0 181 182 176 177 ?1 29 180 144 0 182 177 183 .00969881058383202 -.0016 .01
41 18 182 142 0 184 185 179 180 ?1 29 183 147 0 185 180 186 .01099881058383202 -
.0016 .0141 18 185 145 0 187 188 182 183 ?1 29 186 150 0 188 183 189 .0109988105
8383202 -.006 .0141 18 188 148 0 190 191 185 186 ?1 29 189 153 0 191 186 192 .01
189881058383202 -.006 .0141 18 191 151 0 193 194 188 189 ?1 29 192 156 0 194 189
 195 .01189881058383202 -.0016 .0141 18 194 154 0 196 197 191 192 ?1 29 195 159
 0 197 192 198 .01319881058383202 -.0016 .0141 18 197 157 0 199 200 194 195 ?1 2
9 198 162 0 200 195 33 .01319881058383202 -.006 .0141 18 200 160 0 201 30 197 19
8 ?1 29 33 165 0 30 198 31 .01409881058383202 -.006 .0141 18 30 163 0 202 22 200
 33 ?1 17 202 0 24 26 201 30 203 204 0 205 +15 255 24 3 0 25 206 0 17 26 0 24 21
 202 22 207 208 0 114 +17 201 0 24 202 199 200 209 210 0 211 +17 203 0 212 213 2
05 200 202 204 0 0 -16 204 79 0 ?202 208 210 214 0 0 1 17 205 0 212 203 110 30 1
15 215 0 207 -15 212 466 0 110 216 0 17 110 0 212 205 213 109 217 218 0 115 +17
 115 0 113 112 207 109 205 215 0 116 +16 215 436 0 ?115 219 220 221 0 0 1 17 207
 0 113 115 114 30 26 208 0 0 -15 113 464 0 112 222 0 17 114 0 113 207 112 22 118
 220 0 27 -16 208 82 0 ?26 28 204 223 0 0 1 16 28 85 0 ?21 224 208 225 0 0 1 30
 223 83 0 208 214 225 0 +.01409881058383202 -.006 .0141 0 1 0 31 255 214 80 0 20
4 226 223 0 +.01364881058383202 -.006 .0141 0 0 1 1 0 0 45e-5 30 225 86 0 28 223
 227 0 +0 0 .0141 -1 0 0 30 227 405 0 228 225 229 0 +0 0 0 1264902534566422e-31
 -1 0 16 228 345 0 ?230 231 0 227 0 0 1 31 229 404 0 231 227 232 0 +45e-5 -.006
 0 0 0 1 1 0 0 45e-5 16 231 341 0 ?39 233 228 229 0 0 1 30 232 403 0 233 229 234
 0 +9e-4 -.0016 0 -147845750793478e-30 1 0 16 233 337 0 ?42 235 231 232 0 0 1 30
 234 402 0 235 232 236 0 +9e-4 -.0016 0 1 0 0 16 235 333 0 ?45 237 233 234 0 0 1
 30 236 401 0 237 234 238 0 +.0022 -.0016 0 985638338623186e-31 -1 0 16 237 329
 0 ?48 239 235 236 0 0 1 31 238 400 0 239 236 240 0 +.00265 -.006 0 0 0 1 1 0 0
 45e-5 16 239 325 0 ?51 241 237 238 0 0 1 30 240 399 0 241 238 242 0 +.0031 -.00
6 0 0 1 0 16 241 321 0 ?54 243 239 240 0 0 1 30 242 398 0 243 240 244 0 +.0031 -
.0016 0 1 0 0 16 243 317 0 ?57 245 241 242 0 0 1 30 244 397 0 245 242 246 0 +.00
44 -.0016 0 3942553354492745e-31 -1 0 16 245 313 0 ?60 247 243 244 0 0 1 31 246
 396 0 247 244 248 0 +.00485 -.006 0 0 0 1 1 0 0 45e-5 16 247 309 0 ?63 249 245
 246 0 0 1 30 248 395 0 249 246 250 0 +.0053 -.006 0 0 1 0 16 249 305 0 ?66 251
 247 248 0 0 1 30 250 394 0 251 248 252 0 +.0053 -.0016 0 1 0 0 16 251 301 0 ?69
 253 249 250 0 0 1 30 252 393 0 253 250 254 0 +.0066 -.0016 0 0 -1 0 16 253 297
 0 ?72 255 251 252 0 0 1 31 254 392 0 255 252 256 0 +.00705 -.006 0 0 0 1 1 0 0
 45e-5 16 255 293 0 ?75 257 253 254 0 0 1 30 256 391 0 257 254 258 0 +.0075 -.00
6 0 0 1 0 16 257 289 0 ?78 259 255 256 0 0 1 30 258 390 0 259 256 260 0 +.0075 -
.0016 0 1 0 0 16 259 285 0 ?81 261 257 258 0 0 1 30 260 389 0 261 258 262 0 +.00
88 -.0016 0 0 -1 0 16 261 281 0 ?84 263 259 260 0 0 1 31 262 388 0 263 260 264 0
 +.00924940529191601 -.006 0 0 0 1 1 0 0 .0004494052919160095 16 263 277 0 ?87 2
65 261 262 0 0 1 30 264 387 0 265 262 266 0 +.00969881058383202 -.006 0 0 1 0 16
 265 273 0 ?90 267 263 264 0 0 1 30 266 386 0 267 264 268 0 +.00969881058383202
 -.0016 0 1 0 0 16 267 269 0 ?93 269 265 266 0 0 1 30 268 385 0 269 266 270 0 +.
01099881058383202 -.0016 0 0 -1 0 16 269 265 0 ?96 271 267 268 0 0 1 31 270 384
 0 271 268 272 0 +.01144881058383202 -.006 0 0 0 1 1 0 0 45e-5 16 271 261 0 ?99
 273 269 270 0 0 1 30 272 383 0 273 270 274 0 +.01189881058383202 -.006 0 0 1 0
 16 273 257 0 ?102 275 271 272 0 0 1 30 274 382 0 275 272 276 0 +.01189881058383
202 -.0016 0 1 166800334228539e-30 0 16 275 253 0 ?105 277 273 274 0 0 1 30 276
 381 0 277 274 278 0 +.01319881058383202 -.0016 0 0 -1 0 16 277 249 0 ?108 218 2
75 276 0 0 1 31 278 380 0 218 276 279 0 +.01364881058383202 -.006 0 0 0 1 1 0 0
 45e-5 16 218 245 0 ?110 117 277 278 0 0 1 30 279 379 0 117 278 280 0 +.01409881
058383202 -.006 0 0 1 0 16 117 241 0 ?112 123 218 279 0 0 1 30 280 378 0 123 279
 281 0 +0 0 0 -1 0 0 16 123 237 0 ?119 282 117 280 0 0 1 30 281 546 0 224 280 28
3 0 +0 0 .0141 0 0 -1 16 224 434 0 ?124 220 28 281 0 0 1 30 283 547 0 220 281 22
1 0 +.01409881058383202 0 .0141 0 0 -1 16 220 435 0 ?118 215 224 283 0 0 1 30 22
1 548 0 215 283 284 0 +.01409881058383202 -.006 .0141 0 0 -1 30 284 549 0 219 22
1 285 0 +.01319881058383202 -.006 .0141 0 0 -1 16 219 437 0 ?213 286 215 284 0 0
 1 30 285 550 0 286 284 287 0 +.01319881058383202 -.0016 .0141 0 0 -1 16 286 438
 0 ?288 289 219 285 0 0 1 30 287 551 0 289 285 290 0 +.01189881058383202 -.0016
 .0141 0 0 -1 16 289 439 0 ?291 292 286 287 0 0 1 30 290 552 0 292 287 293 0 +.0
1189881058383202 -.006 .0141 0 0 -1 16 292 440 0 ?294 295 289 290 0 0 1 30 293 5
53 0 295 290 296 0 +.01099881058383202 -.006 .0141 0 0 -1 16 295 441 0 ?297 298
 292 293 0 0 1 30 296 554 0 298 293 299 0 +.01099881058383202 -.0016 .0141 0 0 -
1 16 298 442 0 ?300 301 295 296 0 0 1 30 299 555 0 301 296 302 0 +.0096988105838
3202 -.0016 .0141 0 0 -1 16 301 443 0 ?303 304 298 299 0 0 1 30 302 556 0 304 29
9 305 0 +.00969881058383202 -.006 .0141 0 0 -1 16 304 444 0 ?306 307 301 302 0 0
 1 30 305 557 0 307 302 308 0 +.0088 -.006 .0141 0 0 -1 16 307 445 0 ?309 310 30
4 305 0 0 1 30 308 558 0 310 305 311 0 +.0088 -.0016 .0141 0 0 -1 16 310 446 0 ?
312 313 307 308 0 0 1 30 311 559 0 313 308 314 0 +.0075 -.0016 .0141 0 0 -1 16 3
13 447 0 ?315 316 310 311 0 0 1 30 314 560 0 316 311 317 0 +.0075 -.006 .0141 0
 0 -1 16 316 448 0 ?318 319 313 314 0 0 1 30 317 561 0 319 314 320 0 +.0066 -.00
6 .0141 0 0 -1 16 319 449 0 ?321 322 316 317 0 0 1 30 320 562 0 322 317 323 0 +.
0066 -.0016 .0141 0 0 -1 16 322 450 0 ?324 325 319 320 0 0 1 30 323 563 0 325 32
0 326 0 +.0053 -.0016 .0141 0 0 -1 16 325 451 0 ?327 328 322 323 0 0 1 30 326 56
4 0 328 323 329 0 +.0053 -.006 .0141 0 0 -1 16 328 452 0 ?330 331 325 326 0 0 1
 30 329 565 0 331 326 332 0 +.0044 -.006 .0141 0 0 -1 16 331 453 0 ?333 334 328
 329 0 0 1 30 332 566 0 334 329 335 0 +.0044 -.0016 .0141 0 0 -1 16 334 454 0 ?3
36 337 331 332 0 0 1 30 335 567 0 337 332 338 0 +.0031 -.0016 .0141 0 0 -1 16 33
7 455 0 ?339 340 334 335 0 0 1 30 338 568 0 340 335 341 0 +.0031 -.006 .0141 0 0
 -1 16 340 456 0 ?342 343 337 338 0 0 1 30 341 569 0 343 338 344 0 +.0022 -.006
 .0141 0 0 -1 16 343 457 0 ?345 346 340 341 0 0 1 30 344 570 0 346 341 347 0 +.0
022 -.0016 .0141 0 0 -1 16 346 458 0 ?348 349 343 344 0 0 1 30 347 571 0 349 344
 15 0 +9e-4 -.0016 .0141 0 0 -1 16 349 459 0 ?350 20 346 347 0 0 1 30 15 572 0 2
0 347 6 0 +9e-4 -.006 .0141 0 0 -1 16 20 460 0 ?351 9 349 15 0 0 1 17 351 0 352
 42 353 37 129 20 0 354 +15 352 512 0 42 355 0 17 42 0 352 356 351 40 354 233 0
 350 +17 353 0 352 351 356 126 136 357 0 0 -17 129 0 128 125 39 126 351 20 0 353
 -17 354 0 358 36 359 37 42 233 0 0 -15 358 236 0 360 361 0 17 36 0 358 360 354
 34 39 231 0 19 -17 359 0 358 354 362 40 45 235 0 0 -17 362 0 358 359 363 43 48
 237 0 0 -17 45 0 364 365 350 43 359 235 0 348 +15 364 510 0 45 366 0 17 365 0 3
64 367 45 137 348 346 0 368 -17 350 0 364 45 367 40 356 349 0 359 +17 348 0 369
 48 368 43 365 346 0 362 +15 369 508 0 48 370 0 17 48 0 369 371 348 46 362 237 0
 345 +17 368 0 369 348 371 137 142 372 0 0 -17 371 0 369 368 48 140 345 343 0 37
3 -17 142 0 24 145 139 140 368 372 0 371 +16 372 16 0 ?142 374 375 376 0 0 1 16
 374 19 0 ?145 377 372 378 0 0 1 16 375 13 0 ?139 372 357 379 0 0 1 30 376 17 0
 372 379 378 0 +.0022 -.0016 .0141 985638338623186e-31 -1 0 30 379 14 0 375 380
 376 0 +9e-4 -.0016 .0141 1 0 0 31 378 20 0 374 376 381 0 +.00265 -.006 .0141 0
 0 1 1 0 0 45e-5 30 381 23 0 377 378 382 0 +.0031 -.006 .0141 0 1 0 16 377 22 0
 ?148 383 374 381 0 0 1 30 382 26 0 383 381 384 0 +.0031 -.0016 .0141 1 0 0 16 3
83 25 0 ?151 385 377 382 0 0 1 30 384 29 0 385 382 386 0 +.0044 -.0016 .0141 394
2553354492745e-31 -1 0 16 385 28 0 ?154 387 383 384 0 0 1 31 386 32 0 387 384 38
8 0 +.00485 -.006 .0141 0 0 1 1 0 0 45e-5 16 387 31 0 ?157 389 385 386 0 0 1 30
 388 35 0 389 386 390 0 +.0053 -.006 .0141 0 1 0 16 389 34 0 ?160 391 387 388 0
 0 1 30 390 38 0 391 388 392 0 +.0053 -.0016 .0141 1 0 0 16 391 37 0 ?163 393 38
9 390 0 0 1 30 392 41 0 393 390 394 0 +.0066 -.0016 .0141 0 -1 0 16 393 40 0 ?16
6 395 391 392 0 0 1 31 394 44 0 395 392 396 0 +.00705 -.006 .0141 0 0 1 1 0 0 45
e-5 16 395 43 0 ?169 397 393 394 0 0 1 30 396 47 0 397 394 398 0 +.0075 -.006 .0
141 0 1 0 16 397 46 0 ?172 399 395 396 0 0 1 30 398 50 0 399 396 400 0 +.0075 -.
0016 .0141 1 0 0 16 399 49 0 ?175 401 397 398 0 0 1 30 400 53 0 401 398 402 0 +.
0088 -.0016 .0141 0 -1 0 16 401 52 0 ?178 403 399 400 0 0 1 31 402 56 0 403 400
 404 0 +.00924940529191601 -.006 .0141 0 0 1 1 0 0 .0004494052919160095 16 403 5
5 0 ?181 405 401 402 0 0 1 30 404 59 0 405 402 406 0 +.00969881058383202 -.006 .
0141 0 1 0 16 405 58 0 ?184 407 403 404 0 0 1 30 406 62 0 407 404 408 0 +.009698
81058383202 -.0016 .0141 1 0 0 16 407 61 0 ?187 409 405 406 0 0 1 30 408 65 0 40
9 406 410 0 +.01099881058383202 -.0016 .0141 0 -1 0 16 409 64 0 ?190 411 407 408
 0 0 1 31 410 68 0 411 408 412 0 +.01144881058383202 -.006 .0141 0 0 1 1 0 0 45e
-5 16 411 67 0 ?193 413 409 410 0 0 1 30 412 71 0 413 410 414 0 +.01189881058383
202 -.006 .0141 0 1 0 16 413 70 0 ?196 415 411 412 0 0 1 30 414 74 0 415 412 226
 0 +.01189881058383202 -.0016 .0141 1 166800334228539e-30 0 16 415 73 0 ?199 210
 413 414 0 0 1 30 226 77 0 210 414 214 0 +.01319881058383202 -.0016 .0141 0 -1 0
 16 210 76 0 ?201 204 415 226 0 0 1 17 199 0 24 201 196 197 416 415 0 417 +17 19
6 0 24 199 193 194 418 413 0 419 +17 416 0 420 291 417 194 199 415 0 0 -17 417 0
 420 416 105 197 288 286 0 209 -15 420 470 0 105 421 0 17 105 0 420 417 291 103
 422 275 0 288 +17 288 0 423 108 209 103 417 286 0 424 +17 209 0 423 288 211 197
 201 210 0 0 -15 423 468 0 108 425 0 17 211 0 423 209 108 200 213 219 0 203 -17
 108 0 423 211 288 106 424 277 0 213 +17 213 0 212 110 203 106 211 219 0 217 +17
 217 0 358 424 116 106 110 218 0 0 -17 424 0 358 422 217 103 108 277 0 0 -17 116
 0 358 217 122 109 112 117 0 0 -17 122 0 358 116 360 111 119 123 0 0 -17 360 0 3
58 122 36 16 230 228 0 0 -17 230 0 426 427 124 34 360 228 0 0 +15 426 516 0 230
 12 0 17 427 0 426 428 230 120 19 9 0 0 -17 124 0 426 230 428 16 29 224 0 360 +1
7 428 0 426 124 427 10 25 282 0 0 -17 29 0 121 27 119 10 124 224 0 428 -15 121 4
62 0 119 429 0 17 27 0 121 118 29 22 21 28 0 0 -17 118 0 121 119 27 111 114 220
 0 122 +14 255 429 463 430 ?206 222 121 4 431 -0 0 206 222 18 81 255 1 430 1657
 432 429 433 0 434 435 436 14 206 1 437 ?361 429 24 4 438 +0 0 361 429 18 14 222
 465 434 ?429 216 113 4 439 -0 0 429 216 18 50 431 518 0 429 440 439 0 +0 0 .014
1 0 -1 0 0 0 -1 13 18 173 0 0 0 0 0 0 8 12 14 12 517 441 ?442 0 426 4 5 -0 0 442
 0 18 81 1 441 1632 432 12 443 0 444 445 446 14 442 515 447 ?355 12 128 4 14 -0
 0 355 12 18 81 1 447 1630 432 442 448 0 0 444 449 14 355 513 444 ?366 442 352 4
 450 -0 0 366 442 18 15 128 514 0 39 442 0 51 255 14 544 0 442 450 5 0 -45e-5 -.
006 .0141 0 0 -1 45e-5 -1 0 0 50 450 543 0 355 451 14 0 +9e-4 -.0016 .0141 -1 -1
47845750793478e-30 0 147845750793478e-30 -1 0 50 451 542 0 366 452 450 0 +9e-4 -
.0016 .0141 0 1 0 0 0 1 14 366 511 445 ?370 355 364 4 451 -0 0 370 355 18 50 452
 541 0 370 453 451 0 +.0022 -.0016 .0141 1 985638338623186e-31 0 -98563833862318
6e-31 1 0 14 370 509 454 ?455 366 369 4 452 -0 0 455 366 18 51 453 540 0 455 456
 452 0 -.00265 -.006 .0141 0 0 -1 45e-5 -1 0 0 14 455 507 457 ?458 370 459 4 453
 -0 0 458 370 18 50 456 539 0 458 460 453 0 +.0031 -.006 .0141 -1 0 0 0 0 1 14 4
58 505 461 ?462 455 463 4 456 -0 0 462 455 18 50 460 538 0 462 464 456 0 +.0031
 -.0016 .0141 0 1 0 0 0 1 14 462 503 465 ?466 458 467 4 460 -0 0 466 458 18 50 4
64 537 0 466 468 460 0 +.0044 -.0016 .0141 1 3942553354492745e-31 0 -39425533544
92745e-31 1 0 14 466 501 469 ?470 462 471 4 464 -0 0 470 462 18 51 468 536 0 470
 472 464 0 -.00485 -.006 .0141 0 0 -1 45e-5 -1 0 0 14 470 499 473 ?474 466 475 4
 468 -0 0 474 466 18 50 472 535 0 474 476 468 0 +.0053 -.006 .0141 -1 0 0 0 0 1
 14 474 497 477 ?478 470 479 4 472 -0 0 478 470 18 50 476 534 0 478 480 472 0 +.
0053 -.0016 .0141 0 1 0 0 0 1 14 478 495 481 ?482 474 483 4 476 -0 0 482 474 18
 50 480 533 0 482 484 476 0 +.0066 -.0016 .0141 1 0 0 0 0 -1 14 482 493 485 ?486
 478 487 4 480 -0 0 486 478 18 51 484 532 0 486 488 480 0 -.00705 -.006 .0141 0
 0 -1 45e-5 -1 0 0 14 486 491 489 ?490 482 491 4 484 -0 0 490 482 18 50 488 531
 0 490 492 484 0 +.0075 -.006 .0141 -1 0 0 0 0 1 14 490 489 493 ?494 486 495 4 4
88 -0 0 494 486 18 50 492 530 0 494 496 488 0 +.0075 -.0016 .0141 0 1 0 0 0 1 14
 494 487 497 ?498 490 499 4 492 -0 0 498 490 18 50 496 529 0 498 500 492 0 +.008
8 -.0016 .0141 1 0 0 0 0 -1 14 498 485 501 ?502 494 503 4 496 -0 0 502 494 18 51
 500 528 0 502 504 496 0 -.00924940529191601 -.006 .0141 0 0 -1 .000449405291916
0095 -1 0 0 14 502 483 505 ?506 498 507 4 500 -0 0 506 498 18 50 504 527 0 506 5
08 500 0 +.00969881058383202 -.006 .0141 -1 0 0 0 0 1 14 506 481 509 ?510 502 51
1 4 504 -0 0 510 502 18 50 508 526 0 510 512 504 0 +.00969881058383202 -.0016 .0
141 0 1 0 0 0 1 14 510 479 513 ?514 506 515 4 508 -0 0 514 506 18 50 512 525 0 5
14 516 508 0 +.01099881058383202 -.0016 .0141 1 0 0 0 0 -1 14 514 477 517 ?518 5
10 519 4 512 -0 0 518 510 18 51 516 524 0 518 520 512 0 -.01144881058383202 -.00
6 .0141 0 0 -1 45e-5 -1 0 0 14 518 475 521 ?522 514 523 4 516 -0 0 522 514 18 50
 520 523 0 522 524 516 0 +.01189881058383202 -.006 .0141 -1 0 0 0 0 1 14 522 473
 525 ?421 518 526 4 520 -0 0 421 518 18 50 524 522 0 421 527 520 0 +.01189881058
383202 -.0016 .0141 -166800334228539e-30 1 0 -1 -166800334228539e-30 0 14 421 47
1 528 ?425 522 420 4 524 -0 0 425 522 18 50 527 521 0 425 529 524 0 +.0131988105
8383202 -.0016 .0141 1 0 0 0 0 -1 14 425 469 530 ?216 421 423 4 527 -0 0 216 421
 18 51 529 520 0 216 439 527 0 -.01364881058383202 -.006 .0141 0 0 -1 45e-5 -1 0
 0 14 216 467 531 ?222 425 212 4 529 -0 0 222 425 18 50 439 519 0 222 431 529 0
 +.01409881058383202 -.006 .0141 -1 0 0 0 0 1 81 1 531 1655 432 216 532 0 530 43
4 533 80 255 1 432 534 535 9000 1 1 1 1 1 1 1 1 0 FFFFTFTFFFFFFF1 81 1 532 1563
 536 216 0 531 537 538 539 81 1 530 1654 432 425 537 0 528 531 540 81 1 434 1656
 432 222 538 0 531 430 541 82 255 1 533 -1067712364 81 1 538 1564 536 222 0 434
 532 433 542 82 1 541 -1067974508 80 1 536 0 543 8001 0 0 0 0 3 5 0 0 0 FFFFTFTF
FFFFFF2 81 1 433 1565 536 429 0 430 538 544 545 83 255 3 542 .898039215686275 .9
2156862745098 .929411764705882 81 1 544 1566 536 206 0 437 433 546 547 83 3 545
 .898039215686275 .92156862745098 .929411764705882 81 1 437 1659 432 206 544 0 4
35 0 548 81 1 546 1567 536 361 0 435 544 0 549 83 3 547 .898039215686275 .921568
62745098 .929411764705882 14 361 235 435 ?0 206 358 4 440 -0 0 0 206 18 81 1 435
 1658 432 361 546 0 430 437 550 83 3 549 .898039215686275 .92156862745098 .92941
1764705882 82 1 550 -1073872748 50 440 377 0 361 438 431 0 +45e-5 -.006 0 0 0 1
 1 0 0 50 438 2 0 206 0 440 0 +45e-5 -.006 .0141 0 0 1 1 0 0 82 1 548 -110782039
6 79 255 15 543 SDL/TYSA_COLOUR81 1 537 1562 536 425 0 530 551 532 552 81 1 528
 1653 432 421 551 0 525 530 553 82 1 540 -1067450220 81 1 551 1561 536 421 0 528
 554 537 555 81 1 525 1652 432 522 554 0 521 528 556 82 1 553 -1067188076 81 1 5
54 1560 536 522 0 525 557 551 558 81 1 521 1651 432 518 557 0 517 525 559 82 1 5
56 -1066925932 81 1 557 1559 536 518 0 521 560 554 561 81 1 517 1650 432 514 560
 0 513 521 562 82 1 559 -1066663788 81 1 560 1558 536 514 0 517 563 557 564 81 1
 513 1649 432 510 563 0 509 517 565 82 1 562 -1066401644 81 1 563 1557 536 510 0
 513 566 560 567 81 1 509 1648 432 506 566 0 505 513 568 82 1 565 -1066139500 81
 1 566 1556 536 506 0 509 569 563 570 81 1 505 1647 432 502 569 0 501 509 571 82
 1 568 -1065877356 81 1 569 1555 536 502 0 505 572 566 573 81 1 501 1646 432 498
 572 0 497 505 574 82 1 571 -1065615212 81 1 572 1554 536 498 0 501 575 569 576
 81 1 497 1645 432 494 575 0 493 501 577 82 1 574 -1065353068 81 1 575 1553 536
 494 0 497 578 572 579 81 1 493 1644 432 490 578 0 489 497 580 82 1 577 -1065090
924 81 1 578 1552 536 490 0 493 581 575 582 81 1 489 1643 432 486 581 0 485 493
 583 82 1 580 -1064828780 81 1 581 1551 536 486 0 489 584 578 585 81 1 485 1642
 432 482 584 0 481 489 586 82 1 583 -1064566636 81 1 584 1550 536 482 0 485 587
 581 588 81 1 481 1641 432 478 587 0 477 485 589 82 1 586 -1064304492 81 1 587 1
549 536 478 0 481 590 584 591 81 1 477 1640 432 474 590 0 473 481 592 82 1 589 -
1064042348 81 1 590 1548 536 474 0 477 593 587 594 81 1 473 1639 432 470 593 0 4
69 477 595 82 1 592 -1063780204 81 1 593 1547 536 470 0 473 596 590 597 81 1 469
 1638 432 466 596 0 465 473 598 82 1 595 -1063518060 81 1 596 1546 536 466 0 469
 599 593 600 81 1 465 1637 432 462 599 0 461 469 601 82 1 598 -1063255916 81 1 5
99 1545 536 462 0 465 602 596 603 81 1 461 1636 432 458 602 0 457 465 604 82 1 6
01 -1062993772 81 1 602 1544 536 458 0 461 605 599 606 81 1 457 1635 432 455 605
 0 454 461 607 82 1 604 -1062731628 81 1 605 1543 536 455 0 457 608 602 609 81 1
 454 1634 432 370 608 0 445 457 610 82 1 607 -1062469484 81 1 608 1542 536 370 0
 454 611 605 612 81 1 445 1633 432 366 611 0 441 454 613 82 1 610 -1062207340 81
 1 611 1541 536 366 0 445 614 608 615 82 1 613 -1061945196 81 1 614 1540 536 355
 0 444 448 611 616 83 3 615 .898039215686275 .92156862745098 .929411764705882 81
 1 444 1631 432 355 614 0 447 441 617 81 1 448 1539 536 442 0 447 443 614 618 83
 3 616 .898039215686275 .92156862745098 .929411764705882 81 1 443 1538 536 12 0
 441 0 448 619 83 3 618 .898039215686275 .92156862745098 .929411764705882 83 3 6
19 .898039215686275 .92156862745098 .929411764705882 82 1 617 -1061683052 83 3 6
12 .898039215686275 .92156862745098 .929411764705882 83 3 609 .898039215686275 .
92156862745098 .929411764705882 83 3 606 .898039215686275 .92156862745098 .92941
1764705882 83 3 603 .898039215686275 .92156862745098 .929411764705882 83 3 600 .
898039215686275 .92156862745098 .929411764705882 83 3 597 .898039215686275 .9215
6862745098 .929411764705882 83 3 594 .898039215686275 .92156862745098 .929411764
705882 83 3 591 .898039215686275 .92156862745098 .929411764705882 83 3 588 .8980
39215686275 .92156862745098 .929411764705882 83 3 585 .898039215686275 .92156862
745098 .929411764705882 83 3 582 .898039215686275 .92156862745098 .9294117647058
82 83 3 579 .898039215686275 .92156862745098 .929411764705882 83 3 576 .89803921
5686275 .92156862745098 .929411764705882 83 3 573 .898039215686275 .921568627450
98 .929411764705882 83 3 570 .898039215686275 .92156862745098 .929411764705882 8
3 3 567 .898039215686275 .92156862745098 .929411764705882 83 3 564 .898039215686
275 .92156862745098 .929411764705882 83 3 561 .898039215686275 .92156862745098 .
929411764705882 83 3 558 .898039215686275 .92156862745098 .929411764705882 83 3
 555 .898039215686275 .92156862745098 .929411764705882 83 3 552 .898039215686275
 .92156862745098 .929411764705882 83 3 539 .898039215686275 .92156862745098 .929
411764705882 79 14 535 SWEntUnchanged15 526 472 0 102 522 0 17 102 0 526 419 294
 100 620 273 0 291 +17 419 0 526 418 102 194 291 289 0 416 -17 294 0 526 102 418
 97 621 292 0 620 +17 620 0 358 622 422 97 102 273 0 0 -17 291 0 420 105 416 100
 419 289 0 422 +17 422 0 358 620 424 100 105 275 0 0 -17 622 0 358 623 620 94 99
 271 0 0 -17 623 0 358 624 622 91 96 269 0 0 -17 99 0 523 621 297 97 622 271 0 2
94 +15 523 474 0 99 518 0 17 621 0 523 625 99 191 294 292 0 418 -17 297 0 523 99
 625 94 626 295 0 622 +17 625 0 523 297 621 188 193 411 0 0 -17 626 0 519 627 96
 188 297 295 0 625 -15 519 476 0 96 514 0 17 627 0 519 300 626 185 190 409 0 0 -
17 96 0 519 626 300 94 623 269 0 297 +17 300 0 519 96 627 91 628 298 0 623 +17 6
28 0 515 629 93 185 300 298 0 627 -15 515 478 0 93 510 0 17 629 0 515 303 628 18
2 187 407 0 0 -17 93 0 515 628 303 91 624 267 0 300 +17 303 0 515 93 629 88 630
 301 0 624 +17 624 0 358 631 623 88 93 267 0 0 -17 631 0 358 632 624 85 90 265 0
 0 -17 632 0 358 633 631 82 87 263 0 0 -17 90 0 511 630 306 88 631 265 0 303 +15
 511 480 0 90 506 0 17 630 0 511 634 90 182 303 301 0 629 -17 306 0 511 90 634 8
5 635 304 0 631 +17 634 0 511 306 630 179 184 405 0 0 -17 635 0 507 636 87 179 3
06 304 0 634 -15 507 482 0 87 502 0 17 636 0 507 309 635 176 181 403 0 0 -17 87
 0 507 635 309 85 632 263 0 306 +17 309 0 507 87 636 82 637 307 0 632 +17 637 0
 503 638 84 176 309 307 0 636 -15 503 484 0 84 498 0 17 638 0 503 312 637 173 17
8 401 0 0 -17 84 0 503 637 312 82 633 261 0 309 +17 312 0 503 84 638 79 639 310
 0 633 +17 633 0 358 640 632 79 84 261 0 0 -17 640 0 358 641 633 76 81 259 0 0 -
17 641 0 358 642 640 73 78 257 0 0 -17 81 0 499 639 315 79 640 259 0 312 +15 499
 486 0 81 494 0 17 639 0 499 643 81 173 312 310 0 638 -17 315 0 499 81 643 76 64
4 313 0 640 +17 643 0 499 315 639 170 175 399 0 0 -17 644 0 495 645 78 170 315 3
13 0 643 -15 495 488 0 78 490 0 17 645 0 495 318 644 167 172 397 0 0 -17 78 0 49
5 644 318 76 641 257 0 315 +17 318 0 495 78 645 73 646 316 0 641 +17 646 0 491 6
47 75 167 318 316 0 645 -15 491 490 0 75 486 0 17 647 0 491 321 646 164 169 395
 0 0 -17 75 0 491 646 321 73 642 255 0 318 +17 321 0 491 75 647 70 648 319 0 642
 +17 642 0 358 649 641 70 75 255 0 0 -17 649 0 358 650 642 67 72 253 0 0 -17 650
 0 358 651 649 64 69 251 0 0 -17 72 0 487 648 324 70 649 253 0 321 +15 487 492 0
 72 482 0 17 648 0 487 652 72 164 321 319 0 647 -17 324 0 487 72 652 67 653 322
 0 649 +17 652 0 487 324 648 161 166 393 0 0 -17 653 0 483 654 69 161 324 322 0
 652 -15 483 494 0 69 478 0 17 654 0 483 327 653 158 163 391 0 0 -17 69 0 483 65
3 327 67 650 251 0 324 +17 327 0 483 69 654 64 655 325 0 650 +17 655 0 479 656 6
6 158 327 325 0 654 -15 479 496 0 66 474 0 17 656 0 479 330 655 155 160 389 0 0
 -17 66 0 479 655 330 64 651 249 0 327 +17 330 0 479 66 656 61 657 328 0 651 +17
 651 0 358 658 650 61 66 249 0 0 -17 658 0 358 659 651 58 63 247 0 0 -17 659 0 3
58 660 658 55 60 245 0 0 -17 63 0 475 657 333 61 658 247 0 330 +15 475 498 0 63
 470 0 17 657 0 475 661 63 155 330 328 0 656 -17 333 0 475 63 661 58 662 331 0 6
58 +17 661 0 475 333 657 152 157 387 0 0 -17 662 0 471 663 60 152 333 331 0 661
 -15 471 500 0 60 466 0 17 663 0 471 336 662 149 154 385 0 0 -17 60 0 471 662 33
6 58 659 245 0 333 +17 336 0 471 60 663 55 664 334 0 659 +17 664 0 467 665 57 14
9 336 334 0 663 -15 467 502 0 57 462 0 17 665 0 467 339 664 146 151 383 0 0 -17
 57 0 467 664 339 55 660 243 0 336 +17 339 0 467 57 665 52 666 337 0 660 +17 660
 0 358 667 659 52 57 243 0 0 -17 667 0 358 363 660 49 54 241 0 0 -17 363 0 358 3
62 667 46 51 239 0 0 -17 54 0 463 666 342 52 667 241 0 339 +15 463 504 0 54 458
 0 17 666 0 463 668 54 146 339 337 0 665 -17 342 0 463 54 668 49 669 340 0 667 +
17 668 0 463 342 666 143 148 377 0 0 -17 669 0 459 373 51 143 342 340 0 668 -15
 459 506 0 51 455 0 17 373 0 459 345 669 140 145 374 0 0 -17 51 0 459 669 345 49
 363 239 0 342 +17 345 0 459 51 373 46 371 343 0 363 +17 145 0 24 148 142 143 37
3 374 0 669 +17 148 0 24 151 145 146 668 377 0 666 +17 151 0 24 154 148 149 665
 383 0 664 +17 154 0 24 157 151 152 663 385 0 662 +17 157 0 24 160 154 155 661 3
87 0 657 +17 160 0 24 163 157 158 656 389 0 655 +17 163 0 24 166 160 161 654 391
 0 653 +17 166 0 24 169 163 164 652 393 0 648 +17 169 0 24 172 166 167 647 395 0
 646 +17 172 0 24 175 169 170 645 397 0 644 +17 175 0 24 178 172 173 643 399 0 6
39 +17 178 0 24 181 175 176 638 401 0 637 +17 181 0 24 184 178 179 636 403 0 635
 +17 184 0 24 187 181 182 634 405 0 630 +17 187 0 24 190 184 185 629 407 0 628 +
17 190 0 24 193 187 188 627 409 0 626 +17 193 0 24 196 190 191 625 411 0 621 +17
 418 0 526 294 419 191 196 413 0 0 -17 39 0 128 129 19 37 36 231 0 351 +17 19 0
 128 39 125 34 427 9 0 230 +82 1 449 -1061420908 82 1 446 -1061158764 82 1 436 -
1068236652 17 25 0 24 130 21 120 428 282 0 427 +16 282 4 0 ?25 131 123 670 0 0 1
 16 131 7 0 ?130 357 282 671 0 0 1 30 670 5 0 282 0 671 0 +0 0 .0141 12649025345
66422e-31 -1 0 31 671 8 0 131 670 380 0 +45e-5 -.006 .0141 0 0 1 1 0 0 45e-5 30
 380 11 0 357 671 379 0 +9e-4 -.0016 .0141 -147845750793478e-30 1 0 16 357 10 0
 ?136 375 131 380 0 0 1 17 136 0 24 139 130 132 353 357 0 356 +17 139 0 24 142 1
36 137 367 375 0 365 +17 130 0 24 136 25 126 125 131 0 129 +17 356 0 352 353 42
 132 350 349 0 367 -17 367 0 364 350 365 132 139 375 0 0 -19 13 575 0 1 0 8 4 S0
 74 4 CI16 index_map_offset0 0 1 dCCZ20 11 2 0 0 437 546 0 0 0 0 0 0 0 0 0 0 0 0
 0 0 0 0 0 0 1 0 
