**ABCDEFGHIJKLMNOPQRSTUVWXYZabcdefghijklmnopqrstuvwxyz**************************
**PARASOLID !"#$%&'()*+,-./:;<=>?@[\]^_`{|}~0123456789**************************
**PART1;
MC=AMD64;
MC_MODEL=Intel64 Family 6 Model 44 Stepping 2, GenuineIntel;
MC_ID=unknown;
OS=Windows_NT;
OS_RELEASE=unknown;
FRU=Parasolid Version 28.0, build 224,  7-29-2016;
APPL=SOLIDWORKS 2016-2016286;
SITE=;
USER=unknown;
FORMAT=text;
GUISE=transmit;
KEY=RES_47K_0.25_AXIAL_300MIL;
FILE=RES_47K_0.25_AXIAL_300MIL.x_t;
DATE=Tue Feb 07 21:46:21 2023;
**PART2;
SCH=SCH_2800224_28002;
USFLD_SIZE=0;
**PART3;
**END_OF_HEADER*****************************************************************
T51 : TRANSMIT FILE created by modeller version 280022423 SCH_2800224_28002_1300
6200 0 12 30 CCCCCCCCCCCCCDI5 owner1040 0 CCCCCCCCCA13 boundary_mesh1006 0 A16 i
ndex_map_offset0 0 1 dA9 index_map82 0 A17 node_id_index_map82 0 A20 schema_embe
dding_map82 0 A5 child12 0 A14 lowest_node_id0 0 1 dZ1 14272 0 2 0 3 0 0 1e3 1e-
8 0 4 0 1 0 1 1 5 6 7 0 8 9 0 0 0 0 0 0 0 0 70 11 CI9 list_type0 0 1 uI10 notran
smit0 0 1 lCCCDCCDI12 finger_index0 0 1 dI12 finger_block1012 0 CZ2 0 4 T1 0 0 4
 20 1 10 10 31 255 3 3586 0 1 11 0 12 +-.000901601710718139 0 0 1 0 0 0 0 -1 .00
1 13 255 5 888 0 1 0 13 0 0 14 0 54 255 6 9946 0 15 16 0 0 +-.001217582327212252
 0 0 1 0 0 5e-4 5e-4 0 0 -1 31 7 9893 0 9 17 0 0 --.001400000000000074 0 0 -1 -7
5467800215145e-30 0 75467800215145e-30 -1 0 .001 19 8 CCCCCCCA5 owner12 0 Z8 5 0
 1 14 0 18 V0 16 255 9 9890 0 ?19 0 20 7 0 0 1 17 255 19 0 21 19 19 0 22 9 0 0 +
16 20 9877 0 ?23 9 24 17 0 0 1 17 23 0 25 23 23 0 26 20 0 0 +16 24 9798 0 ?27 20
 28 29 0 0 1 31 17 9880 0 20 29 7 0 --.001217582327212252 0 0 1 0 0 0 0 -1 .001
 31 29 9801 0 24 30 17 0 -.001400000000000074 0 0 1 75467800215145e-30 0 -754678
00215145e-30 1 0 .001 31 30 9788 0 28 31 29 0 -.001217582327212252 0 0 -1 0 0 0
 0 1 .001 16 28 9785 0 ?32 24 33 30 0 0 1 31 31 8171 0 34 35 30 0 +.001885386443
980435 615080601467294e-33 0 -1 -75467800215145e-30 0 75467800215145e-30 -1 0 .0
00620000000000427 16 34 206 36 ?37 38 39 31 0 0 1 31 35 8119 0 40 41 31 42 +.000
901601710718138 0 0 1 0 0 0 0 -1 8875e-7 16 40 72 43 ?44 45 38 35 0 0 1 31 41 36
39 0 38 46 35 0 --.001885386443980435 436163586803181e-33 0 -1 -75467800215145e-
30 0 75467800215145e-30 -1 0 .000620000000000426 141 255 42 47 42 42 35 133 255
 47 9544 0 1 48 49 0 +35 .000901601710718138 0 -8875e-7 .000901601710718138 0 -8
875e-7 0 6.28318530717959 133 48 9543 0 1 50 47 0 +46 -.000901601710718138 0 887
5e-7 -.000901601710718138 0 8875e-7 0 6.28318530717959 133 49 9545 0 1 47 51 0 +
3 -.000901601710718139 0 -.001 -.000901601710718139 0 -.001 0 6.28318530717959 1
33 51 9546 0 1 49 11 0 +11 .000901601710718138 0 .001 .000901601710718138 0 .001
 0 6.28318530717959 31 11 8118 0 1 51 3 52 +.000901601710718138 0 0 -1 0 0 0 0 1
 .001 141 52 51 52 52 11 133 50 9542 0 1 53 48 0 +54 .000585621094224025 0 775e-
6 .000585621094224025 0 775e-6 0 6.28318530717959 31 46 3587 0 45 55 41 56 +-.00
0901601710718138 0 0 -1 0 0 0 0 1 8875e-7 16 45 50 57 ?58 59 40 46 0 0 1 31 55 8
94 0 60 61 46 0 -.00381 -.003 0 3469446951953615e-31 -1 0 1 3469446951953615e-31
 0 24e-5 141 56 62 63 64 46 133 62 5703 0 1 65 66 0 +46 -.000901601710718138 0 8
875e-7 -.000901601710718138 0 8875e-7 0 6.28318530717959 141 63 48 64 56 46 141
 64 67 56 63 46 133 67 7410 0 1 68 69 0 +46 -.000901601710718138 0 8875e-7 -.000
901601710718138 0 8875e-7 0 6.28318530717959 133 68 7307 0 1 70 67 0 +71 .00405
 -5e-4 0 .00405 -5e-4 0 0 6.28318530717959 133 69 8084 0 1 67 72 0 +73 .00121758
2327212252 0 .001 .001217582327212252 0 .001 0 6.28318530717959 133 72 8085 0 1
 69 73 0 +74 .000901601710718138 0 -8875e-7 .000901601710718138 0 -8875e-7 0 6.2
8318530717959 31 73 124 0 1 72 74 75 +.001217582327212252 0 0 -1 0 0 0 0 1 .001
 31 74 82 0 1 73 76 77 +.000901601710718138 0 0 1 0 0 0 0 -1 8875e-7 141 75 78 7
9 80 73 133 78 5707 0 1 81 82 0 +73 .001217582327212252 0 .001 .0012175823272122
52 0 .001 0 6.28318530717959 141 79 69 80 75 73 141 80 83 75 79 73 133 83 7135 0
 1 82 84 0 +73 .001217582327212252 0 .001 .001217582327212252 0 .001 0 6.2831853
0717959 133 82 7133 0 1 78 83 0 +85 .0014 0 .001 .0014 0 .001 0 6.28318530717959
 133 84 7218 0 1 83 86 0 +74 .000901601710718138 0 -8875e-7 .000901601710718138
 0 -8875e-7 0 6.28318530717959 133 86 7232 0 1 84 70 0 +54 .000585621094224025 0
 775e-6 .000585621094224025 0 775e-6 0 6.28318530717959 133 70 7289 0 1 86 68 0
 +87 .00331 -24e-5 0 .00331 -24e-5 0 0 6.28318530717959 31 54 39 0 59 88 89 90 +
.000585621094224025 0 0 -1 0 0 0 0 1 775e-6 16 59 10 91 ?92 33 45 54 0 0 1 31 88
 33 0 33 0 54 0 --.000585621094224024 0 0 -1 0 0 0 0 1 775e-6 31 89 62 0 1 54 93
 94 +-.000585621094224025 0 .001275 0 1 0 0 0 1 5e-4 141 90 95 96 97 54 133 95 2
944 0 1 98 99 0 +54 .000585621094224025 0 775e-6 .000585621094224025 0 775e-6 0
 6.28318530717959 141 96 50 100 90 54 141 97 65 90 100 54 133 65 5702 0 1 101 62
 0 +54 .000585621094224025 0 775e-6 .000585621094224025 0 775e-6 0 6.28318530717
959 141 100 86 97 96 54 133 101 3656 0 1 102 65 0 +102 -.0014 0 -.001 -.0014 0 -
.001 0 6.28318530717959 31 102 3655 0 1 103 101 104 +-.0014 0 0 1 0 0 0 0 -1 .00
1 133 103 3653 0 1 105 102 0 +105 -.001217582327212252 0 -.001 -.001217582327212
252 0 -.001 0 6.28318530717959 141 104 101 104 104 102 31 105 3652 0 1 106 103 1
07 +-.001217582327212252 0 0 1 0 0 0 0 -1 .001 133 106 3650 0 1 108 105 0 +108 -
.0014 0 -.001 -.0014 0 -.001 0 6.28318530717959 141 107 103 107 107 105 31 108 3
649 0 1 109 106 110 +-.0014 0 0 1 0 0 0 0 -1 .001 31 109 191 0 1 111 108 112 +-.
001885386443980435 0 0 1 0 0 0 0 -1 .000620000000000126 141 110 106 110 110 108
 31 111 146 0 1 113 109 114 +-.0014 0 0 1 0 0 0 0 -1 .001 141 112 115 116 116 10
9 133 115 2695 0 1 117 118 0 +109 -.001885386443980435 0 -.000620000000000126 -.
001885386443980435 0 -.000620000000000126 0 6.28318530717959 141 116 113 112 112
 109 133 113 3605 0 1 119 111 0 +109 -.001885386443980435 0 -.000620000000000126
 -.001885386443980435 0 -.000620000000000126 0 6.28318530717959 133 119 3601 0 1
 120 113 0 +120 -.001217582327212252 0 -.001 -.001217582327212252 0 -.001 0 6.28
318530717959 31 120 3600 0 1 121 119 122 +-.001217582327212252 0 0 1 0 0 0 0 -1
 .001 133 121 3598 0 1 123 120 0 +111 -.0014 0 -.001 -.0014 0 -.001 0 6.28318530
717959 141 122 119 122 122 120 31 123 60 0 1 124 121 125 +-.000901601710718138 0
 0 -1 0 0 0 0 1 8875e-7 31 124 102 0 1 126 123 127 +-.001217582327212252 0 0 1 0
 0 0 0 -1 .001 141 125 98 128 128 123 133 98 2766 0 1 118 95 0 +123 -.0009016017
10718138 0 8875e-7 -.000901601710718138 0 8875e-7 0 6.28318530717959 141 128 126
 125 125 123 133 126 3553 0 1 129 124 0 +123 -.000901601710718138 0 8875e-7 -.00
0901601710718138 0 8875e-7 0 6.28318530717959 133 129 3552 0 1 99 126 0 +124 -.0
01217582327212252 0 -.001 -.001217582327212252 0 -.001 0 6.28318530717959 133 99
 2958 0 1 95 129 0 +74 .000901601710718138 0 -8875e-7 .000901601710718138 0 -887
5e-7 0 6.28318530717959 133 118 2717 0 1 115 98 0 +130 -.002370772887961005 -.00
02399999999999825 0 -.002370772887961005 -.0002399999999999825 0 0 6.28318530717
959 31 130 271 0 39 131 132 133 +-.002370772887961005 3995325396217155e-34 0 -1
 -75467800215145e-30 0 0 -1 0 .000239999999999983 16 39 258 134 ?135 34 136 130
 0 0 1 31 131 273 0 1 93 130 137 +-.002370772887961005 -.000739999999999983 0 0
 0 1 0 -1 0 5e-4 31 132 325 0 1 130 138 139 +.002370772887961005 -.0007399999999
99982 0 0 0 1 0 -1 0 5e-4 141 133 118 133 133 130 31 138 322 0 136 132 140 0 -.0
02370772887961005 65171164864876e-32 0 -1 -75467800215145e-30 0 0 -1 0 .00023999
9999999983 141 139 141 139 139 132 68 255 141 319 0 142 143 144 0 +132 .00237077
2887961005 65171164864876e-32 0 -1 -75467800215145e-30 0 ????0 -1 0 ?14 255 142
 306 145 1e-8 146 147 148 5 141 -0 0 147 146 18 68 143 267 0 146 149 141 0 +131
 -.002370772887961005 3995325396217155e-34 0 -1 -75467800215145e-30 0 ????0 -1 0
 ?51 255 144 390 0 147 141 150 0 +.00331 1301042606982604e-33 0 -1 -150935600430
29e-29 0 24e-5 15093560043029e-29 -1 0 14 147 379 151 1e-8 142 152 153 5 144 +0
 0 152 142 18 51 150 432 0 152 144 154 0 +.00331 1301042606982604e-33 0 -1 -1509
3560043029e-29 0 24e-5 15093560043029e-29 -1 0 14 152 421 155 1e-8 147 156 157 5
 150 +0 0 156 147 18 68 154 496 0 156 150 158 0 +159 -.00331 -5e-4 0 0 0 1 ????1
 0 0 24e-5 14 156 485 160 1e-8 152 161 162 5 154 +0 0 161 152 18 68 158 540 0 16
1 154 163 0 +164 .00331 -5e-4 0 0 0 1 ????1 0 0 ?31 159 501 0 1 87 164 165 +-.00
281 -5e-4 0 0 1 0 1 0 0 24e-5 31 87 434 0 166 140 159 167 +.00331 13010426069826
04e-33 0 -1 -15093560043029e-29 0 15093560043029e-29 -1 0 24e-5 31 164 545 0 1 1
59 168 169 +.00381 -5e-4 0 0 1 0 1 0 0 24e-5 141 165 154 165 165 159 31 168 713
 0 170 164 71 0 --.00381 -5e-4 0 3216245299353275e-31 -1 0 -1 -3216245299353275e
-31 0 24e-5 141 169 158 169 169 164 16 170 489 171 ?172 166 173 168 0 0 1 31 71
 772 0 173 168 61 174 +.00381 -5e-4 0 0 1 0 1 0 0 24e-5 16 173 534 175 ?176 170
 177 71 0 0 1 31 61 892 0 177 71 55 0 --.00381 -.003 0 1734723475976805e-31 -1 0
 1 1734723475976805e-31 0 24e-5 141 174 68 174 174 71 16 177 599 178 ?179 173 60
 61 0 0 1 81 255 2 178 8314 180 177 181 0 175 182 0 183 17 179 0 184 179 179 0 1
85 177 0 0 +16 60 619 182 ?186 177 0 55 0 0 1 81 2 182 8315 180 60 187 0 178 0 0
 188 17 186 0 189 186 186 0 190 60 0 0 +15 255 189 618 0 186 191 0 17 190 0 192
 190 190 0 186 60 0 0 -15 192 719 0 190 13 0 14 13 717 193 1e-8 194 0 192 5 195
 +0 0 196 194 18 81 1 193 14258 197 13 198 0 160 199 200 14 194 679 199 1e-8 191
 13 201 5 202 -0 0 13 191 18 50 255 195 724 0 13 202 203 0 +.00381 -.003 0 52041
7042793042e-30 -1 0 1 520417042793042e-30 0 14 196 9834 204 ?205 206 207 5 203 +
0 0 205 13 18 13 18 3 0 0 0 0 0 0 8 206 14 206 2 208 1e-8 196 209 210 5 211 +0 0
 209 0 18 81 1 208 14261 197 206 212 0 204 213 214 14 209 46 213 1e-8 206 215 21
6 5 217 -0 0 215 206 18 15 210 928 0 92 206 218 51 211 6 0 206 0 217 0 +.0019 0
 0 -1 0 0 775e-6 0 0 1 68 217 57 0 209 211 219 0 +89 -.000585621094224025 0 0 -1
 0 0 ????0 0 1 ?68 219 79 0 215 217 220 0 +93 .000585621094224024 0 0 1 0 0 ????
0 0 -1 ?14 215 68 221 1e-8 209 222 223 5 219 -0 0 222 209 18 51 220 145 0 222 21
9 149 0 +-.0019 0 0 1 0 0 .001 0 0 -1 31 93 84 0 1 89 131 224 +.0005856210942240
24 0 -.001275 0 1 0 0 0 -1 5e-4 141 224 219 224 224 93 14 222 134 225 1e-8 215 2
26 21 5 220 +0 0 226 215 18 51 149 166 0 226 220 143 0 +.0019 0 0 -1 0 0 .001 0
 0 1 14 226 155 227 1e-8 222 146 228 5 149 +0 0 146 222 18 81 1 227 14265 197 22
6 229 0 225 230 231 14 146 254 230 1e-8 226 142 232 5 143 -0 0 142 226 18 15 228
 9799 0 27 226 233 17 27 0 228 27 27 0 234 24 0 0 +15 233 9786 0 32 226 0 17 32
 0 233 32 32 0 235 28 0 0 +17 235 0 236 235 235 0 32 28 0 0 -15 236 9848 0 235 2
05 237 14 205 9847 238 ?239 196 236 5 240 +0 0 239 196 18 15 237 9849 0 44 205 0
 17 44 0 237 44 44 0 241 40 0 0 +17 241 0 242 241 241 0 44 40 0 0 -15 242 70 0 2
41 215 0 81 1 238 14267 197 205 243 0 230 244 245 14 239 9926 244 ?15 205 246 5
 16 +0 0 15 205 18 54 240 9854 0 205 203 16 0 +.001217582327212252 0 0 -1 0 0 5e
-4 5e-4 0 0 1 54 203 9841 0 196 195 240 0 +.001400000000000074 578449554285845e-
33 0 1 75467800215145e-30 0 5e-4 5e-4 -75467800215145e-30 1 0 54 16 9933 0 239 2
40 6 0 +-.001400000000000074 472794633984631e-33 0 -1 -75467800215145e-30 0 5e-4
 5e-4 75467800215145e-30 -1 0 81 1 244 14268 197 239 247 0 238 248 249 14 15 993
9 248 ?0 239 250 5 6 +0 0 0 239 18 15 246 9927 0 251 239 252 17 251 0 246 251 25
1 0 253 38 0 0 +15 252 9928 0 22 239 0 17 22 0 252 22 22 0 19 9 0 0 -17 253 0 25
4 253 253 0 251 38 0 0 -16 38 182 255 ?251 40 34 41 0 0 1 81 2 255 8306 180 38 2
56 0 43 36 0 257 80 255 2 180 258 259 9000 0 0 0 0 3 6 0 0 0 FFTFTTTFFTFFFF3 3 8
1 2 256 5956 180 38 260 255 261 262 0 263 81 2 43 8301 180 40 261 0 57 255 0 264
 81 2 36 8307 180 34 262 0 255 134 0 265 84 255 16 257 000000005425E0C081 2 262
 5957 180 34 266 36 256 267 0 268 81 2 134 8308 180 39 267 0 36 269 0 270 84 16
 265 000000005425E78081 2 267 5958 180 39 271 134 262 272 0 273 81 2 269 8309 18
0 136 272 0 134 274 0 275 84 16 270 000000005425ED2016 136 311 269 ?276 39 277 1
38 0 0 1 81 2 272 5959 180 136 278 269 267 279 0 280 81 2 274 8310 180 277 279 0
 269 281 0 282 84 16 275 000000005425C95016 277 383 274 ?283 136 166 140 0 0 1 8
1 2 279 5960 180 277 284 274 272 285 0 286 81 2 281 8311 180 166 285 0 274 171 0
 287 84 16 282 000000005425C47016 166 426 281 ?288 277 170 87 0 0 1 81 2 285 596
1 180 166 289 281 279 290 0 291 81 2 171 8312 180 170 290 0 281 175 0 292 84 16
 287 000000005425E54081 2 290 5962 180 170 293 171 285 294 0 295 81 2 175 8313 1
80 173 294 0 171 178 0 296 84 16 292 000000005425E57081 2 294 5963 180 173 297 1
75 290 181 0 298 84 16 296 000000005425D0A081 2 297 5802 180 173 299 294 293 300
 0 301 81 2 181 5964 180 177 300 178 294 187 0 302 84 16 298 00000000547B55B081
 2 300 5803 180 177 303 181 297 304 0 305 81 2 187 5965 180 60 304 182 181 306 0
 307 84 16 302 00000000547B579081 2 304 5804 180 60 308 187 300 309 0 310 81 2 3
06 8279 180 13 309 198 187 311 0 312 84 16 307 00000000547B67B081 2 309 5911 180
 13 313 306 304 314 0 315 81 1 198 14195 316 13 306 193 0 317 318 81 2 311 8280
 180 194 314 317 306 319 0 320 84 16 312 000000005425EED081 2 314 5912 180 194 3
21 311 309 322 0 323 81 1 317 14196 316 194 311 199 198 324 325 81 2 319 8281 18
0 191 322 324 311 326 0 327 84 16 320 000000005425E0F014 191 616 328 1e-8 329 19
4 330 5 331 +0 0 194 329 18 81 2 322 5913 180 191 332 319 314 333 0 334 81 1 324
 14197 316 191 319 328 317 335 336 81 2 326 8282 180 329 333 335 319 337 0 338 8
4 16 327 000000005425BE7014 329 595 339 1e-8 161 191 184 5 163 +0 0 191 161 18 8
1 2 333 5914 180 329 340 326 322 341 0 342 81 1 335 14198 316 329 326 339 324 34
3 344 81 2 337 8283 180 161 341 343 326 345 0 346 84 16 338 000000005425EDB014 1
61 529 347 1e-8 156 329 348 5 158 +0 0 329 156 18 81 2 341 5915 180 161 349 337
 333 350 0 351 81 1 343 14199 316 161 337 347 335 352 353 81 2 345 8284 180 156
 350 352 337 354 0 355 84 16 346 000000005425C86081 2 350 5916 180 156 356 345 3
41 357 0 358 81 1 352 14200 316 156 345 160 343 359 360 81 2 354 8285 180 152 35
7 359 345 361 0 362 84 16 355 000000005425E99081 2 357 5917 180 152 363 354 350
 364 0 365 81 1 359 14201 316 152 354 155 352 366 367 81 2 361 8286 180 147 364
 366 354 368 0 369 84 16 362 000000005425E87081 2 364 5918 180 147 370 361 357 3
71 0 372 81 1 366 14202 316 147 361 151 359 373 374 81 2 368 8287 180 142 371 37
3 361 375 0 376 84 16 369 000000005425C68081 2 371 5919 180 142 377 368 364 378
 0 379 81 1 373 14203 316 142 368 145 366 380 381 81 2 375 8288 180 146 378 380
 368 382 0 383 84 16 376 000000005425EC3081 2 378 5920 180 146 384 375 371 385 0
 386 81 1 380 14204 316 146 375 230 373 229 387 81 2 382 8291 180 226 385 229 37
5 388 0 389 84 16 383 000000005425D5E081 2 385 5923 180 226 390 382 378 391 0 39
2 81 1 229 14205 316 226 382 227 380 393 394 81 2 388 8292 180 222 391 393 382 3
95 0 396 84 16 389 000000005425C65081 2 391 5924 180 222 397 388 385 398 0 399 8
1 1 393 14206 316 222 388 225 229 400 401 81 2 395 8295 180 215 398 400 388 402
 0 403 84 16 396 000000005425B78081 2 398 5927 180 215 404 395 391 405 0 406 81
 1 400 14207 316 215 395 221 393 407 408 81 2 402 8296 180 209 405 407 395 409 0
 410 84 16 403 000000005425E7E081 2 405 5928 180 209 411 402 398 412 0 413 81 1
 407 14208 316 209 402 213 400 212 414 81 2 409 8297 180 206 412 212 402 415 0 4
16 84 16 410 000000005425E8A081 2 412 5929 180 206 417 409 405 418 0 419 81 1 21
2 14209 316 206 409 208 407 420 421 81 2 415 8298 180 33 418 0 409 91 0 422 84 1
6 416 000000005425EF3016 33 18 415 ?423 28 59 88 0 0 1 81 2 418 5948 180 33 424
 415 412 425 0 426 81 2 91 8299 180 59 425 0 415 57 0 427 84 16 422 000000005425
EB7081 2 425 5949 180 59 428 91 418 429 0 430 81 2 57 8300 180 45 429 0 91 43 0
 431 84 16 427 000000005425BAE081 2 429 5950 180 45 432 57 425 261 0 433 84 16 4
31 000000005425DA0081 2 432 5789 180 45 434 429 428 435 0 436 81 2 261 5951 180
 40 435 43 429 256 0 437 84 16 433 00000000547B552081 2 435 5790 180 40 438 261
 432 260 0 439 84 16 437 00000000547B528081 2 438 3777 180 40 440 435 434 441 0
 442 81 2 260 5795 180 38 441 256 435 266 0 443 84 16 439 00000000540AEEF081 2 4
41 3782 180 38 444 260 438 445 0 446 81 2 266 5796 180 34 445 262 260 271 0 447
 84 16 443 00000000540AC49081 2 445 3783 180 34 448 266 441 449 0 450 81 2 271 5
797 180 39 449 267 266 278 0 451 84 16 447 00000000540ABAD081 2 449 3784 180 39
 452 271 445 453 0 454 81 2 278 5798 180 136 453 272 271 284 0 455 84 16 451 000
00000540ACC7081 2 453 3785 180 136 456 278 449 457 0 458 81 2 284 5799 180 277 4
57 279 278 289 0 459 84 16 455 00000000540ABF8081 2 457 3786 180 277 460 284 453
 461 0 462 81 2 289 5800 180 166 461 285 284 293 0 463 84 16 459 00000000540AE83
081 2 461 3787 180 166 464 289 457 465 0 466 81 2 293 5801 180 170 465 290 289 2
97 0 467 84 16 463 00000000540ABDA081 2 465 3788 180 170 468 293 461 299 0 469 8
4 16 467 00000000540AC61081 2 468 1509 180 170 470 465 464 471 0 472 81 2 299 37
89 180 173 471 297 465 303 0 473 84 16 469 000000005425E00081 2 471 1510 180 173
 474 299 468 475 0 476 81 2 303 3790 180 177 475 300 299 308 0 477 84 16 473 000
000005425E03081 2 475 1511 180 177 478 303 471 479 0 480 81 2 308 3791 180 60 47
9 304 303 313 0 481 84 16 477 000000005425E06081 2 479 1512 180 60 482 308 475 4
83 0 484 81 2 313 5768 180 13 483 309 308 321 0 485 84 16 481 000000005425E09081
 2 483 3755 180 13 486 313 479 487 0 488 81 2 321 5769 180 194 487 314 313 332 0
 489 84 16 485 00000000540AC5B081 2 487 3756 180 194 490 321 483 491 0 492 81 2
 332 5770 180 191 491 322 321 340 0 493 84 16 489 00000000540AD45081 2 491 3757
 180 191 494 332 487 495 0 496 81 2 340 5771 180 329 495 333 332 349 0 497 84 16
 493 00000000540AC79081 2 495 3758 180 329 498 340 491 499 0 500 81 2 349 5772 1
80 161 501 341 340 356 0 502 84 16 497 00000000540AC43081 2 501 5277 503 161 499
 349 504 0 0 505 81 2 356 5773 180 156 506 350 349 363 0 507 84 16 502 000000005
40AF01081 2 506 4286 503 156 508 356 509 510 0 511 81 2 363 5774 180 152 512 357
 356 370 0 513 84 16 507 00000000540AC04081 2 512 3761 180 152 514 363 508 515 0
 516 81 2 370 5775 180 147 515 364 363 377 0 517 84 16 513 00000000540ACF4081 2
 515 3762 180 147 518 370 512 519 0 520 81 2 377 5776 180 142 504 371 370 384 0
 521 84 16 517 00000000540AE6E081 2 504 4919 503 142 519 377 510 501 0 522 81 2
 384 5777 180 146 523 378 377 390 0 524 84 16 521 00000000540AE80081 2 523 3977
 503 146 525 384 0 509 0 526 81 2 390 5780 180 226 527 385 384 397 0 528 84 16 5
24 00000000540AE32081 2 527 3767 180 226 529 390 525 530 0 531 81 2 397 5781 180
 222 530 391 390 404 0 532 84 16 528 00000000540ACDC081 2 530 3768 180 222 533 3
97 527 534 0 535 81 2 404 5784 180 215 510 398 397 411 0 536 84 16 532 000000005
40AED7081 2 510 4427 503 215 534 404 506 504 0 537 81 2 411 5785 180 209 509 405
 404 417 0 538 84 16 536 00000000540ADA2081 2 509 3981 503 209 539 411 523 506 0
 540 81 2 417 5786 180 206 541 412 411 424 0 542 84 16 538 00000000540AE8F081 2
 541 3773 180 206 543 417 539 544 0 545 81 2 424 5787 180 33 544 418 417 428 0 5
46 84 16 542 00000000540AD3F081 2 544 3774 180 33 547 424 541 548 0 549 81 2 428
 5788 180 59 548 425 424 432 0 550 84 16 546 00000000540AEEC081 2 548 3775 180 5
9 551 428 544 434 0 552 84 16 550 00000000540ADA8081 2 551 1496 180 59 553 548 5
47 554 0 555 81 2 434 3776 180 45 554 432 548 438 0 556 84 16 552 000000005425DB
B081 2 554 1497 180 45 557 434 551 440 0 558 84 16 556 000000005425DD3081 2 557
 1336 180 45 0 554 553 559 0 560 81 2 440 1498 180 40 559 438 554 444 0 561 84 1
6 558 000000005425D4F081 2 559 1337 180 40 0 440 557 562 0 563 81 2 444 1503 180
 38 562 441 440 448 0 564 84 16 561 000000005425D67081 2 562 1342 180 38 0 444 5
59 565 0 566 81 2 448 1504 180 34 565 445 444 452 0 567 84 16 564 000000005425D5
5081 2 565 1343 180 34 0 448 562 568 0 569 81 2 452 1505 180 39 568 449 448 456
 0 570 84 16 567 000000005425C3E081 2 568 1344 180 39 0 452 565 571 0 572 81 2 4
56 1506 180 136 571 453 452 460 0 573 84 16 570 000000005425C41081 2 571 1345 18
0 136 0 456 568 574 0 575 81 2 460 1507 180 277 574 457 456 464 0 576 84 16 573
 000000005425C50081 2 574 1346 180 277 0 460 571 577 0 578 81 2 464 1508 180 166
 577 461 460 468 0 579 84 16 576 000000005425C53081 2 577 1347 180 166 0 464 574
 470 0 580 84 16 579 000000005425C56081 2 470 1348 180 170 0 468 577 474 0 581 8
4 16 580 000000005425C68081 2 474 1349 180 173 0 471 470 478 0 582 84 16 581 000
000005425C8F081 2 478 1350 180 177 0 475 474 482 0 583 84 16 582 000000005425CDA
081 2 482 1351 180 60 0 479 478 486 0 584 84 16 583 000000005425C5F081 2 486 145
8 180 13 585 483 482 490 0 586 84 16 584 000000005425D7F081 2 585 1297 180 13 0
 486 0 587 0 588 81 2 490 1459 180 194 587 487 486 494 0 589 84 16 586 000000005
425D8E081 2 587 1298 180 194 0 490 585 590 0 591 81 2 494 1460 180 191 590 491 4
90 498 0 592 84 16 589 000000005425D91081 2 590 1299 180 191 0 494 587 593 0 594
 81 2 498 1461 180 329 593 495 494 595 0 596 84 16 592 000000005425D8B081 2 593
 1300 180 329 0 498 590 597 0 598 81 2 595 1462 180 161 597 499 498 599 0 600 84
 16 596 000000005425D6A081 2 597 1301 180 161 0 595 593 601 0 602 81 2 499 3759
 180 161 595 501 495 508 0 603 81 2 599 1463 180 156 601 508 595 514 0 604 84 16
 600 000000005425CF2081 2 601 1302 180 156 0 599 597 605 0 606 81 2 508 3760 180
 156 599 506 499 512 0 607 81 2 514 1464 180 152 605 512 599 518 0 608 84 16 604
 000000005425C83081 2 605 1303 180 152 0 514 601 609 0 610 81 2 518 1465 180 147
 609 515 514 611 0 612 84 16 608 000000005425CFB081 2 609 1304 180 147 0 518 605
 613 0 614 81 2 611 1466 180 142 613 519 518 615 0 616 84 16 612 000000005425CBC
081 2 613 1305 180 142 0 611 609 617 0 618 81 2 519 3763 180 142 611 504 515 525
 0 619 81 2 615 1467 180 146 617 525 611 529 0 620 84 16 616 000000005425C44081
 2 617 1306 180 146 0 615 613 621 0 622 81 2 525 3764 180 146 615 523 519 527 0
 623 81 2 529 1470 180 226 621 527 615 533 0 624 84 16 620 000000005425C80081 2
 621 1309 180 226 0 529 617 625 0 626 81 2 533 1471 180 222 625 530 529 627 0 62
8 84 16 624 000000005425C3B081 2 625 1310 180 222 0 533 621 629 0 630 81 2 627 1
474 180 215 629 534 533 631 0 632 84 16 628 000000005425D64081 2 629 1313 180 21
5 0 627 625 633 0 634 81 2 534 3771 180 215 627 510 530 539 0 635 81 2 631 1475
 180 209 633 539 627 543 0 636 84 16 632 000000005425CD7081 2 633 1314 180 209 0
 631 629 637 0 638 81 2 539 3772 180 209 631 509 534 541 0 639 81 2 543 1476 180
 206 637 541 631 547 0 640 84 16 636 000000005425CF8081 2 637 1315 180 206 0 543
 633 641 0 642 81 2 547 1495 180 33 641 544 543 551 0 643 84 16 640 000000005425
D1F081 2 641 1334 180 33 0 547 637 553 0 644 84 16 643 000000005425D76081 2 553
 1335 180 59 0 551 641 557 0 645 84 16 644 000000005425D19084 16 645 00000000542
5C65084 16 642 000000005425CDD084 16 639 000000005425DE2084 16 638 000000005425B
A2084 16 635 000000005425DD0084 16 634 000000005425D1C084 16 630 000000005425D6D
084 16 626 00000000540ABAD084 16 623 000000005425DBE084 16 622 00000000540AC4908
4 16 619 000000005425DD9084 16 618 00000000540ABE6084 16 614 00000000540AE56084
 16 610 00000000540AE86084 16 607 000000005425DC7084 16 606 00000000540AE47084 1
6 603 000000005425D31084 16 602 00000000540AEEF084 16 598 00000000540AC07084 16
 594 00000000540ADD2084 16 591 00000000540AE71084 16 588 00000000540AC61084 16 5
78 000000005425D85084 16 575 000000005425D0A084 16 572 000000005425D43084 16 569
 000000005425D0D084 16 566 000000005425C8C084 16 563 000000005425D5E084 16 560 0
00000005425B93084 16 555 000000005425D79084 16 549 000000005425DB2084 16 545 000
000005425DAC080 2 503 180 646 9000 0 0 0 0 3 6 0 0 0 FFTFTTTFFTFFFF3 3 84 161 54
0 4 -0.0005856210942240 -0.0000000000000000 -0.0000000000000000 -1.0000000000000
000 -0.0000000000000002 -0.0000000000000000 0.0012750000000000 0.000500000000000
0 179 255 37 646 GSS_FW_GSS_AFR_MIL_SURFACE_ATTRIB_DEF84 157 537 4 0.00058562109
42240 -0.0000000000000000 0.0000000000000000 1.0000000000000000 -0.0000000000000
002 0.0000000000000000 0.0012750000000000 0.0005000000000000 184 16 535 00000000
5425D97084 16 531 000000005425DB5084 159 526 4 -0.0023707728879610 0.00000000000
00000 -0.0000000000000000 -1.0000000000000000 0.0000000000000000 -0.000000000000
0002 0.0007400000000000 0.0005000000000000 184 158 522 4 0.0023707728879610 0.00
00000000000000 -0.0000000000000000 -1.0000000000000000 0.0000000000000000 -0.000
0000000000002 0.0007400000000000 0.0005000000000000 184 16 520 000000005425DB808
4 16 516 000000005425DAF084 159 511 4 -0.0033100000000000 -0.0005000000000000 0.
0000000000000000 -0.0000000000000000 -0.0000000000000002 1.0000000000000000 0.00
05000000000000 0.0002400000000000 184 157 505 4 0.0033100000000000 -0.0005000000
000000 0.0000000000000000 0.0000000000000000 -0.0000000000000002 1.0000000000000
000 0.0005000000000000 0.0002400000000000 184 16 500 000000005425D9A084 16 496 0
00000005425DC4084 16 492 000000005425DDF084 16 488 000000005425DC1084 16 484 000
000005425C7D084 16 480 000000005425C7A084 16 476 000000005425C5C084 16 472 00000
0005425C59084 16 466 000000005425DFD084 16 462 000000005425DFA084 16 458 0000000
05425DF7084 16 454 000000005425DF4084 16 450 000000005425DF1084 16 446 000000005
425DEE084 16 442 000000005425DA9084 16 436 00000000540AF3D084 16 430 00000000547
B615084 16 426 00000000547B85B017 423 0 218 423 423 0 647 33 0 0 +15 218 8 0 423
 206 0 17 647 0 216 647 647 0 423 33 0 0 -15 216 922 0 647 209 648 15 648 48 0 6
49 209 0 17 649 0 648 649 649 0 58 45 0 0 -17 58 0 650 58 58 0 649 45 0 0 +15 65
0 9941 0 58 15 0 80 1 316 0 651 8001 0 0 0 0 3 5 0 0 0 FFFFTFTFFFFFFF2 81 1 420
 14210 316 196 0 204 212 243 652 83 255 3 421 .988235294117647 .737254901960784
 .517647058823529 81 1 204 14260 197 196 420 0 199 208 653 81 1 243 14211 316 20
5 0 238 420 247 654 83 3 652 .988235294117647 .737254901960784 .517647058823529
 81 1 247 14212 316 239 0 244 243 655 656 83 3 654 .988235294117647 .73725490196
0784 .517647058823529 81 1 655 14213 316 15 0 248 247 0 657 83 3 656 .9882352941
17647 .737254901960784 .517647058823529 81 1 248 14269 197 15 655 0 244 328 658
 83 3 657 .988235294117647 .737254901960784 .517647058823529 80 1 197 659 660 90
00 1 1 1 1 1 1 1 1 0 FFFFTFTFFFFFFF1 81 1 328 14270 197 191 324 0 248 339 661 82
 255 1 658 -1640628068 81 1 339 14271 197 329 335 0 328 347 662 82 1 661 999999
 81 1 347 14272 197 161 343 0 339 0 663 82 1 662 999999 82 1 663 999999 79 14 66
0 SWEntUnchanged81 1 199 14259 197 194 317 0 193 204 664 82 1 653 -1650524005 82
 1 664 999999 79 15 651 SDL/TYSA_COLOUR84 16 419 00000000547B855081 1 213 14262
 197 209 407 0 208 221 665 83 3 414 .501960784313726 0 .501960784313726 81 1 221
 14263 197 215 400 0 213 225 666 82 1 665 -1931214741 81 1 225 14264 197 222 393
 0 221 227 667 82 1 666 -864878471 82 1 667 -1687289700 84 16 413 00000000547B78
F083 3 408 .909803921568627 .443137254901961 .03137254901960785 84 16 406 000000
00547B726083 3 401 1 1 0 84 16 399 00000000540AC52083 3 394 .968627450980392 .87
843137254902 .6 84 16 392 00000000540AD5A081 1 230 14266 197 146 380 0 227 238 6
68 83 3 387 .988235294117647 .737254901960784 .517647058823529 82 1 668 -1931607
957 84 16 386 00000000540AC55081 1 145 14254 197 142 373 0 0 151 669 83 3 381 .9
88235294117647 .737254901960784 .517647058823529 81 1 151 14255 197 147 366 0 14
5 155 670 82 1 669 -864288647 81 1 155 14256 197 152 359 0 151 160 671 82 1 670
 999999 81 1 160 14257 197 156 352 0 155 193 672 82 1 671 999999 82 1 672 999999
 84 16 379 00000000540AE9E083 3 374 .752941176470588 .752941176470588 .752941176
470588 84 16 372 00000000540AE14083 3 367 .752941176470588 .752941176470588 .752
941176470588 84 16 365 00000000540AD8A083 3 360 .752941176470588 .75294117647058
8 .752941176470588 84 16 358 00000000540AE47083 3 353 .752941176470588 .75294117
6470588 .752941176470588 84 16 351 00000000540ABE6015 348 920 0 176 161 673 17 1
76 0 348 176 176 0 674 173 0 0 +15 673 531 0 675 161 0 17 675 0 673 675 675 0 28
8 166 0 0 -17 288 0 157 288 288 0 675 166 0 0 +15 157 914 0 288 152 676 15 676 4
23 0 276 152 0 17 276 0 676 276 276 0 677 136 0 0 +17 677 0 148 677 677 0 276 13
6 0 0 -15 148 908 0 677 142 678 15 678 308 0 679 142 0 17 679 0 678 679 679 0 37
 34 0 0 -17 37 0 207 37 37 0 679 34 0 0 +15 207 9835 0 37 196 680 15 680 9836 0
 234 196 0 17 234 0 680 234 234 0 27 24 0 0 -17 674 0 330 674 674 0 176 173 0 0
 -15 330 926 0 674 191 189 83 3 344 .752941176470588 .752941176470588 .752941176
470588 84 16 342 00000000540ABD4015 184 924 0 179 329 681 51 163 606 0 329 158 3
31 0 +-.00381 -5e-4 0 1734723475976805e-31 -1 0 24e-5 1 1734723475976805e-31 0 5
1 331 627 0 191 163 202 0 +.00381 -5e-4 0 3469446951953615e-31 -1 0 24e-5 1 3469
446951953615e-31 0 50 202 686 0 194 331 195 0 +-.00381 -.003 0 268181451896787e-
30 1 0 -1 268181451896787e-30 0 15 681 597 0 682 329 0 17 682 0 681 682 682 0 17
2 170 0 0 -17 172 0 162 172 172 0 682 170 0 0 +15 162 918 0 172 156 683 15 683 4
87 0 684 156 0 17 684 0 683 684 684 0 283 277 0 0 -17 283 0 153 283 283 0 684 27
7 0 0 +15 153 912 0 283 147 685 15 685 381 0 135 147 0 17 135 0 685 135 135 0 68
6 39 0 0 +17 686 0 232 686 686 0 135 39 0 0 -15 232 906 0 686 146 254 15 254 256
 0 253 146 0 83 3 336 .752941176470588 .752941176470588 .752941176470588 84 16 3
34 00000000540AEC8083 3 325 .752941176470588 .752941176470588 .752941176470588 8
4 16 323 00000000540AE71083 3 318 .752941176470588 .752941176470588 .75294117647
0588 84 16 315 00000000540ACB8084 16 310 00000000540ADB1084 16 305 00000000540AE
4D084 16 301 00000000540AD7B084 16 295 00000000547B54F084 16 291 00000000547B7E6
084 16 286 00000000547B85E031 140 393 0 277 138 87 0 --.00331 3018489321340855e-
34 0 -1 -15093560043029e-29 0 15093560043029e-29 -1 0 24e-5 84 16 280 0000000054
7B6CF084 16 273 00000000547B588084 16 268 00000000547B6B7084 16 264 000000005425
EAB084 16 263 00000000547B6C6079 35 259 GSS_FW_FW_LNK_LOCAL_PARTLINK_ATTRIB15 25
0 9940 0 26 15 650 17 26 0 250 26 26 0 23 20 0 0 -82 1 249 -1641873252 82 1 245
 -1649278821 82 1 231 -1674575717 15 21 9891 0 19 222 25 15 25 9878 0 23 222 0 1
5 223 930 0 687 215 242 17 687 0 223 687 687 0 92 59 0 0 -17 92 0 210 92 92 0 68
7 59 0 0 +82 1 214 999999 15 201 681 0 185 194 0 17 185 0 201 185 185 0 179 177
 0 0 -82 1 200 999999 84 16 188 000000005425EBD084 16 183 000000005425C980141 16
7 70 167 167 87 141 137 143 137 137 131 141 127 117 688 688 124 133 117 2683 0 1
 689 115 0 +124 -.001217582327212252 0 -.001 -.001217582327212252 0 -.001 0 6.28
318530717959 141 688 129 127 127 124 133 689 2681 0 1 0 117 0 +111 -.0014 0 -.00
1 -.0014 0 -.001 0 6.28318530717959 141 114 689 690 690 111 141 690 121 114 114
 111 141 94 217 94 94 89 31 85 167 0 1 691 692 693 +.0014 0 0 -1 0 0 0 0 1 .001
 133 691 8133 0 1 694 85 0 +694 .001217582327212252 0 .001 .001217582327212252 0
 .001 0 6.28318530717959 31 692 8181 0 1 85 695 696 +.0014 0 0 -1 0 0 0 0 1 .001
 141 693 82 697 697 85 141 697 76 693 693 85 133 76 8130 0 1 74 694 0 +85 .0014
 0 .001 .0014 0 .001 0 6.28318530717959 31 694 8132 0 1 76 691 698 +.00121758232
7212252 0 0 -1 0 0 0 0 1 .001 141 698 691 698 698 694 133 695 8182 0 1 692 699 0
 +692 .0014 0 .001 .0014 0 .001 0 6.28318530717959 141 696 695 696 696 692 31 69
9 8184 0 1 695 700 701 +.001217582327212252 0 0 -1 0 0 0 0 1 .001 133 700 8185 0
 1 699 702 0 +699 .001217582327212252 0 .001 .001217582327212252 0 .001 0 6.2831
8530717959 141 701 700 701 701 699 31 702 8187 0 1 700 53 703 +.0014 0 0 -1 0 0
 0 0 1 .001 133 53 8188 0 1 702 50 0 +702 .0014 0 .001 .0014 0 .001 0 6.28318530
717959 141 703 53 703 703 702 133 81 5705 0 1 66 78 0 +3 -.000901601710718139 0
 -.001 -.000901601710718139 0 -.001 0 6.28318530717959 133 66 5704 0 1 62 81 0 +
74 .000901601710718138 0 -8875e-7 .000901601710718138 0 -8875e-7 0 6.28318530717
959 141 77 99 704 705 74 141 704 72 706 77 74 141 705 66 77 706 74 141 706 84 70
5 704 74 19 14 889 0 1 0 8 5 S0 141 12 81 707 707 3 141 707 49 12 12 3 74 4 CI16
 index_map_offset0 0 1 dCCZ20 10 4 0 0 347 501 182 655 0 0 0 0 0 0 0 0 0 0 0 0 0
 0 0 0 1 0 
