**ABCDEFGHIJKLMNOPQRSTUVWXYZabcdefghijklmnopqrstuvwxyz**************************
**PARASOLID !"#$%&'()*+,-./:;<=>?@[\]^_`{|}~0123456789**************************
**PART1;
MC=AMD64;
MC_MODEL=Intel64 Family 6 Model 44 Stepping 2, GenuineIntel;
MC_ID=unknown;
OS=Windows_NT;
OS_RELEASE=unknown;
FRU=Parasolid Version 28.0, build 224,  7-29-2016;
APPL=SOLIDWORKS 2016-2016286;
SITE=;
USER=unknown;
FORMAT=text;
GUISE=transmit;
KEY=RES_47_0.25_AXIAL_300MIL;
FILE=RES_47_0.25_AXIAL_300MIL.x_t;
DATE=Mon Feb 06 11:00:12 2023;
**PART2;
SCH=SCH_2800224_28002;
USFLD_SIZE=0;
**PART3;
**END_OF_HEADER*****************************************************************
T51 : TRANSMIT FILE created by modeller version 280022423 SCH_2800224_28002_1300
6200 0 12 30 CCCCCCCCCCCCCDI5 owner1040 0 CCCCCCCCCA13 boundary_mesh1006 0 A16 i
ndex_map_offset0 0 1 dA9 index_map82 0 A17 node_id_index_map82 0 A20 schema_embe
dding_map82 0 A5 child12 0 A14 lowest_node_id0 0 1 dZ1 10587 0 2 0 3 0 0 1e3 1e-
8 0 4 0 1 0 1 1 5 6 7 0 8 9 0 0 0 0 0 0 0 0 70 11 CI9 list_type0 0 1 uI10 notran
smit0 0 1 lCCCDCCDI12 finger_index0 0 1 dI12 finger_block1012 0 CZ2 0 4 T1 0 0 5
 20 1 10 10 31 255 3 3586 0 1 11 0 12 +-.000901601710718139 0 0 1 0 0 0 0 -1 .00
1 13 255 5 888 0 1 0 13 0 0 14 0 54 255 6 9752 0 15 16 0 0 +-.001217582327212252
 0 0 1 0 0 5e-4 5e-4 0 0 -1 31 7 9699 0 9 17 0 0 --.001400000000000074 0 0 -1 -7
5467800215145e-30 0 75467800215145e-30 -1 0 .001 19 8 CCCCCCCA5 owner12 0 Z8 5 0
 1 14 0 18 V0 16 255 9 9696 0 ?19 0 20 7 0 0 1 17 255 19 0 21 19 19 0 22 9 0 0 +
16 20 9683 0 ?23 9 24 17 0 0 1 17 23 0 25 23 23 0 26 20 0 0 +16 24 9604 0 ?27 20
 28 29 0 0 1 31 17 9686 0 20 29 7 0 --.001217582327212252 0 0 1 0 0 0 0 -1 .001
 31 29 9607 0 24 30 17 0 -.001400000000000074 0 0 1 75467800215145e-30 0 -754678
00215145e-30 1 0 .001 31 30 9594 0 28 31 29 0 -.001217582327212252 0 0 -1 0 0 0
 0 1 .001 16 28 9591 0 ?32 24 33 30 0 0 1 31 31 8171 0 34 35 30 0 +.001885386443
980435 615080601467294e-33 0 -1 -75467800215145e-30 0 75467800215145e-30 -1 0 .0
00620000000000427 16 34 206 36 ?37 38 39 31 0 0 1 31 35 8119 0 40 41 31 42 +.000
901601710718138 0 0 1 0 0 0 0 -1 8875e-7 16 40 72 43 ?44 45 38 35 0 0 1 31 41 36
39 0 38 46 35 0 --.001885386443980435 436163586803181e-33 0 -1 -75467800215145e-
30 0 75467800215145e-30 -1 0 .000620000000000426 141 255 42 47 42 42 35 133 255
 47 9544 0 1 48 49 0 +35 .000901601710718138 0 -8875e-7 .000901601710718138 0 -8
875e-7 0 6.28318530717959 133 48 9543 0 1 50 47 0 +46 -.000901601710718138 0 887
5e-7 -.000901601710718138 0 8875e-7 0 6.28318530717959 133 49 9545 0 1 47 51 0 +
3 -.000901601710718139 0 -.001 -.000901601710718139 0 -.001 0 6.28318530717959 1
33 51 9546 0 1 49 11 0 +11 .000901601710718138 0 .001 .000901601710718138 0 .001
 0 6.28318530717959 31 11 8118 0 1 51 3 52 +.000901601710718138 0 0 -1 0 0 0 0 1
 .001 141 52 51 52 52 11 133 50 9542 0 1 53 48 0 +54 .000585621094224025 0 775e-
6 .000585621094224025 0 775e-6 0 6.28318530717959 31 46 3587 0 45 55 41 56 +-.00
0901601710718138 0 0 -1 0 0 0 0 1 8875e-7 16 45 50 57 ?58 59 40 46 0 0 1 31 55 8
94 0 60 61 46 0 -.00381 -.003 0 3469446951953615e-31 -1 0 1 3469446951953615e-31
 0 24e-5 141 56 62 63 64 46 133 62 5703 0 1 65 66 0 +46 -.000901601710718138 0 8
875e-7 -.000901601710718138 0 8875e-7 0 6.28318530717959 141 63 48 64 56 46 141
 64 67 56 63 46 133 67 7410 0 1 68 69 0 +46 -.000901601710718138 0 8875e-7 -.000
901601710718138 0 8875e-7 0 6.28318530717959 133 68 7307 0 1 70 67 0 +71 .00405
 -5e-4 0 .00405 -5e-4 0 0 6.28318530717959 133 69 8084 0 1 67 72 0 +73 .00121758
2327212252 0 .001 .001217582327212252 0 .001 0 6.28318530717959 133 72 8085 0 1
 69 73 0 +74 .000901601710718138 0 -8875e-7 .000901601710718138 0 -8875e-7 0 6.2
8318530717959 31 73 124 0 1 72 74 75 +.001217582327212252 0 0 -1 0 0 0 0 1 .001
 31 74 82 0 1 73 76 77 +.000901601710718138 0 0 1 0 0 0 0 -1 8875e-7 141 75 78 7
9 80 73 133 78 5707 0 1 81 82 0 +73 .001217582327212252 0 .001 .0012175823272122
52 0 .001 0 6.28318530717959 141 79 69 80 75 73 141 80 83 75 79 73 133 83 7135 0
 1 82 84 0 +73 .001217582327212252 0 .001 .001217582327212252 0 .001 0 6.2831853
0717959 133 82 7133 0 1 78 83 0 +85 .0014 0 .001 .0014 0 .001 0 6.28318530717959
 133 84 7218 0 1 83 86 0 +74 .000901601710718138 0 -8875e-7 .000901601710718138
 0 -8875e-7 0 6.28318530717959 133 86 7232 0 1 84 70 0 +54 .000585621094224025 0
 775e-6 .000585621094224025 0 775e-6 0 6.28318530717959 133 70 7289 0 1 86 68 0
 +87 .00331 -24e-5 0 .00331 -24e-5 0 0 6.28318530717959 31 54 39 0 59 88 89 90 +
.000585621094224025 0 0 -1 0 0 0 0 1 775e-6 16 59 10 91 ?92 33 45 54 0 0 1 31 88
 33 0 33 0 54 0 --.000585621094224024 0 0 -1 0 0 0 0 1 775e-6 31 89 62 0 1 54 93
 94 +-.000585621094224025 0 .001275 0 1 0 0 0 1 5e-4 141 90 95 96 97 54 133 95 2
944 0 1 98 99 0 +54 .000585621094224025 0 775e-6 .000585621094224025 0 775e-6 0
 6.28318530717959 141 96 50 100 90 54 141 97 65 90 100 54 133 65 5702 0 1 101 62
 0 +54 .000585621094224025 0 775e-6 .000585621094224025 0 775e-6 0 6.28318530717
959 141 100 86 97 96 54 133 101 3656 0 1 102 65 0 +102 -.0014 0 -.001 -.0014 0 -
.001 0 6.28318530717959 31 102 3655 0 1 103 101 104 +-.0014 0 0 1 0 0 0 0 -1 .00
1 133 103 3653 0 1 105 102 0 +105 -.001217582327212252 0 -.001 -.001217582327212
252 0 -.001 0 6.28318530717959 141 104 101 104 104 102 31 105 3652 0 1 106 103 1
07 +-.001217582327212252 0 0 1 0 0 0 0 -1 .001 133 106 3650 0 1 108 105 0 +108 -
.0014 0 -.001 -.0014 0 -.001 0 6.28318530717959 141 107 103 107 107 105 31 108 3
649 0 1 109 106 110 +-.0014 0 0 1 0 0 0 0 -1 .001 31 109 191 0 1 111 108 112 +-.
001885386443980435 0 0 1 0 0 0 0 -1 .000620000000000126 141 110 106 110 110 108
 31 111 146 0 1 113 109 114 +-.0014 0 0 1 0 0 0 0 -1 .001 141 112 115 116 116 10
9 133 115 2695 0 1 117 118 0 +109 -.001885386443980435 0 -.000620000000000126 -.
001885386443980435 0 -.000620000000000126 0 6.28318530717959 141 116 113 112 112
 109 133 113 3605 0 1 119 111 0 +109 -.001885386443980435 0 -.000620000000000126
 -.001885386443980435 0 -.000620000000000126 0 6.28318530717959 133 119 3601 0 1
 120 113 0 +120 -.001217582327212252 0 -.001 -.001217582327212252 0 -.001 0 6.28
318530717959 31 120 3600 0 1 121 119 122 +-.001217582327212252 0 0 1 0 0 0 0 -1
 .001 133 121 3598 0 1 123 120 0 +111 -.0014 0 -.001 -.0014 0 -.001 0 6.28318530
717959 141 122 119 122 122 120 31 123 60 0 1 124 121 125 +-.000901601710718138 0
 0 -1 0 0 0 0 1 8875e-7 31 124 102 0 1 126 123 127 +-.001217582327212252 0 0 1 0
 0 0 0 -1 .001 141 125 98 128 128 123 133 98 2766 0 1 118 95 0 +123 -.0009016017
10718138 0 8875e-7 -.000901601710718138 0 8875e-7 0 6.28318530717959 141 128 126
 125 125 123 133 126 3553 0 1 129 124 0 +123 -.000901601710718138 0 8875e-7 -.00
0901601710718138 0 8875e-7 0 6.28318530717959 133 129 3552 0 1 99 126 0 +124 -.0
01217582327212252 0 -.001 -.001217582327212252 0 -.001 0 6.28318530717959 133 99
 2958 0 1 95 129 0 +74 .000901601710718138 0 -8875e-7 .000901601710718138 0 -887
5e-7 0 6.28318530717959 133 118 2717 0 1 115 98 0 +130 -.002370772887961005 -.00
02399999999999825 0 -.002370772887961005 -.0002399999999999825 0 0 6.28318530717
959 31 130 271 0 39 131 132 133 +-.002370772887961005 3995325396217155e-34 0 -1
 -75467800215145e-30 0 0 -1 0 .000239999999999983 16 39 258 134 ?135 34 136 130
 0 0 1 31 131 273 0 1 93 130 137 +-.002370772887961005 -.000739999999999983 0 0
 0 1 0 -1 0 5e-4 31 132 325 0 1 130 138 139 +.002370772887961005 -.0007399999999
99982 0 0 0 1 0 -1 0 5e-4 141 133 118 133 133 130 31 138 322 0 136 132 140 0 -.0
02370772887961005 65171164864876e-32 0 -1 -75467800215145e-30 0 0 -1 0 .00023999
9999999983 141 139 141 139 139 132 68 255 141 319 0 142 143 144 0 +132 .00237077
2887961005 65171164864876e-32 0 -1 -75467800215145e-30 0 ????0 -1 0 ?14 255 142
 306 145 1e-8 146 147 148 5 141 -0 0 147 146 18 68 143 267 0 146 149 141 0 +131
 -.002370772887961005 3995325396217155e-34 0 -1 -75467800215145e-30 0 ????0 -1 0
 ?51 255 144 390 0 147 141 150 0 +.00331 1301042606982604e-33 0 -1 -150935600430
29e-29 0 24e-5 15093560043029e-29 -1 0 14 147 379 151 1e-8 142 152 153 5 144 +0
 0 152 142 18 51 150 432 0 152 144 154 0 +.00331 1301042606982604e-33 0 -1 -1509
3560043029e-29 0 24e-5 15093560043029e-29 -1 0 14 152 421 155 1e-8 147 156 157 5
 150 +0 0 156 147 18 68 154 496 0 156 150 158 0 +159 -.00331 -5e-4 0 0 0 1 ????1
 0 0 24e-5 14 156 485 160 1e-8 152 161 162 5 154 +0 0 161 152 18 68 158 540 0 16
1 154 163 0 +164 .00331 -5e-4 0 0 0 1 ????1 0 0 ?31 159 501 0 1 87 164 165 +-.00
281 -5e-4 0 0 1 0 1 0 0 24e-5 31 87 434 0 166 140 159 167 +.00331 13010426069826
04e-33 0 -1 -15093560043029e-29 0 15093560043029e-29 -1 0 24e-5 31 164 545 0 1 1
59 168 169 +.00381 -5e-4 0 0 1 0 1 0 0 24e-5 141 165 154 165 165 159 31 168 713
 0 170 164 71 0 --.00381 -5e-4 0 3216245299353275e-31 -1 0 -1 -3216245299353275e
-31 0 24e-5 141 169 158 169 169 164 16 170 489 171 ?172 166 173 168 0 0 1 31 71
 772 0 173 168 61 174 +.00381 -5e-4 0 0 1 0 1 0 0 24e-5 16 173 534 175 ?176 170
 177 71 0 0 1 31 61 892 0 177 71 55 0 --.00381 -.003 0 1734723475976805e-31 -1 0
 1 1734723475976805e-31 0 24e-5 141 174 68 174 174 71 16 177 599 178 ?179 173 60
 61 0 0 1 81 255 2 178 8314 180 177 181 0 175 182 0 183 17 179 0 184 179 179 0 1
85 177 0 0 +16 60 619 182 ?186 177 0 55 0 0 1 81 2 182 8315 180 60 187 0 178 0 0
 188 17 186 0 189 186 186 0 190 60 0 0 +15 255 189 618 0 186 191 0 17 190 0 192
 190 190 0 186 60 0 0 -15 192 719 0 190 13 0 14 13 717 193 1e-8 194 0 192 5 195
 +0 0 196 194 18 81 1 193 10573 197 13 198 0 160 199 200 14 194 679 199 1e-8 191
 13 201 5 202 -0 0 13 191 18 50 255 195 724 0 13 202 203 0 +.00381 -.003 0 52041
7042793042e-30 -1 0 1 520417042793042e-30 0 14 196 9640 204 ?205 206 207 5 203 +
0 0 205 13 18 13 18 3 0 0 0 0 0 0 8 206 14 206 2 208 1e-8 196 209 210 5 211 +0 0
 209 0 18 81 1 208 10576 197 206 212 0 204 213 214 14 209 46 213 1e-8 206 215 21
6 5 217 -0 0 215 206 18 15 210 928 0 92 206 218 51 211 6 0 206 0 217 0 +.0019 0
 0 -1 0 0 775e-6 0 0 1 68 217 57 0 209 211 219 0 +89 -.000585621094224025 0 0 -1
 0 0 ????0 0 1 ?68 219 79 0 215 217 220 0 +93 .000585621094224024 0 0 1 0 0 ????
0 0 -1 ?14 215 68 221 1e-8 209 222 223 5 219 -0 0 222 209 18 51 220 145 0 222 21
9 149 0 +-.0019 0 0 1 0 0 .001 0 0 -1 31 93 84 0 1 89 131 224 +.0005856210942240
24 0 -.001275 0 1 0 0 0 -1 5e-4 141 224 219 224 224 93 14 222 134 225 1e-8 215 2
26 21 5 220 +0 0 226 215 18 51 149 166 0 226 220 143 0 +.0019 0 0 -1 0 0 .001 0
 0 1 14 226 155 227 1e-8 222 146 228 5 149 +0 0 146 222 18 81 1 227 10580 197 22
6 229 0 225 230 231 14 146 254 230 1e-8 226 142 232 5 143 -0 0 142 226 18 15 228
 9605 0 27 226 233 17 27 0 228 27 27 0 234 24 0 0 +15 233 9592 0 32 226 0 17 32
 0 233 32 32 0 235 28 0 0 +17 235 0 236 235 235 0 32 28 0 0 -15 236 9654 0 235 2
05 237 14 205 9653 238 ?239 196 236 5 240 +0 0 239 196 18 15 237 9655 0 44 205 0
 17 44 0 237 44 44 0 241 40 0 0 +17 241 0 242 241 241 0 44 40 0 0 -15 242 70 0 2
41 215 0 81 1 238 10582 197 205 243 0 230 244 245 14 239 9732 244 ?15 205 246 5
 16 +0 0 15 205 18 54 240 9660 0 205 203 16 0 +.001217582327212252 0 0 -1 0 0 5e
-4 5e-4 0 0 1 54 203 9647 0 196 195 240 0 +.001400000000000074 578449554285845e-
33 0 1 75467800215145e-30 0 5e-4 5e-4 -75467800215145e-30 1 0 54 16 9739 0 239 2
40 6 0 +-.001400000000000074 472794633984631e-33 0 -1 -75467800215145e-30 0 5e-4
 5e-4 75467800215145e-30 -1 0 81 1 244 10583 197 239 247 0 238 248 249 14 15 974
5 248 ?0 239 250 5 6 +0 0 0 239 18 15 246 9733 0 251 239 252 17 251 0 246 251 25
1 0 253 38 0 0 +15 252 9734 0 22 239 0 17 22 0 252 22 22 0 19 9 0 0 -17 253 0 25
4 253 253 0 251 38 0 0 -16 38 182 255 ?251 40 34 41 0 0 1 81 2 255 8306 180 38 2
56 0 43 36 0 257 80 255 2 180 258 259 9000 0 0 0 0 3 6 0 0 0 FFTFTTTFFTFFFF3 3 8
1 2 256 5956 180 38 260 255 261 262 0 263 81 2 43 8301 180 40 261 0 57 255 0 264
 81 2 36 8307 180 34 262 0 255 134 0 265 84 255 16 257 000000005425E0C081 2 262
 5957 180 34 266 36 256 267 0 268 81 2 134 8308 180 39 267 0 36 269 0 270 84 16
 265 000000005425E78081 2 267 5958 180 39 271 134 262 272 0 273 81 2 269 8309 18
0 136 272 0 134 274 0 275 84 16 270 000000005425ED2016 136 311 269 ?276 39 277 1
38 0 0 1 81 2 272 5959 180 136 278 269 267 279 0 280 81 2 274 8310 180 277 279 0
 269 281 0 282 84 16 275 000000005425C95016 277 383 274 ?283 136 166 140 0 0 1 8
1 2 279 5960 180 277 284 274 272 285 0 286 81 2 281 8311 180 166 285 0 274 171 0
 287 84 16 282 000000005425C47016 166 426 281 ?288 277 170 87 0 0 1 81 2 285 596
1 180 166 289 281 279 290 0 291 81 2 171 8312 180 170 290 0 281 175 0 292 84 16
 287 000000005425E54081 2 290 5962 180 170 293 171 285 294 0 295 81 2 175 8313 1
80 173 294 0 171 178 0 296 84 16 292 000000005425E57081 2 294 5963 180 173 297 1
75 290 181 0 298 84 16 296 000000005425D0A081 2 297 5802 180 173 299 294 293 300
 0 301 81 2 181 5964 180 177 300 178 294 187 0 302 84 16 298 00000000547B55B081
 2 300 5803 180 177 303 181 297 304 0 305 81 2 187 5965 180 60 304 182 181 306 0
 307 84 16 302 00000000547B579081 2 304 5804 180 60 308 187 300 309 0 310 81 2 3
06 8279 180 13 309 311 187 312 0 313 84 16 307 00000000547B67B081 2 309 5911 180
 13 314 306 304 315 0 316 81 1 311 9764 317 13 306 198 0 0 318 81 2 312 8280 180
 194 315 319 306 320 0 321 84 16 313 000000005425EED081 2 315 5912 180 194 322 3
12 309 323 0 324 81 1 319 10511 325 194 312 199 198 326 327 81 2 320 8281 180 19
1 323 326 312 328 0 329 84 16 321 000000005425E0F014 191 616 330 1e-8 331 194 33
2 5 333 +0 0 194 331 18 81 2 323 5913 180 191 334 320 315 335 0 336 81 1 326 105
12 325 191 320 330 319 337 338 81 2 328 8282 180 331 335 337 320 339 0 340 84 16
 329 000000005425BE7014 331 595 341 1e-8 161 191 184 5 163 +0 0 191 161 18 81 2
 335 5914 180 331 342 328 323 343 0 344 81 1 337 10513 325 331 328 341 326 345 3
46 81 2 339 8283 180 161 343 345 328 347 0 348 84 16 340 000000005425EDB014 161
 529 349 1e-8 156 331 350 5 158 +0 0 331 156 18 81 2 343 5915 180 161 351 339 33
5 352 0 353 81 1 345 10514 325 161 339 349 337 354 355 81 2 347 8284 180 156 352
 354 339 356 0 357 84 16 348 000000005425C86081 2 352 5916 180 156 358 347 343 3
59 0 360 81 1 354 10515 325 156 347 160 345 361 362 81 2 356 8285 180 152 359 36
1 347 363 0 364 84 16 357 000000005425E99081 2 359 5917 180 152 365 356 352 366
 0 367 81 1 361 10516 325 152 356 155 354 368 369 81 2 363 8286 180 147 366 368
 356 370 0 371 84 16 364 000000005425E87081 2 366 5918 180 147 372 363 359 373 0
 374 81 1 368 10517 325 147 363 151 361 375 376 81 2 370 8287 180 142 373 375 36
3 377 0 378 84 16 371 000000005425C68081 2 373 5919 180 142 379 370 366 380 0 38
1 81 1 375 10518 325 142 370 145 368 382 383 81 2 377 8288 180 146 380 382 370 3
84 0 385 84 16 378 000000005425EC3081 2 380 5920 180 146 386 377 373 387 0 388 8
1 1 382 10519 325 146 377 230 375 229 389 81 2 384 8291 180 226 387 229 377 390
 0 391 84 16 385 000000005425D5E081 2 387 5923 180 226 392 384 380 393 0 394 81
 1 229 10520 325 226 384 227 382 395 396 81 2 390 8292 180 222 393 395 384 397 0
 398 84 16 391 000000005425C65081 2 393 5924 180 222 399 390 387 400 0 401 81 1
 395 10521 325 222 390 225 229 402 403 81 2 397 8295 180 215 400 402 390 404 0 4
05 84 16 398 000000005425B78081 2 400 5927 180 215 406 397 393 407 0 408 81 1 40
2 10522 325 215 397 221 395 409 410 81 2 404 8296 180 209 407 409 397 411 0 412
 84 16 405 000000005425E7E081 2 407 5928 180 209 413 404 400 414 0 415 81 1 409
 10523 325 209 404 213 402 212 416 81 2 411 8297 180 206 414 212 404 417 0 418 8
4 16 412 000000005425E8A081 2 414 5929 180 206 419 411 407 420 0 421 81 1 212 10
524 325 206 411 208 409 422 423 81 2 417 8298 180 33 420 0 411 91 0 424 84 16 41
8 000000005425EF3016 33 18 417 ?425 28 59 88 0 0 1 81 2 420 5948 180 33 426 417
 414 427 0 428 81 2 91 8299 180 59 427 0 417 57 0 429 84 16 424 000000005425EB70
81 2 427 5949 180 59 430 91 420 431 0 432 81 2 57 8300 180 45 431 0 91 43 0 433
 84 16 429 000000005425BAE081 2 431 5950 180 45 434 57 427 261 0 435 84 16 433 0
00000005425DA0081 2 434 5789 180 45 436 431 430 437 0 438 81 2 261 5951 180 40 4
37 43 431 256 0 439 84 16 435 00000000547B552081 2 437 5790 180 40 440 261 434 2
60 0 441 84 16 439 00000000547B528081 2 440 3777 180 40 442 437 436 443 0 444 81
 2 260 5795 180 38 443 256 437 266 0 445 84 16 441 00000000540AEEF081 2 443 3782
 180 38 446 260 440 447 0 448 81 2 266 5796 180 34 447 262 260 271 0 449 84 16 4
45 00000000540AC49081 2 447 3783 180 34 450 266 443 451 0 452 81 2 271 5797 180
 39 451 267 266 278 0 453 84 16 449 00000000540ABAD081 2 451 3784 180 39 454 271
 447 455 0 456 81 2 278 5798 180 136 455 272 271 284 0 457 84 16 453 00000000540
ACC7081 2 455 3785 180 136 458 278 451 459 0 460 81 2 284 5799 180 277 459 279 2
78 289 0 461 84 16 457 00000000540ABF8081 2 459 3786 180 277 462 284 455 463 0 4
64 81 2 289 5800 180 166 463 285 284 293 0 465 84 16 461 00000000540AE83081 2 46
3 3787 180 166 466 289 459 467 0 468 81 2 293 5801 180 170 467 290 289 297 0 469
 84 16 465 00000000540ABDA081 2 467 3788 180 170 470 293 463 299 0 471 84 16 469
 00000000540AC61081 2 470 1509 180 170 472 467 466 473 0 474 81 2 299 3789 180 1
73 473 297 467 303 0 475 84 16 471 000000005425E00081 2 473 1510 180 173 476 299
 470 477 0 478 81 2 303 3790 180 177 477 300 299 308 0 479 84 16 475 00000000542
5E03081 2 477 1511 180 177 480 303 473 481 0 482 81 2 308 3791 180 60 481 304 30
3 314 0 483 84 16 479 000000005425E06081 2 481 1512 180 60 484 308 477 485 0 486
 81 2 314 5768 180 13 485 309 308 322 0 487 84 16 483 000000005425E09081 2 485 3
755 180 13 488 314 481 489 0 490 81 2 322 5769 180 194 489 315 314 334 0 491 84
 16 487 00000000540AC5B081 2 489 3756 180 194 492 322 485 493 0 494 81 2 334 577
0 180 191 493 323 322 342 0 495 84 16 491 00000000540AD45081 2 493 3757 180 191
 496 334 489 497 0 498 81 2 342 5771 180 331 497 335 334 351 0 499 84 16 495 000
00000540AC79081 2 497 3758 180 331 500 342 493 501 0 502 81 2 351 5772 180 161 5
03 343 342 358 0 504 84 16 499 00000000540AC43081 2 503 5277 258 161 501 351 505
 0 0 506 81 2 358 5773 180 156 507 352 351 365 0 508 84 16 504 00000000540AF0108
1 2 507 4286 258 156 509 358 510 511 0 512 81 2 365 5774 180 152 513 359 358 372
 0 514 84 16 508 00000000540AC04081 2 513 3761 180 152 515 365 509 516 0 517 81
 2 372 5775 180 147 516 366 365 379 0 518 84 16 514 00000000540ACF4081 2 516 376
2 180 147 519 372 513 520 0 521 81 2 379 5776 180 142 505 373 372 386 0 522 84 1
6 518 00000000540AE6E081 2 505 4919 258 142 520 379 511 503 0 523 81 2 386 5777
 180 146 524 380 379 392 0 525 84 16 522 00000000540AE80081 2 524 3977 258 146 5
26 386 0 510 0 527 81 2 392 5780 180 226 528 387 386 399 0 529 84 16 525 0000000
0540AE32081 2 528 3767 180 226 530 392 526 531 0 532 81 2 399 5781 180 222 531 3
93 392 406 0 533 84 16 529 00000000540ACDC081 2 531 3768 180 222 534 399 528 535
 0 536 81 2 406 5784 180 215 511 400 399 413 0 537 84 16 533 00000000540AED7081
 2 511 4427 258 215 535 406 507 505 0 538 81 2 413 5785 180 209 510 407 406 419
 0 539 84 16 537 00000000540ADA2081 2 510 3981 258 209 540 413 524 507 0 541 81
 2 419 5786 180 206 542 414 413 426 0 543 84 16 539 00000000540AE8F081 2 542 377
3 180 206 544 419 540 545 0 546 81 2 426 5787 180 33 545 420 419 430 0 547 84 16
 543 00000000540AD3F081 2 545 3774 180 33 548 426 542 549 0 550 81 2 430 5788 18
0 59 549 427 426 434 0 551 84 16 547 00000000540AEEC081 2 549 3775 180 59 552 43
0 545 436 0 553 84 16 551 00000000540ADA8081 2 552 1496 180 59 554 549 548 555 0
 556 81 2 436 3776 180 45 555 434 549 440 0 557 84 16 553 000000005425DBB081 2 5
55 1497 180 45 558 436 552 442 0 559 84 16 557 000000005425DD3081 2 558 1336 180
 45 0 555 554 560 0 561 81 2 442 1498 180 40 560 440 555 446 0 562 84 16 559 000
000005425D4F081 2 560 1337 180 40 0 442 558 563 0 564 81 2 446 1503 180 38 563 4
43 442 450 0 565 84 16 562 000000005425D67081 2 563 1342 180 38 0 446 560 566 0
 567 81 2 450 1504 180 34 566 447 446 454 0 568 84 16 565 000000005425D55081 2 5
66 1343 180 34 0 450 563 569 0 570 81 2 454 1505 180 39 569 451 450 458 0 571 84
 16 568 000000005425C3E081 2 569 1344 180 39 0 454 566 572 0 573 81 2 458 1506 1
80 136 572 455 454 462 0 574 84 16 571 000000005425C41081 2 572 1345 180 136 0 4
58 569 575 0 576 81 2 462 1507 180 277 575 459 458 466 0 577 84 16 574 000000005
425C50081 2 575 1346 180 277 0 462 572 578 0 579 81 2 466 1508 180 166 578 463 4
62 470 0 580 84 16 577 000000005425C53081 2 578 1347 180 166 0 466 575 472 0 581
 84 16 580 000000005425C56081 2 472 1348 180 170 0 470 578 476 0 582 84 16 581 0
00000005425C68081 2 476 1349 180 173 0 473 472 480 0 583 84 16 582 000000005425C
8F081 2 480 1350 180 177 0 477 476 484 0 584 84 16 583 000000005425CDA081 2 484
 1351 180 60 0 481 480 488 0 585 84 16 584 000000005425C5F081 2 488 1458 180 13
 586 485 484 492 0 587 84 16 585 000000005425D7F081 2 586 1297 180 13 0 488 0 58
8 0 589 81 2 492 1459 180 194 588 489 488 496 0 590 84 16 587 000000005425D8E081
 2 588 1298 180 194 0 492 586 591 0 592 81 2 496 1460 180 191 591 493 492 500 0
 593 84 16 590 000000005425D91081 2 591 1299 180 191 0 496 588 594 0 595 81 2 50
0 1461 180 331 594 497 496 596 0 597 84 16 593 000000005425D8B081 2 594 1300 180
 331 0 500 591 598 0 599 81 2 596 1462 180 161 598 501 500 600 0 601 84 16 597 0
00000005425D6A081 2 598 1301 180 161 0 596 594 602 0 603 81 2 501 3759 180 161 5
96 503 497 509 0 604 81 2 600 1463 180 156 602 509 596 515 0 605 84 16 601 00000
0005425CF2081 2 602 1302 180 156 0 600 598 606 0 607 81 2 509 3760 180 156 600 5
07 501 513 0 608 81 2 515 1464 180 152 606 513 600 519 0 609 84 16 605 000000005
425C83081 2 606 1303 180 152 0 515 602 610 0 611 81 2 519 1465 180 147 610 516 5
15 612 0 613 84 16 609 000000005425CFB081 2 610 1304 180 147 0 519 606 614 0 615
 81 2 612 1466 180 142 614 520 519 616 0 617 84 16 613 000000005425CBC081 2 614
 1305 180 142 0 612 610 618 0 619 81 2 520 3763 180 142 612 505 516 526 0 620 81
 2 616 1467 180 146 618 526 612 530 0 621 84 16 617 000000005425C44081 2 618 130
6 180 146 0 616 614 622 0 623 81 2 526 3764 180 146 616 524 520 528 0 624 81 2 5
30 1470 180 226 622 528 616 534 0 625 84 16 621 000000005425C80081 2 622 1309 18
0 226 0 530 618 626 0 627 81 2 534 1471 180 222 626 531 530 628 0 629 84 16 625
 000000005425C3B081 2 626 1310 180 222 0 534 622 630 0 631 81 2 628 1474 180 215
 630 535 534 632 0 633 84 16 629 000000005425D64081 2 630 1313 180 215 0 628 626
 634 0 635 81 2 535 3771 180 215 628 511 531 540 0 636 81 2 632 1475 180 209 634
 540 628 544 0 637 84 16 633 000000005425CD7081 2 634 1314 180 209 0 632 630 638
 0 639 81 2 540 3772 180 209 632 510 535 542 0 640 81 2 544 1476 180 206 638 542
 632 548 0 641 84 16 637 000000005425CF8081 2 638 1315 180 206 0 544 634 642 0 6
43 81 2 548 1495 180 33 642 545 544 552 0 644 84 16 641 000000005425D1F081 2 642
 1334 180 33 0 548 638 554 0 645 84 16 644 000000005425D76081 2 554 1335 180 59
 0 552 642 558 0 646 84 16 645 000000005425D19084 16 646 000000005425C65084 16 6
43 000000005425CDD084 16 640 000000005425DE2084 16 639 000000005425BA2084 16 636
 000000005425DD0084 16 635 000000005425D1C084 16 631 000000005425D6D084 16 627 0
0000000540ABAD084 16 624 000000005425DBE084 16 623 00000000540AC49084 16 620 000
000005425DD9084 16 619 00000000540ABE6084 16 615 00000000540AE56084 16 611 00000
000540AE86084 16 608 000000005425DC7084 16 607 00000000540AE47084 16 604 0000000
05425D31084 16 603 00000000540AEEF084 16 599 00000000540AC07084 16 595 000000005
40ADD2084 16 592 00000000540AE71084 16 589 00000000540AC61084 16 579 00000000542
5D85084 16 576 000000005425D0A084 16 573 000000005425D43084 16 570 000000005425D
0D084 16 567 000000005425C8C084 16 564 000000005425D5E084 16 561 000000005425B93
084 16 556 000000005425D79084 16 550 000000005425DB2084 16 546 000000005425DAC08
0 2 258 647 648 9000 0 0 0 0 3 6 0 0 0 FFTFTTTFFTFFFF3 3 84 161 541 4 -0.0005856
210942240 -0.0000000000000000 -0.0000000000000000 -1.0000000000000000 -0.0000000
000000002 -0.0000000000000000 0.0012750000000000 0.0005000000000000 179 255 37 6
48 GSS_FW_GSS_AFR_MIL_SURFACE_ATTRIB_DEF84 157 538 4 0.0005856210942240 -0.00000
00000000000 0.0000000000000000 1.0000000000000000 -0.0000000000000002 0.00000000
00000000 0.0012750000000000 0.0005000000000000 184 16 536 000000005425D97084 16
 532 000000005425DB5084 159 527 4 -0.0023707728879610 0.0000000000000000 -0.0000
000000000000 -1.0000000000000000 0.0000000000000000 -0.0000000000000002 0.000740
0000000000 0.0005000000000000 184 158 523 4 0.0023707728879610 0.000000000000000
0 -0.0000000000000000 -1.0000000000000000 0.0000000000000000 -0.0000000000000002
 0.0007400000000000 0.0005000000000000 184 16 521 000000005425DB8084 16 517 0000
00005425DAF084 159 512 4 -0.0033100000000000 -0.0005000000000000 0.0000000000000
000 -0.0000000000000000 -0.0000000000000002 1.0000000000000000 0.000500000000000
0 0.0002400000000000 184 157 506 4 0.0033100000000000 -0.0005000000000000 0.0000
000000000000 0.0000000000000000 -0.0000000000000002 1.0000000000000000 0.0005000
000000000 0.0002400000000000 184 16 502 000000005425D9A084 16 498 000000005425DC
4084 16 494 000000005425DDF084 16 490 000000005425DC1084 16 486 000000005425C7D0
84 16 482 000000005425C7A084 16 478 000000005425C5C084 16 474 000000005425C59084
 16 468 000000005425DFD084 16 464 000000005425DFA084 16 460 000000005425DF7084 1
6 456 000000005425DF4084 16 452 000000005425DF1084 16 448 000000005425DEE084 16
 444 000000005425DA9084 16 438 00000000540AF3D084 16 432 00000000547B615084 16 4
28 00000000547B85B017 425 0 218 425 425 0 649 33 0 0 +15 218 8 0 425 206 0 17 64
9 0 216 649 649 0 425 33 0 0 -15 216 922 0 649 209 650 15 650 48 0 651 209 0 17
 651 0 650 651 651 0 58 45 0 0 -17 58 0 652 58 58 0 651 45 0 0 +15 652 9747 0 58
 15 0 80 1 325 0 653 8001 0 0 0 0 3 5 0 0 0 FFFFTFTFFFFFFF2 81 1 422 10525 325 1
96 0 204 212 243 654 83 255 3 423 .988235294117647 .737254901960784 .51764705882
3529 81 1 204 10575 197 196 422 0 199 208 655 81 1 243 10526 325 205 0 238 422 2
47 656 83 3 654 .988235294117647 .737254901960784 .517647058823529 81 1 247 1052
7 325 239 0 244 243 657 658 83 3 656 .988235294117647 .737254901960784 .51764705
8823529 81 1 657 10528 325 15 0 248 247 0 659 83 3 658 .988235294117647 .7372549
01960784 .517647058823529 81 1 248 10584 197 15 657 0 244 330 660 83 3 659 .9882
35294117647 .737254901960784 .517647058823529 80 1 197 661 662 9000 1 1 1 1 1 1
 1 1 0 FFFFTFTFFFFFFF1 81 1 330 10585 197 191 326 0 248 341 663 82 255 1 660 -73
0726270 81 1 341 10586 197 331 337 0 330 349 664 82 1 663 999999 81 1 349 10587
 197 161 345 0 341 0 665 82 1 664 999999 82 1 665 999999 79 14 662 SWEntUnchange
d81 1 199 10574 197 194 319 0 193 204 666 82 1 655 -753926021 82 1 666 999999 79
 15 653 SDL/TYSA_COLOUR84 16 421 00000000547B855081 1 213 10577 197 209 409 0 20
8 221 667 83 3 416 .501960784313726 0 .501960784313726 81 1 221 10578 197 215 40
2 0 213 225 668 82 1 667 -1931214741 81 1 225 10579 197 222 395 0 221 227 669 82
 1 668 -864878471 82 1 669 -790495102 84 16 415 00000000547B78F083 3 410 0 0 0 8
4 16 408 00000000547B726083 3 403 1 1 0 84 16 401 00000000540AC52083 3 396 .9686
27450980392 .87843137254902 .6 84 16 394 00000000540AD5A081 1 230 10581 197 146
 382 0 227 238 670 83 3 389 .988235294117647 .737254901960784 .517647058823529 8
2 1 670 -1931607957 84 16 388 00000000540AC55081 1 145 10569 197 142 375 0 0 151
 671 83 3 383 .988235294117647 .737254901960784 .517647058823529 81 1 151 10570
 197 147 368 0 145 155 672 82 1 671 -864288647 81 1 155 10571 197 152 361 0 151
 160 673 82 1 672 999999 81 1 160 10572 197 156 354 0 155 193 674 82 1 673 99999
9 82 1 674 999999 84 16 381 00000000540AE9E083 3 376 .752941176470588 .752941176
470588 .752941176470588 84 16 374 00000000540AE14083 3 369 .752941176470588 .752
941176470588 .752941176470588 84 16 367 00000000540AD8A083 3 362 .75294117647058
8 .752941176470588 .752941176470588 84 16 360 00000000540AE47083 3 355 .75294117
6470588 .752941176470588 .752941176470588 84 16 353 00000000540ABE6015 350 920 0
 176 161 675 17 176 0 350 176 176 0 676 173 0 0 +15 675 531 0 677 161 0 17 677 0
 675 677 677 0 288 166 0 0 -17 288 0 157 288 288 0 677 166 0 0 +15 157 914 0 288
 152 678 15 678 423 0 276 152 0 17 276 0 678 276 276 0 679 136 0 0 +17 679 0 148
 679 679 0 276 136 0 0 -15 148 908 0 679 142 680 15 680 308 0 681 142 0 17 681 0
 680 681 681 0 37 34 0 0 -17 37 0 207 37 37 0 681 34 0 0 +15 207 9641 0 37 196 6
82 15 682 9642 0 234 196 0 17 234 0 682 234 234 0 27 24 0 0 -17 676 0 332 676 67
6 0 176 173 0 0 -15 332 926 0 676 191 189 83 3 346 .752941176470588 .75294117647
0588 .752941176470588 84 16 344 00000000540ABD4015 184 924 0 179 331 683 51 163
 606 0 331 158 333 0 +-.00381 -5e-4 0 1734723475976805e-31 -1 0 24e-5 1 17347234
75976805e-31 0 51 333 627 0 191 163 202 0 +.00381 -5e-4 0 3469446951953615e-31 -
1 0 24e-5 1 3469446951953615e-31 0 50 202 686 0 194 333 195 0 +-.00381 -.003 0 2
68181451896787e-30 1 0 -1 268181451896787e-30 0 15 683 597 0 684 331 0 17 684 0
 683 684 684 0 172 170 0 0 -17 172 0 162 172 172 0 684 170 0 0 +15 162 918 0 172
 156 685 15 685 487 0 686 156 0 17 686 0 685 686 686 0 283 277 0 0 -17 283 0 153
 283 283 0 686 277 0 0 +15 153 912 0 283 147 687 15 687 381 0 135 147 0 17 135 0
 687 135 135 0 688 39 0 0 +17 688 0 232 688 688 0 135 39 0 0 -15 232 906 0 688 1
46 254 15 254 256 0 253 146 0 83 3 338 .752941176470588 .752941176470588 .752941
176470588 84 16 336 00000000540AEC8081 1 198 10510 325 13 311 193 0 319 689 83 3
 327 .752941176470588 .752941176470588 .752941176470588 83 3 689 .75294117647058
8 .752941176470588 .752941176470588 84 16 324 00000000540AE71080 1 317 690 691 8
017 0 0 0 0 0 0 0 0 0 TTTTTTTTTTTTTF3 84 4 318 NONE79 13 691 SDL/TYSA_NAME84 16
 316 00000000540ACB8084 16 310 00000000540ADB1084 16 305 00000000540AE4D084 16 3
01 00000000540AD7B084 16 295 00000000547B54F084 16 291 00000000547B7E6084 16 286
 00000000547B85E031 140 393 0 277 138 87 0 --.00331 3018489321340855e-34 0 -1 -1
5093560043029e-29 0 15093560043029e-29 -1 0 24e-5 84 16 280 00000000547B6CF084 1
6 273 00000000547B588084 16 268 00000000547B6B7084 16 264 000000005425EAB084 16
 263 00000000547B6C6079 35 259 GSS_FW_FW_LNK_LOCAL_PARTLINK_ATTRIB15 250 9746 0
 26 15 652 17 26 0 250 26 26 0 23 20 0 0 -82 1 249 -731971454 82 1 245 -75268083
7 82 1 231 -777781125 15 21 9697 0 19 222 25 15 25 9684 0 23 222 0 15 223 930 0
 692 215 242 17 692 0 223 692 692 0 92 59 0 0 -17 92 0 210 92 92 0 692 59 0 0 +8
2 1 214 999999 15 201 681 0 185 194 0 17 185 0 201 185 185 0 179 177 0 0 -82 1 2
00 999999 84 16 188 000000005425EBD084 16 183 000000005425C980141 167 70 167 167
 87 141 137 143 137 137 131 141 127 117 693 693 124 133 117 2683 0 1 694 115 0 +
124 -.001217582327212252 0 -.001 -.001217582327212252 0 -.001 0 6.28318530717959
 141 693 129 127 127 124 133 694 2681 0 1 0 117 0 +111 -.0014 0 -.001 -.0014 0 -
.001 0 6.28318530717959 141 114 694 695 695 111 141 695 121 114 114 111 141 94 2
17 94 94 89 31 85 167 0 1 696 697 698 +.0014 0 0 -1 0 0 0 0 1 .001 133 696 8133
 0 1 699 85 0 +699 .001217582327212252 0 .001 .001217582327212252 0 .001 0 6.283
18530717959 31 697 8181 0 1 85 700 701 +.0014 0 0 -1 0 0 0 0 1 .001 141 698 82 7
02 702 85 141 702 76 698 698 85 133 76 8130 0 1 74 699 0 +85 .0014 0 .001 .0014
 0 .001 0 6.28318530717959 31 699 8132 0 1 76 696 703 +.001217582327212252 0 0 -
1 0 0 0 0 1 .001 141 703 696 703 703 699 133 700 8182 0 1 697 704 0 +697 .0014 0
 .001 .0014 0 .001 0 6.28318530717959 141 701 700 701 701 697 31 704 8184 0 1 70
0 705 706 +.001217582327212252 0 0 -1 0 0 0 0 1 .001 133 705 8185 0 1 704 707 0
 +704 .001217582327212252 0 .001 .001217582327212252 0 .001 0 6.28318530717959 1
41 706 705 706 706 704 31 707 8187 0 1 705 53 708 +.0014 0 0 -1 0 0 0 0 1 .001 1
33 53 8188 0 1 707 50 0 +707 .0014 0 .001 .0014 0 .001 0 6.28318530717959 141 70
8 53 708 708 707 133 81 5705 0 1 66 78 0 +3 -.000901601710718139 0 -.001 -.00090
1601710718139 0 -.001 0 6.28318530717959 133 66 5704 0 1 62 81 0 +74 .0009016017
10718138 0 -8875e-7 .000901601710718138 0 -8875e-7 0 6.28318530717959 141 77 99
 709 710 74 141 709 72 711 77 74 141 710 66 77 711 74 141 711 84 710 709 74 19 1
4 889 0 1 0 8 5 S0 141 12 81 712 712 3 141 712 49 12 12 3 74 4 CI16 index_map_of
fset0 0 1 dCCZ20 10 5 0 0 349 503 182 311 657 0 0 0 0 0 0 0 0 0 0 0 0 0 0 0 1 0
 
