**ABCDEFGHIJKLMNOPQRSTUVWXYZabcdefghijklmnopqrstuvwxyz**************************
**PARASOLID !"#$%&'()*+,-./:;<=>?@[\]^_`{|}~0123456789**************************
**PART1;
MC=AMD64;
MC_MODEL=Intel64 Family 6 Model 44 Stepping 2, GenuineIntel;
MC_ID=unknown;
OS=Windows_NT;
OS_RELEASE=unknown;
FRU=Parasolid Version 28.0, build 224,  7-29-2016;
APPL=SOLIDWORKS 2016-2016286;
SITE=;
USER=unknown;
FORMAT=text;
GUISE=transmit;
KEY=RES_200_0.25_AXIAL_300MIL;
FILE=RES_200_0.25_AXIAL_300MIL.x_t;
DATE=Sat Feb 04 23:05:35 2023;
**PART2;
SCH=SCH_2800224_28002;
USFLD_SIZE=0;
**PART3;
**END_OF_HEADER*****************************************************************
T51 : TRANSMIT FILE created by modeller version 280022423 SCH_2800224_28002_1300
6200 0 12 30 CCCCCCCCCCCCCDI5 owner1040 0 CCCCCCCCCA13 boundary_mesh1006 0 A16 i
ndex_map_offset0 0 1 dA9 index_map82 0 A17 node_id_index_map82 0 A20 schema_embe
dding_map82 0 A5 child12 0 A14 lowest_node_id0 0 1 dZ1 10027 0 2 0 3 0 0 1e3 1e-
8 0 4 0 1 0 1 1 5 6 7 0 8 9 0 0 0 0 0 0 0 0 70 11 CI9 list_type0 0 1 uI10 notran
smit0 0 1 lCCCDCCDI12 finger_index0 0 1 dI12 finger_block1012 0 CZ2 0 4 T1 0 0 5
 20 1 10 10 31 255 3 3586 0 1 11 0 12 +-.000901601710718139 0 0 1 0 0 0 0 -1 .00
1 13 255 5 888 0 1 0 13 0 0 14 0 54 255 6 9752 0 15 16 0 0 +-.001217582327212252
 0 0 1 0 0 5e-4 5e-4 0 0 -1 31 7 9699 0 9 17 0 0 --.001400000000000074 0 0 -1 -7
5467800215145e-30 0 75467800215145e-30 -1 0 .001 19 8 CCCCCCCA5 owner12 0 Z8 5 0
 1 14 0 18 V0 16 255 9 9696 0 ?19 0 20 7 0 0 1 17 255 19 0 21 19 19 0 22 9 0 0 +
16 20 9683 0 ?23 9 24 17 0 0 1 17 23 0 25 23 23 0 26 20 0 0 +16 24 9604 0 ?27 20
 28 29 0 0 1 31 17 9686 0 20 29 7 0 --.001217582327212252 0 0 1 0 0 0 0 -1 .001
 31 29 9607 0 24 30 17 0 -.001400000000000074 0 0 1 75467800215145e-30 0 -754678
00215145e-30 1 0 .001 31 30 9594 0 28 31 29 0 -.001217582327212252 0 0 -1 0 0 0
 0 1 .001 16 28 9591 0 ?32 24 33 30 0 0 1 31 31 8171 0 34 35 30 0 +.001885386443
980435 615080601467294e-33 0 -1 -75467800215145e-30 0 75467800215145e-30 -1 0 .0
00620000000000427 16 34 206 36 ?37 38 39 31 0 0 1 31 35 8119 0 40 41 31 42 +.000
901601710718138 0 0 1 0 0 0 0 -1 8875e-7 16 40 72 43 ?44 45 38 35 0 0 1 31 41 36
39 0 38 46 35 0 --.001885386443980435 436163586803181e-33 0 -1 -75467800215145e-
30 0 75467800215145e-30 -1 0 .000620000000000426 141 255 42 47 42 42 35 133 255
 47 9544 0 1 48 49 0 +35 .000901601710718138 0 -8875e-7 .000901601710718138 0 -8
875e-7 0 6.28318530717959 133 48 9543 0 1 50 47 0 +46 -.000901601710718138 0 887
5e-7 -.000901601710718138 0 8875e-7 0 6.28318530717959 133 49 9545 0 1 47 51 0 +
3 -.000901601710718139 0 -.001 -.000901601710718139 0 -.001 0 6.28318530717959 1
33 51 9546 0 1 49 11 0 +11 .000901601710718138 0 .001 .000901601710718138 0 .001
 0 6.28318530717959 31 11 8118 0 1 51 3 52 +.000901601710718138 0 0 -1 0 0 0 0 1
 .001 141 52 51 52 52 11 133 50 9542 0 1 53 48 0 +54 .000585621094224025 0 775e-
6 .000585621094224025 0 775e-6 0 6.28318530717959 31 46 3587 0 45 55 41 56 +-.00
0901601710718138 0 0 -1 0 0 0 0 1 8875e-7 16 45 50 57 ?58 59 40 46 0 0 1 31 55 8
94 0 60 61 46 0 -.00381 -.003 0 3469446951953615e-31 -1 0 1 3469446951953615e-31
 0 24e-5 141 56 62 63 64 46 133 62 5703 0 1 65 66 0 +46 -.000901601710718138 0 8
875e-7 -.000901601710718138 0 8875e-7 0 6.28318530717959 141 63 48 64 56 46 141
 64 67 56 63 46 133 67 7410 0 1 68 69 0 +46 -.000901601710718138 0 8875e-7 -.000
901601710718138 0 8875e-7 0 6.28318530717959 133 68 7307 0 1 70 67 0 +71 .00405
 -5e-4 0 .00405 -5e-4 0 0 6.28318530717959 133 69 8084 0 1 67 72 0 +73 .00121758
2327212252 0 .001 .001217582327212252 0 .001 0 6.28318530717959 133 72 8085 0 1
 69 73 0 +74 .000901601710718138 0 -8875e-7 .000901601710718138 0 -8875e-7 0 6.2
8318530717959 31 73 124 0 1 72 74 75 +.001217582327212252 0 0 -1 0 0 0 0 1 .001
 31 74 82 0 1 73 76 77 +.000901601710718138 0 0 1 0 0 0 0 -1 8875e-7 141 75 78 7
9 80 73 133 78 5707 0 1 81 82 0 +73 .001217582327212252 0 .001 .0012175823272122
52 0 .001 0 6.28318530717959 141 79 69 80 75 73 141 80 83 75 79 73 133 83 7135 0
 1 82 84 0 +73 .001217582327212252 0 .001 .001217582327212252 0 .001 0 6.2831853
0717959 133 82 7133 0 1 78 83 0 +85 .0014 0 .001 .0014 0 .001 0 6.28318530717959
 133 84 7218 0 1 83 86 0 +74 .000901601710718138 0 -8875e-7 .000901601710718138
 0 -8875e-7 0 6.28318530717959 133 86 7232 0 1 84 70 0 +54 .000585621094224025 0
 775e-6 .000585621094224025 0 775e-6 0 6.28318530717959 133 70 7289 0 1 86 68 0
 +87 .00331 -24e-5 0 .00331 -24e-5 0 0 6.28318530717959 31 54 39 0 59 88 89 90 +
.000585621094224025 0 0 -1 0 0 0 0 1 775e-6 16 59 10 91 ?92 33 45 54 0 0 1 31 88
 33 0 33 0 54 0 --.000585621094224024 0 0 -1 0 0 0 0 1 775e-6 31 89 62 0 1 54 93
 94 +-.000585621094224025 0 .001275 0 1 0 0 0 1 5e-4 141 90 95 96 97 54 133 95 2
944 0 1 98 99 0 +54 .000585621094224025 0 775e-6 .000585621094224025 0 775e-6 0
 6.28318530717959 141 96 50 100 90 54 141 97 65 90 100 54 133 65 5702 0 1 101 62
 0 +54 .000585621094224025 0 775e-6 .000585621094224025 0 775e-6 0 6.28318530717
959 141 100 86 97 96 54 133 101 3656 0 1 102 65 0 +102 -.0014 0 -.001 -.0014 0 -
.001 0 6.28318530717959 31 102 3655 0 1 103 101 104 +-.0014 0 0 1 0 0 0 0 -1 .00
1 133 103 3653 0 1 105 102 0 +105 -.001217582327212252 0 -.001 -.001217582327212
252 0 -.001 0 6.28318530717959 141 104 101 104 104 102 31 105 3652 0 1 106 103 1
07 +-.001217582327212252 0 0 1 0 0 0 0 -1 .001 133 106 3650 0 1 108 105 0 +108 -
.0014 0 -.001 -.0014 0 -.001 0 6.28318530717959 141 107 103 107 107 105 31 108 3
649 0 1 109 106 110 +-.0014 0 0 1 0 0 0 0 -1 .001 31 109 191 0 1 111 108 112 +-.
001885386443980435 0 0 1 0 0 0 0 -1 .000620000000000126 141 110 106 110 110 108
 31 111 146 0 1 113 109 114 +-.0014 0 0 1 0 0 0 0 -1 .001 141 112 115 116 116 10
9 133 115 2695 0 1 117 118 0 +109 -.001885386443980435 0 -.000620000000000126 -.
001885386443980435 0 -.000620000000000126 0 6.28318530717959 141 116 113 112 112
 109 133 113 3605 0 1 119 111 0 +109 -.001885386443980435 0 -.000620000000000126
 -.001885386443980435 0 -.000620000000000126 0 6.28318530717959 133 119 3601 0 1
 120 113 0 +120 -.001217582327212252 0 -.001 -.001217582327212252 0 -.001 0 6.28
318530717959 31 120 3600 0 1 121 119 122 +-.001217582327212252 0 0 1 0 0 0 0 -1
 .001 133 121 3598 0 1 123 120 0 +111 -.0014 0 -.001 -.0014 0 -.001 0 6.28318530
717959 141 122 119 122 122 120 31 123 60 0 1 124 121 125 +-.000901601710718138 0
 0 -1 0 0 0 0 1 8875e-7 31 124 102 0 1 126 123 127 +-.001217582327212252 0 0 1 0
 0 0 0 -1 .001 141 125 98 128 128 123 133 98 2766 0 1 118 95 0 +123 -.0009016017
10718138 0 8875e-7 -.000901601710718138 0 8875e-7 0 6.28318530717959 141 128 126
 125 125 123 133 126 3553 0 1 129 124 0 +123 -.000901601710718138 0 8875e-7 -.00
0901601710718138 0 8875e-7 0 6.28318530717959 133 129 3552 0 1 99 126 0 +124 -.0
01217582327212252 0 -.001 -.001217582327212252 0 -.001 0 6.28318530717959 133 99
 2958 0 1 95 129 0 +74 .000901601710718138 0 -8875e-7 .000901601710718138 0 -887
5e-7 0 6.28318530717959 133 118 2717 0 1 115 98 0 +130 -.002370772887961005 -.00
02399999999999825 0 -.002370772887961005 -.0002399999999999825 0 0 6.28318530717
959 31 130 271 0 39 131 132 133 +-.002370772887961005 3995325396217155e-34 0 -1
 -75467800215145e-30 0 0 -1 0 .000239999999999983 16 39 258 134 ?135 34 136 130
 0 0 1 31 131 273 0 1 93 130 137 +-.002370772887961005 -.000739999999999983 0 0
 0 1 0 -1 0 5e-4 31 132 325 0 1 130 138 139 +.002370772887961005 -.0007399999999
99982 0 0 0 1 0 -1 0 5e-4 141 133 118 133 133 130 31 138 322 0 136 132 140 0 -.0
02370772887961005 65171164864876e-32 0 -1 -75467800215145e-30 0 0 -1 0 .00023999
9999999983 141 139 141 139 139 132 68 255 141 319 0 142 143 144 0 +132 .00237077
2887961005 65171164864876e-32 0 -1 -75467800215145e-30 0 ????0 -1 0 ?14 255 142
 306 145 1e-8 146 147 148 5 141 -0 0 147 146 18 68 143 267 0 146 149 141 0 +131
 -.002370772887961005 3995325396217155e-34 0 -1 -75467800215145e-30 0 ????0 -1 0
 ?51 255 144 390 0 147 141 150 0 +.00331 1301042606982604e-33 0 -1 -150935600430
29e-29 0 24e-5 15093560043029e-29 -1 0 14 147 379 151 1e-8 142 152 153 5 144 +0
 0 152 142 18 51 150 432 0 152 144 154 0 +.00331 1301042606982604e-33 0 -1 -1509
3560043029e-29 0 24e-5 15093560043029e-29 -1 0 14 152 421 155 1e-8 147 156 157 5
 150 +0 0 156 147 18 68 154 496 0 156 150 158 0 +159 -.00331 -5e-4 0 0 0 1 ????1
 0 0 ?14 156 485 160 1e-8 152 161 162 5 154 +0 0 161 152 18 68 158 540 0 161 154
 163 0 +164 .00331 -5e-4 0 0 0 1 ????1 0 0 ?31 159 501 0 1 87 164 165 +-.00281 -
5e-4 0 0 1 0 1 0 0 24e-5 31 87 434 0 166 140 159 167 +.00331 1301042606982604e-3
3 0 -1 -15093560043029e-29 0 15093560043029e-29 -1 0 24e-5 31 164 545 0 1 159 16
8 169 +.00381 -5e-4 0 0 1 0 1 0 0 24e-5 141 165 154 165 165 159 31 168 713 0 170
 164 71 0 --.00381 -5e-4 0 3216245299353275e-31 -1 0 -1 -3216245299353275e-31 0
 24e-5 141 169 158 169 169 164 16 170 489 171 ?172 166 173 168 0 0 1 31 71 772 0
 173 168 61 174 +.00381 -5e-4 0 0 1 0 1 0 0 24e-5 16 173 534 175 ?176 170 177 71
 0 0 1 31 61 892 0 177 71 55 0 --.00381 -.003 0 1734723475976805e-31 -1 0 1 1734
723475976805e-31 0 24e-5 141 174 68 174 174 71 16 177 599 178 ?179 173 60 61 0 0
 1 81 255 2 178 8314 180 177 181 0 175 182 0 183 17 179 0 184 179 179 0 185 177
 0 0 +16 60 619 182 ?186 177 0 55 0 0 1 81 2 182 8315 180 60 187 0 178 0 0 188 1
7 186 0 189 186 186 0 190 60 0 0 +15 255 189 618 0 186 191 0 17 190 0 192 190 19
0 0 186 60 0 0 -15 192 719 0 190 13 0 14 13 717 193 1e-8 194 0 192 5 195 +0 0 19
6 194 18 81 1 193 10013 197 13 198 0 160 199 200 14 194 679 199 1e-8 191 13 201
 5 202 -0 0 13 191 18 50 255 195 724 0 13 202 203 0 +.00381 -.003 0 520417042793
042e-30 -1 0 1 520417042793042e-30 0 14 196 9640 204 ?205 206 207 5 203 +0 0 205
 13 18 13 18 3 0 0 0 0 0 0 8 206 14 206 2 208 1e-8 196 209 210 5 211 +0 0 209 0
 18 81 1 208 10016 197 206 212 0 204 213 214 14 209 46 213 1e-8 206 215 216 5 21
7 -0 0 215 206 18 15 210 928 0 92 206 218 51 211 6 0 206 0 217 0 +.0019 0 0 -1 0
 0 775e-6 0 0 1 68 217 57 0 209 211 219 0 +89 -.000585621094224025 0 0 -1 0 0 ??
??0 0 1 ?68 219 79 0 215 217 220 0 +93 .000585621094224024 0 0 1 0 0 ????0 0 -1
 ?14 215 68 221 1e-8 209 222 223 5 219 -0 0 222 209 18 51 220 145 0 222 219 149
 0 +-.0019 0 0 1 0 0 .001 0 0 -1 31 93 84 0 1 89 131 224 +.000585621094224024 0
 -.001275 0 1 0 0 0 -1 5e-4 141 224 219 224 224 93 14 222 134 225 1e-8 215 226 2
1 5 220 +0 0 226 215 18 51 149 166 0 226 220 143 0 +.0019 0 0 -1 0 0 .001 0 0 1
 14 226 155 227 1e-8 222 146 228 5 149 +0 0 146 222 18 81 1 227 10020 197 226 22
9 0 225 230 231 14 146 254 230 1e-8 226 142 232 5 143 -0 0 142 226 18 15 228 960
5 0 27 226 233 17 27 0 228 27 27 0 234 24 0 0 +15 233 9592 0 32 226 0 17 32 0 23
3 32 32 0 235 28 0 0 +17 235 0 236 235 235 0 32 28 0 0 -15 236 9654 0 235 205 23
7 14 205 9653 238 ?239 196 236 5 240 +0 0 239 196 18 15 237 9655 0 44 205 0 17 4
4 0 237 44 44 0 241 40 0 0 +17 241 0 242 241 241 0 44 40 0 0 -15 242 70 0 241 21
5 0 81 1 238 10022 197 205 243 0 230 244 245 14 239 9732 244 ?15 205 246 5 16 +0
 0 15 205 18 54 240 9660 0 205 203 16 0 +.001217582327212252 0 0 -1 0 0 5e-4 5e-
4 0 0 1 54 203 9647 0 196 195 240 0 +.001400000000000074 578449554285845e-33 0 1
 75467800215145e-30 0 5e-4 5e-4 -75467800215145e-30 1 0 54 16 9739 0 239 240 6 0
 +-.001400000000000074 472794633984631e-33 0 -1 -75467800215145e-30 0 5e-4 5e-4
 75467800215145e-30 -1 0 81 1 244 10023 197 239 247 0 238 248 249 14 15 9745 248
 ?0 239 250 5 6 +0 0 0 239 18 15 246 9733 0 251 239 252 17 251 0 246 251 251 0 2
53 38 0 0 +15 252 9734 0 22 239 0 17 22 0 252 22 22 0 19 9 0 0 -17 253 0 254 253
 253 0 251 38 0 0 -16 38 182 255 ?251 40 34 41 0 0 1 81 2 255 8306 180 38 256 0
 43 36 0 257 80 255 2 180 258 259 9000 0 0 0 0 3 6 0 0 0 FFTFTTTFFTFFFF3 3 81 2
 256 5956 180 38 260 255 261 262 0 263 81 2 43 8301 180 40 261 0 57 255 0 264 81
 2 36 8307 180 34 262 0 255 134 0 265 84 255 16 257 000000005425E0C081 2 262 595
7 180 34 266 36 256 267 0 268 81 2 134 8308 180 39 267 0 36 269 0 270 84 16 265
 000000005425E78081 2 267 5958 180 39 271 134 262 272 0 273 81 2 269 8309 180 13
6 272 0 134 274 0 275 84 16 270 000000005425ED2016 136 311 269 ?276 39 277 138 0
 0 1 81 2 272 5959 180 136 278 269 267 279 0 280 81 2 274 8310 180 277 279 0 269
 281 0 282 84 16 275 000000005425C95016 277 383 274 ?283 136 166 140 0 0 1 81 2
 279 5960 180 277 284 274 272 285 0 286 81 2 281 8311 180 166 285 0 274 171 0 28
7 84 16 282 000000005425C47016 166 426 281 ?288 277 170 87 0 0 1 81 2 285 5961 1
80 166 289 281 279 290 0 291 81 2 171 8312 180 170 290 0 281 175 0 292 84 16 287
 000000005425E54081 2 290 5962 180 170 293 171 285 294 0 295 81 2 175 8313 180 1
73 294 0 171 178 0 296 84 16 292 000000005425E57081 2 294 5963 180 173 297 175 2
90 181 0 298 84 16 296 000000005425D0A081 2 297 5802 180 173 299 294 293 300 0 3
01 81 2 181 5964 180 177 300 178 294 187 0 302 84 16 298 00000000547B55B081 2 30
0 5803 180 177 303 181 297 304 0 305 81 2 187 5965 180 60 304 182 181 306 0 307
 84 16 302 00000000547B579081 2 304 5804 180 60 308 187 300 309 0 310 81 2 306 8
279 180 13 309 311 187 312 0 313 84 16 307 00000000547B67B081 2 309 5911 180 13
 314 306 304 315 0 316 81 1 311 9764 317 13 306 198 0 0 318 81 2 312 8280 180 19
4 315 319 306 320 0 321 84 16 313 000000005425EED081 2 315 5912 180 194 322 312
 309 323 0 324 81 1 319 9951 325 194 312 199 198 326 327 81 2 320 8281 180 191 3
23 326 312 328 0 329 84 16 321 000000005425E0F014 191 616 330 1e-8 331 194 332 5
 333 +0 0 194 331 18 81 2 323 5913 180 191 334 320 315 335 0 336 81 1 326 9952 3
25 191 320 330 319 337 338 81 2 328 8282 180 331 335 337 320 339 0 340 84 16 329
 000000005425BE7014 331 595 341 1e-8 161 191 184 5 163 +0 0 191 161 18 81 2 335
 5914 180 331 342 328 323 343 0 344 81 1 337 9953 325 331 328 341 326 345 346 81
 2 339 8283 180 161 343 345 328 347 0 348 84 16 340 000000005425EDB014 161 529 3
49 1e-8 156 331 350 5 158 +0 0 331 156 18 81 2 343 5915 180 161 351 339 335 352
 0 353 81 1 345 9954 325 161 339 349 337 354 355 81 2 347 8284 180 156 352 354 3
39 356 0 357 84 16 348 000000005425C86081 2 352 5916 180 156 358 347 343 359 0 3
60 81 1 354 9955 325 156 347 160 345 361 362 81 2 356 8285 180 152 359 361 347 3
63 0 364 84 16 357 000000005425E99081 2 359 5917 180 152 365 356 352 366 0 367 8
1 1 361 9956 325 152 356 155 354 368 369 81 2 363 8286 180 147 366 368 356 370 0
 371 84 16 364 000000005425E87081 2 366 5918 180 147 372 363 359 373 0 374 81 1
 368 9957 325 147 363 151 361 375 376 81 2 370 8287 180 142 373 375 363 377 0 37
8 84 16 371 000000005425C68081 2 373 5919 180 142 379 370 366 380 0 381 81 1 375
 9958 325 142 370 145 368 382 383 81 2 377 8288 180 146 380 382 370 384 0 385 84
 16 378 000000005425EC3081 2 380 5920 180 146 386 377 373 387 0 388 81 1 382 995
9 325 146 377 230 375 229 389 81 2 384 8291 180 226 387 229 377 390 0 391 84 16
 385 000000005425D5E081 2 387 5923 180 226 392 384 380 393 0 394 81 1 229 9960 3
25 226 384 227 382 395 396 81 2 390 8292 180 222 393 395 384 397 0 398 84 16 391
 000000005425C65081 2 393 5924 180 222 399 390 387 400 0 401 81 1 395 9961 325 2
22 390 225 229 402 403 81 2 397 8295 180 215 400 402 390 404 0 405 84 16 398 000
000005425B78081 2 400 5927 180 215 406 397 393 407 0 408 81 1 402 9962 325 215 3
97 221 395 409 410 81 2 404 8296 180 209 407 409 397 411 0 412 84 16 405 0000000
05425E7E081 2 407 5928 180 209 413 404 400 414 0 415 81 1 409 9963 325 209 404 2
13 402 212 416 81 2 411 8297 180 206 414 212 404 417 0 418 84 16 412 00000000542
5E8A081 2 414 5929 180 206 419 411 407 420 0 421 81 1 212 9964 325 206 411 208 4
09 422 423 81 2 417 8298 180 33 420 0 411 91 0 424 84 16 418 000000005425EF3016
 33 18 417 ?425 28 59 88 0 0 1 81 2 420 5948 180 33 426 417 414 427 0 428 81 2 9
1 8299 180 59 427 0 417 57 0 429 84 16 424 000000005425EB7081 2 427 5949 180 59
 430 91 420 431 0 432 81 2 57 8300 180 45 431 0 91 43 0 433 84 16 429 0000000054
25BAE081 2 431 5950 180 45 434 57 427 261 0 435 84 16 433 000000005425DA0081 2 4
34 5789 180 45 436 431 430 437 0 438 81 2 261 5951 180 40 437 43 431 256 0 439 8
4 16 435 00000000547B552081 2 437 5790 180 40 440 261 434 260 0 441 84 16 439 00
000000547B528081 2 440 3777 180 40 442 437 436 443 0 444 81 2 260 5795 180 38 44
3 256 437 266 0 445 84 16 441 00000000540AEEF081 2 443 3782 180 38 446 260 440 4
47 0 448 81 2 266 5796 180 34 447 262 260 271 0 449 84 16 445 00000000540AC49081
 2 447 3783 180 34 450 266 443 451 0 452 81 2 271 5797 180 39 451 267 266 278 0
 453 84 16 449 00000000540ABAD081 2 451 3784 180 39 454 271 447 455 0 456 81 2 2
78 5798 180 136 455 272 271 284 0 457 84 16 453 00000000540ACC7081 2 455 3785 18
0 136 458 278 451 459 0 460 81 2 284 5799 180 277 459 279 278 289 0 461 84 16 45
7 00000000540ABF8081 2 459 3786 180 277 462 284 455 463 0 464 81 2 289 5800 180
 166 463 285 284 293 0 465 84 16 461 00000000540AE83081 2 463 3787 180 166 466 2
89 459 467 0 468 81 2 293 5801 180 170 467 290 289 297 0 469 84 16 465 000000005
40ABDA081 2 467 3788 180 170 470 293 463 299 0 471 84 16 469 00000000540AC61081
 2 470 1509 180 170 472 467 466 473 0 474 81 2 299 3789 180 173 473 297 467 303
 0 475 84 16 471 000000005425E00081 2 473 1510 180 173 476 299 470 477 0 478 81
 2 303 3790 180 177 477 300 299 308 0 479 84 16 475 000000005425E03081 2 477 151
1 180 177 480 303 473 481 0 482 81 2 308 3791 180 60 481 304 303 314 0 483 84 16
 479 000000005425E06081 2 481 1512 180 60 484 308 477 485 0 486 81 2 314 5768 18
0 13 485 309 308 322 0 487 84 16 483 000000005425E09081 2 485 3755 180 13 488 31
4 481 489 0 490 81 2 322 5769 180 194 489 315 314 334 0 491 84 16 487 0000000054
0AC5B081 2 489 3756 180 194 492 322 485 493 0 494 81 2 334 5770 180 191 493 323
 322 342 0 495 84 16 491 00000000540AD45081 2 493 3757 180 191 496 334 489 497 0
 498 81 2 342 5771 180 331 497 335 334 351 0 499 84 16 495 00000000540AC79081 2
 497 3758 180 331 500 342 493 501 0 502 81 2 351 5772 180 161 503 343 342 358 0
 504 84 16 499 00000000540AC43081 2 503 5277 505 161 501 351 506 0 0 507 81 2 35
8 5773 180 156 508 352 351 365 0 509 84 16 504 00000000540AF01081 2 508 4286 505
 156 510 358 511 512 0 513 81 2 365 5774 180 152 514 359 358 372 0 515 84 16 509
 00000000540AC04081 2 514 3761 180 152 516 365 510 517 0 518 81 2 372 5775 180 1
47 517 366 365 379 0 519 84 16 515 00000000540ACF4081 2 517 3762 180 147 520 372
 514 521 0 522 81 2 379 5776 180 142 506 373 372 386 0 523 84 16 519 00000000540
AE6E081 2 506 4919 505 142 521 379 512 503 0 524 81 2 386 5777 180 146 525 380 3
79 392 0 526 84 16 523 00000000540AE80081 2 525 3977 505 146 527 386 0 511 0 528
 81 2 392 5780 180 226 529 387 386 399 0 530 84 16 526 00000000540AE32081 2 529
 3767 180 226 531 392 527 532 0 533 81 2 399 5781 180 222 532 393 392 406 0 534
 84 16 530 00000000540ACDC081 2 532 3768 180 222 535 399 529 536 0 537 81 2 406
 5784 180 215 512 400 399 413 0 538 84 16 534 00000000540AED7081 2 512 4427 505
 215 536 406 508 506 0 539 81 2 413 5785 180 209 511 407 406 419 0 540 84 16 538
 00000000540ADA2081 2 511 3981 505 209 541 413 525 508 0 542 81 2 419 5786 180 2
06 543 414 413 426 0 544 84 16 540 00000000540AE8F081 2 543 3773 180 206 545 419
 541 546 0 547 81 2 426 5787 180 33 546 420 419 430 0 548 84 16 544 00000000540A
D3F081 2 546 3774 180 33 549 426 543 550 0 551 81 2 430 5788 180 59 550 427 426
 434 0 552 84 16 548 00000000540AEEC081 2 550 3775 180 59 553 430 546 436 0 554
 84 16 552 00000000540ADA8081 2 553 1496 180 59 555 550 549 556 0 557 81 2 436 3
776 180 45 556 434 550 440 0 558 84 16 554 000000005425DBB081 2 556 1497 180 45
 559 436 553 442 0 560 84 16 558 000000005425DD3081 2 559 1336 180 45 0 556 555
 561 0 562 81 2 442 1498 180 40 561 440 556 446 0 563 84 16 560 000000005425D4F0
81 2 561 1337 180 40 0 442 559 564 0 565 81 2 446 1503 180 38 564 443 442 450 0
 566 84 16 563 000000005425D67081 2 564 1342 180 38 0 446 561 567 0 568 81 2 450
 1504 180 34 567 447 446 454 0 569 84 16 566 000000005425D55081 2 567 1343 180 3
4 0 450 564 570 0 571 81 2 454 1505 180 39 570 451 450 458 0 572 84 16 569 00000
0005425C3E081 2 570 1344 180 39 0 454 567 573 0 574 81 2 458 1506 180 136 573 45
5 454 462 0 575 84 16 572 000000005425C41081 2 573 1345 180 136 0 458 570 576 0
 577 81 2 462 1507 180 277 576 459 458 466 0 578 84 16 575 000000005425C50081 2
 576 1346 180 277 0 462 573 579 0 580 81 2 466 1508 180 166 579 463 462 470 0 58
1 84 16 578 000000005425C53081 2 579 1347 180 166 0 466 576 472 0 582 84 16 581
 000000005425C56081 2 472 1348 180 170 0 470 579 476 0 583 84 16 582 00000000542
5C68081 2 476 1349 180 173 0 473 472 480 0 584 84 16 583 000000005425C8F081 2 48
0 1350 180 177 0 477 476 484 0 585 84 16 584 000000005425CDA081 2 484 1351 180 6
0 0 481 480 488 0 586 84 16 585 000000005425C5F081 2 488 1458 180 13 587 485 484
 492 0 588 84 16 586 000000005425D7F081 2 587 1297 180 13 0 488 0 589 0 590 81 2
 492 1459 180 194 589 489 488 496 0 591 84 16 588 000000005425D8E081 2 589 1298
 180 194 0 492 587 592 0 593 81 2 496 1460 180 191 592 493 492 500 0 594 84 16 5
91 000000005425D91081 2 592 1299 180 191 0 496 589 595 0 596 81 2 500 1461 180 3
31 595 497 496 597 0 598 84 16 594 000000005425D8B081 2 595 1300 180 331 0 500 5
92 599 0 600 81 2 597 1462 180 161 599 501 500 601 0 602 84 16 598 000000005425D
6A081 2 599 1301 180 161 0 597 595 603 0 604 81 2 501 3759 180 161 597 503 497 5
10 0 605 81 2 601 1463 180 156 603 510 597 516 0 606 84 16 602 000000005425CF208
1 2 603 1302 180 156 0 601 599 607 0 608 81 2 510 3760 180 156 601 508 501 514 0
 609 81 2 516 1464 180 152 607 514 601 520 0 610 84 16 606 000000005425C83081 2
 607 1303 180 152 0 516 603 611 0 612 81 2 520 1465 180 147 611 517 516 613 0 61
4 84 16 610 000000005425CFB081 2 611 1304 180 147 0 520 607 615 0 616 81 2 613 1
466 180 142 615 521 520 617 0 618 84 16 614 000000005425CBC081 2 615 1305 180 14
2 0 613 611 619 0 620 81 2 521 3763 180 142 613 506 517 527 0 621 81 2 617 1467
 180 146 619 527 613 531 0 622 84 16 618 000000005425C44081 2 619 1306 180 146 0
 617 615 623 0 624 81 2 527 3764 180 146 617 525 521 529 0 625 81 2 531 1470 180
 226 623 529 617 535 0 626 84 16 622 000000005425C80081 2 623 1309 180 226 0 531
 619 627 0 628 81 2 535 1471 180 222 627 532 531 629 0 630 84 16 626 00000000542
5C3B081 2 627 1310 180 222 0 535 623 631 0 632 81 2 629 1474 180 215 631 536 535
 633 0 634 84 16 630 000000005425D64081 2 631 1313 180 215 0 629 627 635 0 636 8
1 2 536 3771 180 215 629 512 532 541 0 637 81 2 633 1475 180 209 635 541 629 545
 0 638 84 16 634 000000005425CD7081 2 635 1314 180 209 0 633 631 639 0 640 81 2
 541 3772 180 209 633 511 536 543 0 641 81 2 545 1476 180 206 639 543 633 549 0
 642 84 16 638 000000005425CF8081 2 639 1315 180 206 0 545 635 643 0 644 81 2 54
9 1495 180 33 643 546 545 553 0 645 84 16 642 000000005425D1F081 2 643 1334 180
 33 0 549 639 555 0 646 84 16 645 000000005425D76081 2 555 1335 180 59 0 553 643
 559 0 647 84 16 646 000000005425D19084 16 647 000000005425C65084 16 644 0000000
05425CDD084 16 641 000000005425DE2084 16 640 000000005425BA2084 16 637 000000005
425DD0084 16 636 000000005425D1C084 16 632 000000005425D6D084 16 628 00000000540
ABAD084 16 625 000000005425DBE084 16 624 00000000540AC49084 16 621 000000005425D
D9084 16 620 00000000540ABE6084 16 616 00000000540AE56084 16 612 00000000540AE86
084 16 609 000000005425DC7084 16 608 00000000540AE47084 16 605 000000005425D3108
4 16 604 00000000540AEEF084 16 600 00000000540AC07084 16 596 00000000540ADD2084
 16 593 00000000540AE71084 16 590 00000000540AC61084 16 580 000000005425D85084 1
6 577 000000005425D0A084 16 574 000000005425D43084 16 571 000000005425D0D084 16
 568 000000005425C8C084 16 565 000000005425D5E084 16 562 000000005425B93084 16 5
57 000000005425D79084 16 551 000000005425DB2084 16 547 000000005425DAC080 2 505
 648 649 9000 0 0 0 0 3 6 0 0 0 FFTFTTTFFTFFFF3 3 84 161 542 4 -0.00058562109422
40 -0.0000000000000000 -0.0000000000000000 -1.0000000000000000 -0.00000000000000
02 -0.0000000000000000 0.0012750000000000 0.0005000000000000 179 255 37 649 GSS_
FW_GSS_AFR_MIL_SURFACE_ATTRIB_DEF84 157 539 4 0.0005856210942240 -0.000000000000
0000 0.0000000000000000 1.0000000000000000 -0.0000000000000002 0.000000000000000
0 0.0012750000000000 0.0005000000000000 184 16 537 000000005425D97084 16 533 000
000005425DB5084 159 528 4 -0.0023707728879610 0.0000000000000000 -0.000000000000
0000 -1.0000000000000000 0.0000000000000000 -0.0000000000000002 0.00074000000000
00 0.0005000000000000 184 158 524 4 0.0023707728879610 0.0000000000000000 -0.000
0000000000000 -1.0000000000000000 0.0000000000000000 -0.0000000000000002 0.00074
00000000000 0.0005000000000000 184 16 522 000000005425DB8084 16 518 000000005425
DAF084 159 513 4 -0.0033100000000000 -0.0005000000000000 0.0000000000000000 -0.0
000000000000000 -0.0000000000000002 1.0000000000000000 0.0005000000000000 0.0002
400000000000 184 157 507 4 0.0033100000000000 -0.0005000000000000 0.000000000000
0000 0.0000000000000000 -0.0000000000000002 1.0000000000000000 0.000500000000000
0 0.0002400000000000 184 16 502 000000005425D9A084 16 498 000000005425DC4084 16
 494 000000005425DDF084 16 490 000000005425DC1084 16 486 000000005425C7D084 16 4
82 000000005425C7A084 16 478 000000005425C5C084 16 474 000000005425C59084 16 468
 000000005425DFD084 16 464 000000005425DFA084 16 460 000000005425DF7084 16 456 0
00000005425DF4084 16 452 000000005425DF1084 16 448 000000005425DEE084 16 444 000
000005425DA9084 16 438 00000000540AF3D084 16 432 00000000547B615084 16 428 00000
000547B85B017 425 0 218 425 425 0 650 33 0 0 +15 218 8 0 425 206 0 17 650 0 216
 650 650 0 425 33 0 0 -15 216 922 0 650 209 651 15 651 48 0 652 209 0 17 652 0 6
51 652 652 0 58 45 0 0 -17 58 0 653 58 58 0 652 45 0 0 +15 653 9747 0 58 15 0 80
 1 325 0 654 8001 0 0 0 0 3 5 0 0 0 FFFFTFTFFFFFFF2 81 1 422 9965 325 196 0 204
 212 243 655 83 255 3 423 .988235294117647 .737254901960784 .517647058823529 81
 1 204 10015 197 196 422 0 199 208 656 81 1 243 9966 325 205 0 238 422 247 657 8
3 3 655 .988235294117647 .737254901960784 .517647058823529 81 1 247 9967 325 239
 0 244 243 658 659 83 3 657 .988235294117647 .737254901960784 .517647058823529 8
1 1 658 9968 325 15 0 248 247 0 660 83 3 659 .988235294117647 .737254901960784 .
517647058823529 81 1 248 10024 197 15 658 0 244 330 661 83 3 660 .98823529411764
7 .737254901960784 .517647058823529 80 1 197 662 663 9000 1 1 1 1 1 1 1 1 0 FFFF
TFTFFFFFFF1 81 1 330 10025 197 191 326 0 248 341 664 82 255 1 661 -730726270 81
 1 341 10026 197 331 337 0 330 349 665 82 1 664 999999 81 1 349 10027 197 161 34
5 0 341 0 666 82 1 665 999999 82 1 666 999999 79 14 663 SWEntUnchanged81 1 199 1
0014 197 194 319 0 193 204 667 82 1 656 -753926021 82 1 667 999999 79 15 654 SDL
/TYSA_COLOUR84 16 421 00000000547B855081 1 213 10017 197 209 409 0 208 221 668 8
3 3 416 0 0 0 81 1 221 10018 197 215 402 0 213 225 669 82 1 668 -1931214741 81 1
 225 10019 197 222 395 0 221 227 670 82 1 669 -864878471 82 1 670 -790495102 84
 16 415 00000000547B78F083 3 410 .486274509803922 .235294117647059 .015686274509
8039 84 16 408 00000000547B726083 3 403 1 0 0 84 16 401 00000000540AC52083 3 396
 .968627450980392 .87843137254902 .6 84 16 394 00000000540AD5A081 1 230 10021 19
7 146 382 0 227 238 671 83 3 389 .988235294117647 .737254901960784 .517647058823
529 82 1 671 -1931607957 84 16 388 00000000540AC55081 1 145 10009 197 142 375 0
 0 151 672 83 3 383 .988235294117647 .737254901960784 .517647058823529 81 1 151
 10010 197 147 368 0 145 155 673 82 1 672 -864288647 81 1 155 10011 197 152 361
 0 151 160 674 82 1 673 999999 81 1 160 10012 197 156 354 0 155 193 675 82 1 674
 999999 82 1 675 999999 84 16 381 00000000540AE9E083 3 376 .752941176470588 .752
941176470588 .752941176470588 84 16 374 00000000540AE14083 3 369 .75294117647058
8 .752941176470588 .752941176470588 84 16 367 00000000540AD8A083 3 362 .75294117
6470588 .752941176470588 .752941176470588 84 16 360 00000000540AE47083 3 355 .75
2941176470588 .752941176470588 .752941176470588 84 16 353 00000000540ABE6015 350
 920 0 176 161 676 17 176 0 350 176 176 0 677 173 0 0 +15 676 531 0 678 161 0 17
 678 0 676 678 678 0 288 166 0 0 -17 288 0 157 288 288 0 678 166 0 0 +15 157 914
 0 288 152 679 15 679 423 0 276 152 0 17 276 0 679 276 276 0 680 136 0 0 +17 680
 0 148 680 680 0 276 136 0 0 -15 148 908 0 680 142 681 15 681 308 0 682 142 0 17
 682 0 681 682 682 0 37 34 0 0 -17 37 0 207 37 37 0 682 34 0 0 +15 207 9641 0 37
 196 683 15 683 9642 0 234 196 0 17 234 0 683 234 234 0 27 24 0 0 -17 677 0 332
 677 677 0 176 173 0 0 -15 332 926 0 677 191 189 83 3 346 .752941176470588 .7529
41176470588 .752941176470588 84 16 344 00000000540ABD4015 184 924 0 179 331 684
 51 163 606 0 331 158 333 0 +-.00381 -5e-4 0 1734723475976805e-31 -1 0 24e-5 1 1
734723475976805e-31 0 51 333 627 0 191 163 202 0 +.00381 -5e-4 0 346944695195361
5e-31 -1 0 24e-5 1 3469446951953615e-31 0 50 202 686 0 194 333 195 0 +-.00381 -.
003 0 268181451896787e-30 1 0 -1 268181451896787e-30 0 15 684 597 0 685 331 0 17
 685 0 684 685 685 0 172 170 0 0 -17 172 0 162 172 172 0 685 170 0 0 +15 162 918
 0 172 156 686 15 686 487 0 687 156 0 17 687 0 686 687 687 0 283 277 0 0 -17 283
 0 153 283 283 0 687 277 0 0 +15 153 912 0 283 147 688 15 688 381 0 135 147 0 17
 135 0 688 135 135 0 689 39 0 0 +17 689 0 232 689 689 0 135 39 0 0 -15 232 906 0
 689 146 254 15 254 256 0 253 146 0 83 3 338 .752941176470588 .752941176470588 .
752941176470588 84 16 336 00000000540AEC8081 1 198 9950 325 13 311 193 0 319 690
 83 3 327 .752941176470588 .752941176470588 .752941176470588 83 3 690 .752941176
470588 .752941176470588 .752941176470588 84 16 324 00000000540AE71080 1 317 691
 692 8017 0 0 0 0 0 0 0 0 0 TTTTTTTTTTTTTF3 84 4 318 NONE79 13 692 SDL/TYSA_NAME
84 16 316 00000000540ACB8084 16 310 00000000540ADB1084 16 305 00000000540AE4D084
 16 301 00000000540AD7B084 16 295 00000000547B54F084 16 291 00000000547B7E6084 1
6 286 00000000547B85E031 140 393 0 277 138 87 0 --.00331 3018489321340855e-34 0
 -1 -15093560043029e-29 0 15093560043029e-29 -1 0 24e-5 84 16 280 00000000547B6C
F084 16 273 00000000547B588084 16 268 00000000547B6B7084 16 264 000000005425EAB0
84 16 263 00000000547B6C6079 35 259 GSS_FW_FW_LNK_LOCAL_PARTLINK_ATTRIB15 250 97
46 0 26 15 653 17 26 0 250 26 26 0 23 20 0 0 -82 1 249 -731971454 82 1 245 -7526
80837 82 1 231 -777781125 15 21 9697 0 19 222 25 15 25 9684 0 23 222 0 15 223 93
0 0 693 215 242 17 693 0 223 693 693 0 92 59 0 0 -17 92 0 210 92 92 0 693 59 0 0
 +82 1 214 999999 15 201 681 0 185 194 0 17 185 0 201 185 185 0 179 177 0 0 -82
 1 200 999999 84 16 188 000000005425EBD084 16 183 000000005425C980141 167 70 167
 167 87 141 137 143 137 137 131 141 127 117 694 694 124 133 117 2683 0 1 695 115
 0 +124 -.001217582327212252 0 -.001 -.001217582327212252 0 -.001 0 6.2831853071
7959 141 694 129 127 127 124 133 695 2681 0 1 0 117 0 +111 -.0014 0 -.001 -.0014
 0 -.001 0 6.28318530717959 141 114 695 696 696 111 141 696 121 114 114 111 141
 94 217 94 94 89 31 85 167 0 1 697 698 699 +.0014 0 0 -1 0 0 0 0 1 .001 133 697
 8133 0 1 700 85 0 +700 .001217582327212252 0 .001 .001217582327212252 0 .001 0
 6.28318530717959 31 698 8181 0 1 85 701 702 +.0014 0 0 -1 0 0 0 0 1 .001 141 69
9 82 703 703 85 141 703 76 699 699 85 133 76 8130 0 1 74 700 0 +85 .0014 0 .001
 .0014 0 .001 0 6.28318530717959 31 700 8132 0 1 76 697 704 +.001217582327212252
 0 0 -1 0 0 0 0 1 .001 141 704 697 704 704 700 133 701 8182 0 1 698 705 0 +698 .
0014 0 .001 .0014 0 .001 0 6.28318530717959 141 702 701 702 702 698 31 705 8184
 0 1 701 706 707 +.001217582327212252 0 0 -1 0 0 0 0 1 .001 133 706 8185 0 1 705
 708 0 +705 .001217582327212252 0 .001 .001217582327212252 0 .001 0 6.2831853071
7959 141 707 706 707 707 705 31 708 8187 0 1 706 53 709 +.0014 0 0 -1 0 0 0 0 1
 .001 133 53 8188 0 1 708 50 0 +708 .0014 0 .001 .0014 0 .001 0 6.28318530717959
 141 709 53 709 709 708 133 81 5705 0 1 66 78 0 +3 -.000901601710718139 0 -.001
 -.000901601710718139 0 -.001 0 6.28318530717959 133 66 5704 0 1 62 81 0 +74 .00
0901601710718138 0 -8875e-7 .000901601710718138 0 -8875e-7 0 6.28318530717959 14
1 77 99 710 711 74 141 710 72 712 77 74 141 711 66 77 712 74 141 712 84 711 710
 74 19 14 889 0 1 0 8 5 S0 141 12 81 713 713 3 141 713 49 12 12 3 74 4 CI16 inde
x_map_offset0 0 1 dCCZ20 10 5 0 0 349 503 182 311 658 0 0 0 0 0 0 0 0 0 0 0 0 0
 0 0 1 0 
