**ABCDEFGHIJKLMNOPQRSTUVWXYZabcdefghijklmnopqrstuvwxyz**************************
**PARASOLID !"#$%&'()*+,-./:;<=>?@[\]^_`{|}~0123456789**************************
**PART1;
MC=AMD64;
MC_MODEL=Intel64 Family 6 Model 44 Stepping 2, GenuineIntel;
MC_ID=unknown;
OS=Windows_NT;
OS_RELEASE=unknown;
FRU=Parasolid Version 28.0, build 224,  7-29-2016;
APPL=SOLIDWORKS 2016-2016286;
SITE=;
USER=unknown;
FORMAT=text;
GUISE=transmit;
KEY=RES_470_0.25_AXIAL_200MIL;
FILE=RES_470_0.25_AXIAL_200MIL.x_t;
DATE=Tue Feb 07 00:35:45 2023;
**PART2;
SCH=SCH_2800224_28002;
USFLD_SIZE=0;
**PART3;
**END_OF_HEADER*****************************************************************
T51 : TRANSMIT FILE created by modeller version 280022423 SCH_2800224_28002_1300
6200 0 10 255 1 11 2 3 0 0 0 0 0 1e3 1e-8 0 0 0 1 0 1 4 81 255 2 2 11 5 1 0 0 0
 0 0 0 70 11 CI9 list_type0 0 1 uI10 notransmit0 0 1 lCCCDCCDI12 finger_index0 0
 1 dI12 finger_block1012 0 CZ3 0 4 T1 0 0 1 20 1 6 6 11 255 4 9 0 1 7 8 1 9 0 0
 0 12 30 CCCCCCCCCCCCCDI5 owner1040 0 CCCCCCCCCA13 boundary_mesh1006 0 A16 index
_map_offset0 0 1 dA9 index_map82 0 A17 node_id_index_map82 0 A20 schema_embeddin
g_map82 0 A5 child12 0 A14 lowest_node_id0 0 1 dZ7 317 10 11 0 0 0 0 1e3 1e-8 4
 12 0 1 0 3 1 13 14 15 0 16 17 0 0 0 0 0 0 0 0 100 255 8 10 4 0 0 1 0 0 0 1 0 0
 0 1 0 0 0 1 0 ?11 9 7 0 1 12 18 1 19 4 0 0 12 12 216 20 21 0 0 0 0 1e3 1e-8 9 2
2 7 1 0 3 1 23 24 25 0 26 27 0 0 0 0 0 0 0 0 100 18 8 9 0 0 1 0 0 0 1 0 0 0 1 0
 0 0 1 0 ?11 19 5 0 1 22 28 1 29 9 0 0 12 22 1803 30 31 0 0 0 0 1e3 1e-8 19 32 1
2 1 0 1 1 33 34 35 36 37 38 39 0 0 0 0 0 0 0 100 28 6 19 0 0 1 0 0 0 1 0 0 0 1 0
 0 0 1 0 ?11 29 3 0 1 32 40 1 41 19 0 0 12 32 1713 42 43 0 0 0 0 1e3 1e-8 29 44
 22 1 0 1 1 45 46 47 0 48 49 0 0 0 0 0 0 0 0 100 40 4 29 0 0 1 0 0 0 1 0 0 0 1 0
 0 0 1 0 ?11 41 1 0 1 44 50 1 0 29 0 0 12 44 2050 51 52 0 0 0 0 1e3 1e-8 41 53 3
2 1 0 1 1 54 55 56 0 57 58 0 0 0 0 0 0 0 0 100 50 2 41 0 0 1 0 0 0 1 0 0 0 1 0 0
 0 1 0 ?81 1 51 2050 59 44 0 0 0 0 0 70 52 0 4 T44 0 0 3 20 1 60 60 13 255 54 65
 0 44 0 61 0 0 62 0 54 255 55 315 0 63 64 0 0 +-.001217582327212252 0 0 1 0 0 5e
-4 5e-4 0 0 -1 31 255 56 285 0 58 65 0 0 --.001385386443980432 0 0 -1 0 0 0 0 1
 .001 19 8 CCCCCCCA5 owner12 0 Z57 69 0 44 62 0 66 V0 16 255 58 282 0 ?67 0 68 5
6 0 0 44 17 255 67 0 69 67 67 0 70 58 0 0 +16 68 276 0 ?71 58 72 65 0 0 44 17 71
 0 73 71 71 0 74 68 0 0 +16 72 270 0 ?75 68 76 77 0 0 44 31 65 279 0 68 77 56 0
 --.001217582327212252 0 0 1 0 0 0 0 -1 .001 31 77 273 0 72 78 65 0 +-.001885386
443980435 0 0 -1 0 0 0 0 1 5e-4 31 78 228 0 76 79 77 0 +.001885386443980435 0 0
 1 0 0 0 0 -1 5e-4 16 76 225 0 ?80 72 81 78 0 0 44 31 79 222 0 81 82 78 0 -.0013
85386443980432 0 0 1 0 0 0 0 -1 .001 16 81 219 0 ?83 76 84 79 0 0 44 31 82 216 0
 84 85 79 0 -.00121758232721225 0 0 -1 0 0 0 0 1 .001 16 84 213 0 ?86 81 87 82 0
 0 44 31 85 137 0 87 88 82 0 +.000901601710718138 0 0 -1 0 0 0 0 1 8875e-7 16 87
 108 0 ?89 84 90 85 0 0 44 31 88 136 0 90 91 85 0 +.000585621094224025 0 0 -1 0
 0 0 0 1 775e-6 16 90 103 0 ?92 87 93 88 0 0 44 31 91 135 0 93 94 88 0 +-.000585
621094224025 0 0 -1 0 0 0 0 1 775e-6 16 93 98 0 ?95 90 96 91 0 0 44 31 94 134 0
 96 0 91 0 +-.000901601710718139 0 0 -1 0 0 0 0 1 8875e-7 16 96 93 0 ?97 93 0 94
 0 0 44 17 97 0 98 97 97 0 99 96 0 0 +15 255 98 309 0 97 63 100 17 99 0 101 99 9
9 0 97 96 0 0 -15 101 100 0 99 102 0 14 255 102 101 103 ?104 105 106 54 107 +0 0
 104 105 66 81 1 103 2039 108 102 109 0 0 110 111 14 104 91 110 ?112 102 69 54 1
13 +0 0 112 102 66 14 105 106 114 ?102 115 116 54 117 +0 0 102 115 66 15 106 178
 0 95 102 101 54 107 126 0 102 113 117 0 --.000585621094224025 0 0 -1 0 0 .00127
5 5e-4 0 0 1 13 66 68 0 0 0 0 0 0 57 61 14 61 119 118 ?115 0 119 54 120 +0 0 115
 0 66 81 1 118 2042 108 61 121 0 114 122 123 14 115 111 122 ?105 61 124 54 125 +
0 0 105 61 66 15 119 220 0 83 61 126 51 255 120 130 0 61 125 127 0 +.00188538644
3980435 0 0 -1 0 0 .001 0 0 1 54 125 128 0 115 117 120 0 -.000585621094224024 0
 0 -1 0 0 .001275 5e-4 0 0 1 54 127 245 0 128 120 129 0 +.001385386443980432 0 0
 1 0 0 5e-4 5e-4 0 0 -1 14 128 238 130 ?131 132 133 54 127 +0 0 131 132 66 54 12
9 258 0 131 127 64 0 +.00121758232721225 0 0 -1 0 0 5e-4 5e-4 0 0 1 14 131 251 1
34 ?135 128 136 54 129 +0 0 135 128 66 54 64 302 0 135 129 55 0 +-.0013853864439
80432 0 0 -1 0 0 5e-4 5e-4 0 0 1 14 135 295 137 ?63 131 138 54 64 +0 0 63 131 66
 81 1 137 2046 108 135 139 0 134 140 141 14 63 308 140 ?0 135 98 54 55 +0 0 0 13
5 66 15 138 296 0 70 135 142 17 70 0 138 70 70 0 67 58 0 0 -15 142 297 0 143 135
 0 17 143 0 142 143 143 0 75 72 0 0 -17 75 0 144 75 75 0 143 72 0 0 +15 144 271
 0 75 112 0 14 112 86 145 ?132 104 144 54 146 +0 0 132 104 66 81 1 145 2048 108
 112 147 0 140 148 149 14 132 76 148 ?128 112 150 54 151 +0 0 128 112 66 50 255
 146 123 0 112 151 113 0 +-.001885386443980435 0 0 -1 0 0 0 0 1 50 151 122 0 132
 0 146 0 +.001885386443980435 .001 0 1 0 0 0 0 -1 51 113 124 0 104 146 107 0 +.0
01885386443980435 0 0 -1 0 0 .001 0 0 1 81 1 148 2049 108 132 152 0 145 0 153 15
 150 226 0 80 132 0 17 80 0 150 80 80 0 154 76 0 0 +17 154 0 133 154 154 0 80 76
 0 0 -15 133 239 0 154 128 155 15 155 240 0 156 128 0 17 156 0 155 156 156 0 83
 81 0 0 -17 83 0 119 83 83 0 156 81 0 0 +80 255 1 108 157 158 9000 1 1 1 1 1 1 1
 1 0 FFFFTFTFFFFFFF1 81 1 152 2010 159 132 0 148 147 160 161 82 255 1 153 101829
8736 80 1 159 0 162 8001 0 0 0 0 3 5 0 0 0 FFFFTFTFFFFFFF2 81 1 147 2009 159 112
 0 145 163 152 164 81 1 160 2011 159 128 0 130 152 165 166 83 255 3 161 .7529411
76470588 .752941176470588 .752941176470588 81 1 130 2044 108 128 160 0 122 134 1
67 81 1 165 2012 159 131 0 134 160 139 168 83 3 166 .988235294117647 .7372549019
60784 .517647058823529 81 1 134 2045 108 131 165 0 130 137 169 81 1 139 2013 159
 135 0 137 165 170 171 83 3 168 .988235294117647 .737254901960784 .5176470588235
29 81 1 170 2014 159 63 0 140 139 0 172 83 3 171 .988235294117647 .7372549019607
84 .517647058823529 81 1 140 2047 108 63 170 0 137 145 173 83 3 172 .98823529411
7647 .737254901960784 .517647058823529 82 1 173 1732444529 82 1 169 1724907888 8
1 1 122 2043 108 115 174 0 118 130 175 82 1 167 1723662704 81 1 174 2005 159 115
 0 122 121 176 177 82 1 175 1022427445 81 1 121 2004 159 61 0 118 0 174 178 81 1
 176 2006 159 105 0 114 174 109 179 83 3 177 .486274509803922 .235294117647059 .
0156862745098039 81 1 114 2041 108 105 176 0 110 118 180 81 1 109 2007 159 102 0
 103 176 163 181 83 3 179 .988235294117647 .737254901960784 .517647058823529 81
 1 163 2008 159 104 0 110 109 147 182 83 3 181 .501960784313726 0 .5019607843137
26 81 1 110 2040 108 104 163 0 103 114 183 83 3 182 1 1 0 82 1 183 1020068209 82
 1 180 1021837621 83 3 178 .968627450980392 .87843137254902 .6 83 3 164 .7529411
76470588 .752941176470588 .752941176470588 79 255 15 162 SDL/TYSA_COLOUR79 14 15
8 SWEntUnchanged82 1 149 1019478385 82 1 141 1731199345 15 136 252 0 184 131 185
 17 184 0 136 184 184 0 86 84 0 0 -15 185 253 0 186 131 0 17 186 0 185 186 186 0
 89 87 0 0 -17 89 0 124 89 89 0 186 87 0 0 +15 124 176 0 89 115 187 15 187 110 0
 188 115 0 17 188 0 187 188 188 0 92 90 0 0 -17 92 0 116 92 92 0 188 90 0 0 +15
 116 177 0 92 105 189 15 189 105 0 190 105 0 17 190 0 189 190 190 0 95 93 0 0 -1
7 95 0 106 95 95 0 190 93 0 0 +17 86 0 126 86 86 0 184 84 0 0 +15 126 214 0 86 6
1 0 51 117 127 0 105 107 125 0 +.001885386443980435 0 0 -1 0 0 775e-6 0 0 1 82 1
 123 1023345008 15 69 283 0 67 104 73 15 73 277 0 71 104 0 82 1 111 1021247797 1
5 100 310 0 74 63 0 17 74 0 100 74 74 0 71 68 0 0 -19 62 64 0 44 0 57 54 S0 74 4
 CI16 index_map_offset0 0 1 dCCZ20 60 3 0 0 148 170 51 0 0 0 0 0 0 0 0 0 0 0 0 0
 0 0 0 0 80 1 59 191 192 8017 0 0 0 0 0 0 0 0 0 TTTTTTTTTTTTTF3 79 13 192 SDL/TY
SA_NAME81 1 42 1713 59 32 0 0 0 0 0 70 43 0 4 T32 0 0 3 20 1 193 193 13 45 29 0
 32 0 194 0 0 195 0 51 46 28 0 194 196 0 0 -.004170772887961005 0 0 -1 0 0 .0002
399999999999825 0 0 1 31 47 23 0 197 198 0 0 +.002370772887961005 0 0 1 0 0 0 0
 -1 .0002399999999999825 19 48 7 0 32 195 0 199 V0 16 49 4 0 ?200 0 197 198 0 0
 32 17 200 0 201 200 200 0 202 49 0 0 +16 197 18 0 ?203 49 0 47 0 0 32 31 198 5
 0 49 0 47 0 +.004170772887961005 0 0 1 0 0 0 0 -1 .0002399999999999825 17 203 0
 204 203 203 0 205 197 0 0 +15 204 26 0 203 194 0 17 205 0 206 205 205 0 203 197
 0 0 -15 206 17 0 205 207 0 14 207 16 208 ?0 209 206 45 196 -0 0 0 209 199 81 1
 208 1710 108 207 210 0 0 211 212 14 209 1 211 ?207 194 201 45 213 +0 0 207 194
 199 50 196 22 0 207 213 46 0 +.002370772887961005 0 0 1 0 0 0 0 -1 13 199 8 0 0
 0 0 0 0 48 194 14 194 25 214 ?209 0 215 45 46 -0 0 209 0 199 81 1 214 1712 108
 194 216 0 211 0 217 15 215 24 0 202 194 204 17 202 0 215 202 202 0 200 49 0 0 -
81 1 216 1699 159 194 0 214 0 218 219 81 1 211 1711 108 209 218 0 208 214 220 82
 1 217 1762656629 81 1 218 1700 159 209 0 211 216 210 221 82 1 220 1760690549 81
 1 210 1701 159 207 0 208 218 0 222 83 3 221 .752941176470588 .752941176470588 .
752941176470588 83 3 222 .752941176470588 .752941176470588 .752941176470588 83 3
 219 .752941176470588 .752941176470588 .752941176470588 50 213 2 0 209 0 196 0 +
.004170772887961005 0 0 1 0 0 0 0 -1 15 201 3 0 200 209 0 82 1 212 1762394485 19
 195 30 0 32 0 48 45 S0 74 20 193 3 0 0 214 210 42 0 0 0 0 0 0 0 0 0 0 0 0 0 0 0
 0 0 81 1 30 1803 59 22 0 0 0 0 0 70 31 0 4 T22 0 0 3 20 1 223 223 13 33 73 0 22
 0 224 0 0 225 0 50 34 69 0 224 226 0 0 +-.002370772887961005 0 0 -1 0 0 0 0 1 3
1 35 41 0 38 227 0 0 +.004170772887961005 -.00508 0 1 221656124359299e-30 0 0 0
 1 .000239999999999983 29 255 36 61 0 39 228 0 -.002370772887961005 0 .000239999
999999983 19 37 5 0 22 225 0 229 V0 16 38 25 0 ?230 0 231 35 0 0 22 18 255 39 60
 0 232 0 233 36 ?22 17 232 0 234 232 232 39 235 236 0 235 -18 233 47 0 230 39 0
 228 ?22 17 230 0 237 230 230 233 238 38 0 238 +29 228 48 0 233 0 36 .0041707728
87961005 -.00508 .000239999999999983 15 237 52 0 230 239 0 17 238 0 240 238 238
 233 230 38 0 0 -15 240 26 0 238 241 242 14 241 24 243 ?0 244 240 33 245 +0 0 24
4 0 229 15 242 23 0 246 241 0 17 246 0 242 246 246 0 247 231 0 0 +17 247 0 248 2
47 247 0 246 231 0 0 -16 231 21 0 ?246 38 249 227 0 0 22 16 249 17 0 ?250 231 25
1 252 0 0 22 31 227 40 0 231 252 35 0 +-.003390772887961005 -.00508 0 1 -1224646
799147352e-31 0 0 0 1 .000239999999999983 31 252 39 0 249 253 227 0 +-.003870772
887961005 -.0046 0 880600137717706e-31 -1 0 0 0 1 .000239999999999983 31 253 38
 0 251 254 252 0 +-.003870772887961005 -48e-5 0 -1224646799147352e-31 -1 0 0 0 1
 .000239999999999983 16 251 13 0 ?255 249 256 253 0 0 22 31 254 37 0 256 257 253
 0 +-.003390772887961005 -1249139735130296e-34 0 -1 0 0 0 0 1 .00023999999999998
3 16 256 9 0 ?258 251 236 254 0 0 22 31 257 36 0 236 0 254 0 +-.0023707728879610
05 0 0 -1 0 0 0 0 1 .000239999999999983 16 236 6 0 ?235 256 0 257 0 0 22 17 235
 0 259 235 235 39 232 236 0 0 +15 259 7 0 235 260 0 14 260 2 261 ?262 239 263 33
 264 +0 0 239 262 229 81 1 261 1797 108 260 265 0 243 266 267 14 262 12 266 ?268
 260 269 33 270 +0 0 260 268 229 14 239 50 271 ?260 224 237 33 226 +0 0 224 260
 229 15 263 10 0 272 260 259 51 264 31 0 260 0 270 0 +-.002370772887961005 0 0 -
1 -1224646799147354e-31 0 .000239999999999983 1224646799147354e-31 -1 0 13 229 3
 0 0 0 0 0 0 37 241 54 270 32 0 262 264 273 0 +-.003390772887961005 -48e-5 0 0 0
 1 .000479999999999983 .000239999999999983 1 0 0 51 273 33 0 268 270 274 0 +-.00
3870772887961005 -48e-5 0 210524693686506e-30 -1 0 .000239999999999983 1 2105246
93686506e-30 0 14 268 16 275 ?244 262 276 33 273 +0 0 262 244 229 54 274 34 0 24
4 273 245 0 +-.003390772887961005 -.0046 0 0 0 1 48e-5 .000239999999999983 1 0 0
 14 244 20 277 ?241 268 248 33 274 +0 0 268 241 229 51 245 35 0 241 274 226 0 +-
.003390772887961005 -.00508 0 1 3441208042740345e-31 0 .000239999999999983 -3441
208042740345e-31 1 0 50 226 56 0 239 245 34 0 +.004170772887961005 -.00508 0 1 2
21656124359299e-30 0 0 0 1 81 1 277 1801 108 244 278 0 275 279 280 15 248 22 0 2
47 244 281 15 281 19 0 250 244 0 17 250 0 281 250 250 0 282 249 0 0 +17 282 0 27
6 282 282 0 250 249 0 0 -15 276 18 0 282 268 283 15 283 15 0 255 268 0 17 255 0
 283 255 255 0 284 251 0 0 +17 284 0 269 284 284 0 255 251 0 0 -15 269 14 0 284
 262 285 15 285 11 0 258 262 0 17 258 0 285 258 258 0 272 256 0 0 +17 272 0 263
 272 272 0 258 256 0 0 -81 1 278 1778 159 244 0 277 286 287 288 81 1 275 1800 10
8 268 286 0 271 277 289 81 1 279 1802 108 224 290 0 277 0 291 82 1 280 867631510
 14 224 63 279 ?239 0 234 33 34 -0 0 0 239 229 81 1 290 1773 159 224 0 279 0 292
 293 82 1 291 870580630 81 1 292 1774 159 239 0 271 290 265 294 83 3 293 .752941
176470588 .752941176470588 .752941176470588 81 1 271 1799 108 239 292 0 266 275
 295 81 1 265 1775 159 260 0 261 292 296 297 83 3 294 .752941176470588 .75294117
6470588 .752941176470588 81 1 296 1776 159 262 0 266 265 286 298 83 3 297 .75294
1176470588 .752941176470588 .752941176470588 81 1 266 1798 108 262 296 0 261 271
 299 81 1 286 1777 159 268 0 275 296 278 300 83 3 298 .752941176470588 .75294117
6470588 .752941176470588 83 3 300 .752941176470588 .752941176470588 .75294117647
0588 82 1 299 866845078 82 1 295 871432598 15 234 65 0 232 224 0 82 1 289 867238
294 81 1 287 1779 159 241 0 243 278 0 301 83 3 288 .752941176470588 .75294117647
0588 .752941176470588 81 1 243 1796 108 241 287 0 0 261 302 83 3 301 .7529411764
70588 .752941176470588 .752941176470588 82 1 302 868024726 82 1 267 866124182 19
 225 74 0 22 0 37 33 S0 74 20 223 3 0 0 279 287 30 0 0 0 0 0 0 0 0 0 0 0 0 0 0 0
 0 0 81 1 20 216 59 12 303 0 0 0 0 70 21 0 4 T12 0 0 8 20 1 304 304 13 23 120 0
 12 0 305 0 0 26 306 68 255 24 5 0 306 307 0 0 +308 .002370772887961005 65171164
864876e-32 0 -1 -75467800215145e-30 0 ????0 -1 0 ?31 25 82 0 27 309 0 0 -.002370
772887961005 65171164864876e-32 0 -1 -75467800215145e-30 0 0 -1 0 .0002399999999
99983 19 26 121 0 12 0 0 23 V0 16 27 81 310 ?311 0 312 25 0 0 12 81 2 310 89 313
 27 314 0 315 0 0 316 17 311 0 0 0 0 0 317 27 0 0 +16 312 72 315 ?318 27 0 309 0
 0 12 81 2 315 80 313 312 319 0 320 310 0 321 17 318 0 322 318 318 0 323 312 0 0
 +31 309 73 0 312 308 25 0 +.001885386443980435 615080601467294e-33 0 -1 -754678
00215145e-30 0 75467800215145e-30 -1 0 .000620000000000427 31 308 6 0 12 0 309 3
24 +.002370772887961005 -.000739999999999982 0 0 0 1 0 -1 0 5e-4 141 255 324 24
 324 324 308 15 322 3 0 318 305 0 17 323 0 325 323 323 0 318 312 0 0 -15 325 18
 0 323 306 0 14 306 4 326 1e-8 0 305 327 23 24 -0 0 305 0 23 81 1 326 214 108 30
6 328 0 0 329 330 14 305 1 329 ?306 0 322 23 307 +0 0 0 306 23 15 327 17 0 317 3
06 325 17 317 0 327 317 317 0 311 27 0 0 -81 1 329 215 108 305 331 0 326 0 332 5
0 307 2 0 305 0 24 0 -.001885386443980435 759281015471514e-34 .00062000000000012
7 1 0 0 0 0 -1 81 1 331 205 159 305 0 329 0 328 333 82 1 332 -1822555988 81 1 32
8 206 159 306 334 326 331 0 335 83 3 333 .752941176470588 .752941176470588 .7529
41176470588 81 2 334 16 336 306 320 328 0 0 0 337 83 3 335 .988235294117647 .737
254901960784 .517647058823529 80 2 336 338 339 9000 0 0 0 0 3 6 0 0 0 FFTFTTTFFT
FFFF3 3 81 2 320 15 313 306 340 334 0 315 0 341 84 255 16 337 00000000637D99A080
 2 313 342 343 9000 0 0 0 0 3 6 0 0 0 FFTFTTTFFTFFFF3 3 81 2 340 14 344 306 345
 320 345 346 0 347 84 16 341 000000006677F2C080 2 344 313 348 9000 0 0 0 0 3 6 0
 0 0 FFTFTTTFFTFFFF3 3 81 2 345 13 344 306 349 340 349 340 0 350 81 2 346 74 344
 312 0 351 340 351 0 352 84 16 347 000000005425EC3081 2 351 75 344 312 346 353 3
46 353 0 354 84 16 352 000000005425D0D081 2 353 76 344 312 351 355 351 355 0 356
 84 16 354 000000005425C3E081 2 355 77 344 312 353 357 353 357 0 358 84 16 356 0
00000005425DF1081 2 357 78 344 312 355 319 355 319 0 359 84 16 358 00000000540AB
AD081 2 319 79 344 312 357 315 357 360 0 361 84 16 359 00000000547B6B7081 2 360
 83 344 27 0 362 319 362 0 363 84 16 361 000000005425E78081 2 362 84 344 27 360
 364 360 364 0 365 84 16 363 000000005425D0A081 2 364 85 344 27 362 366 362 366
 0 367 84 16 365 000000005425C50081 2 366 86 344 27 364 368 364 368 0 369 84 16
 367 000000005425DF7081 2 368 87 344 27 366 314 366 314 0 370 84 16 369 00000000
540ABF8081 2 314 88 344 27 368 310 368 0 0 371 84 16 370 00000000547B6CF084 16 3
71 000000005425C95081 2 349 12 344 306 372 345 373 345 0 374 84 16 350 000000005
40AE9E081 2 372 11 375 306 373 349 0 0 0 376 81 2 373 10 344 306 377 372 377 349
 0 378 84 16 374 00000000540AE80081 2 377 9 344 306 379 373 379 373 0 380 84 16
 378 000000005425DD9081 2 379 8 344 306 0 377 0 377 0 381 84 16 380 000000005425
C44084 16 381 00000000540ABE6080 2 375 382 383 9000 0 0 0 0 3 6 0 0 0 FFTFTTTFFT
FFFF3 3 84 158 376 4 0.0023707728879610 0.0000000000000000 -0.0000000000000000 -
1.0000000000000000 0.0000000000000000 -0.0000000000000002 0.0007400000000000 0.0
005000000000000 179 37 383 GSS_FW_GSS_AFR_MIL_SURFACE_ATTRIB_DEF79 35 348 GSS_FW
_FW_LNK_LOCAL_PARTLINK_ATTRIB79 29 343 GSS_FW_FW_LNK_PARTLINK_ATTRIB79 26 339 GS
S_FW_LNK_PARTLINK_ATTRIB82 1 330 -864288647 84 16 321 000000006678613084 16 316
 000000006678052074 20 304 8 0 0 329 314 372 310 334 303 328 20 0 0 0 0 0 0 0 0
 0 0 0 0 81 2 303 117 384 12 0 20 0 0 385 0 80 2 384 386 387 8004 0 0 0 0 3 5 0
 0 0 FFTFFFFFFFFFFF2 3 83 1 385 1 79 16 387 SDL/TYSA_DENSITY81 1 10 317 59 7 0 0
 0 0 0 70 11 0 4 T7 0 0 7 20 1 388 388 13 13 119 0 7 0 389 0 0 16 390 68 14 5 0
 390 391 0 0 +392 -.002370772887961005 3995325396217155e-34 0 -1 -75467800215145
e-30 0 ????0 -1 0 ?31 15 82 0 17 393 0 0 +-.002370772887961005 3995325396217155e
-34 0 -1 -75467800215145e-30 0 0 -1 0 .000239999999999983 19 16 120 0 7 0 0 13 V
0 16 17 81 394 ?395 0 396 15 0 0 7 81 2 394 89 313 17 397 0 398 0 0 399 17 395 0
 0 0 0 0 400 17 0 0 +16 396 72 398 ?401 17 0 393 0 0 7 81 2 398 80 313 396 402 0
 403 394 0 404 17 401 0 405 401 401 0 406 396 0 0 +31 393 73 0 396 392 15 0 --.0
01885386443980435 436163586803181e-33 0 -1 -75467800215145e-30 0 75467800215145e
-30 -1 0 .000620000000000426 31 392 6 0 7 0 393 407 +-.002370772887961005 -.0007
39999999999983 0 0 0 1 0 -1 0 5e-4 141 407 14 407 407 392 15 405 3 0 401 389 0 1
7 406 0 408 406 406 0 401 396 0 0 -15 408 18 0 406 390 0 14 390 4 409 1e-8 0 389
 410 13 14 -0 0 389 0 13 81 1 409 315 108 390 411 0 0 412 413 14 389 1 412 ?390
 0 405 13 391 +0 0 0 390 13 15 410 17 0 400 390 408 17 400 0 410 400 400 0 395 1
7 0 0 -81 1 412 316 108 389 414 0 409 0 415 50 391 2 0 389 0 14 0 --.00188538644
3980435 759281015471514e-34 .000620000000000126 -1 0 0 0 0 1 81 1 414 306 159 38
9 0 412 0 411 416 82 1 415 -1761410898 81 1 411 307 159 390 417 409 414 0 418 83
 3 416 .752941176470588 .752941176470588 .752941176470588 81 2 417 16 336 390 40
3 411 0 0 0 419 83 3 418 .988235294117647 .737254901960784 .517647058823529 81 2
 403 15 313 390 420 417 0 398 0 421 84 16 419 00000000637D8FE081 2 420 14 344 39
0 422 403 422 423 0 424 84 16 421 00000000667856E081 2 422 13 344 390 425 420 42
5 420 0 426 81 2 423 74 344 396 0 427 420 427 0 428 84 16 424 000000005425D5E081
 2 427 75 344 396 423 429 423 429 0 430 84 16 428 000000005425C8C081 2 429 76 34
4 396 427 431 427 431 0 432 84 16 430 000000005425D55081 2 431 77 344 396 429 43
3 429 433 0 434 84 16 432 000000005425DEE081 2 433 78 344 396 431 402 431 402 0
 435 84 16 434 00000000540AC49081 2 402 79 344 396 433 398 433 436 0 437 84 16 4
35 00000000547B6C6081 2 436 83 344 17 0 438 402 438 0 439 84 16 437 000000005425
E0C081 2 438 84 344 17 436 440 436 440 0 441 84 16 439 000000005425D43081 2 440
 85 344 17 438 442 438 442 0 443 84 16 441 000000005425C41081 2 442 86 344 17 44
0 444 440 444 0 445 84 16 443 000000005425DF4081 2 444 87 344 17 442 397 442 397
 0 446 84 16 445 00000000540ACC7081 2 397 88 344 17 444 394 444 0 0 447 84 16 44
6 00000000547B588084 16 447 000000005425ED2081 2 425 12 344 390 448 422 449 422
 0 450 84 16 426 00000000540AC55081 2 448 11 375 390 449 425 0 0 0 451 81 2 449
 10 344 390 452 448 452 425 0 453 84 16 450 00000000540AE32081 2 452 9 344 390 4
54 449 454 449 0 455 84 16 453 000000005425DBE081 2 454 8 344 390 0 452 0 452 0
 456 84 16 455 000000005425C80084 16 456 00000000540AC49084 159 451 4 -0.0023707
728879610 0.0000000000000000 -0.0000000000000000 -1.0000000000000000 0.000000000
0000000 -0.0000000000000002 0.0007400000000000 0.0005000000000000 182 1 413 -193
1607957 84 16 404 00000000667833A084 16 399 000000006678079074 20 388 7 0 0 412
 397 448 394 417 411 10 0 0 0 0 0 0 0 0 0 0 0 0 0 74 20 6 1 0 0 2 0 0 0 0 0 0 0
 0 0 0 0 0 0 0 0 0 0 0 0 80 2 5 457 458 9000 0 0 0 0 3 5 0 0 0 TFFFFFFFFFFFFF9 1
 79 18 458 MULTI_BODY_ID_20011 0 
