**ABCDEFGHIJKLMNOPQRSTUVWXYZabcdefghijklmnopqrstuvwxyz**************************
**PARASOLID !"#$%&'()*+,-./:;<=>?@[\]^_`{|}~0123456789**************************
**PART1;
MC=AMD64;
MC_MODEL=Intel64 Family 6 Model 44 Stepping 2, GenuineIntel;
MC_ID=unknown;
OS=Windows_NT;
OS_RELEASE=unknown;
FRU=Parasolid Version 28.0, build 224,  7-29-2016;
APPL=SOLIDWORKS 2016-2016286;
SITE=;
USER=unknown;
FORMAT=text;
GUISE=transmit;
KEY=RES_100K_0.25_AXIAL_100MIL;
FILE=RES_100K_0.25_AXIAL_100MIL.x_t;
DATE=Fri Feb 17 21:48:59 2023;
**PART2;
SCH=SCH_2800224_28002;
USFLD_SIZE=0;
**PART3;
**END_OF_HEADER*****************************************************************
T51 : TRANSMIT FILE created by modeller version 280022423 SCH_2800224_28002_1300
6200 0 10 255 1 11 2 3 0 0 0 0 0 1e3 1e-8 0 0 0 1 0 1 4 81 255 2 2 11 5 1 0 0 0
 0 0 0 70 11 CI9 list_type0 0 1 uI10 notransmit0 0 1 lCCCDCCDI12 finger_index0 0
 1 dI12 finger_block1012 0 CZ3 0 4 T1 0 0 1 20 1 6 6 11 255 4 9 0 1 7 8 1 9 0 0
 0 12 30 CCCCCCCCCCCCCDI5 owner1040 0 CCCCCCCCCA13 boundary_mesh1006 0 A16 index
_map_offset0 0 1 dA9 index_map82 0 A17 node_id_index_map82 0 A20 schema_embeddin
g_map82 0 A5 child12 0 A14 lowest_node_id0 0 1 dZ7 348 10 11 0 0 0 0 1e3 1e-8 4
 12 0 1 0 3 1 13 14 15 0 16 17 0 0 0 0 0 0 0 0 100 255 8 10 4 0 0 1 0 0 0 1 0 0
 0 1 0 0 0 1 0 ?11 9 7 0 1 12 18 1 19 4 0 0 12 12 247 20 21 0 0 0 0 1e3 1e-8 9 2
2 7 1 0 3 1 23 24 25 0 26 27 0 0 0 0 0 0 0 0 100 18 8 9 0 0 1 0 0 0 1 0 0 0 1 0
 0 0 1 0 ?11 19 5 0 1 22 28 1 29 9 0 0 12 22 17453 30 31 0 0 0 0 1e3 1e-8 19 32
 12 1 0 1 1 33 34 35 36 37 38 39 0 0 0 0 0 0 0 100 28 6 19 0 0 1 0 0 0 1 0 0 0 1
 0 0 0 1 0 ?11 29 3 0 1 32 40 1 41 19 0 0 12 32 17319 42 43 0 0 0 0 1e3 1e-8 29
 44 22 1 0 1 1 45 46 47 0 48 49 0 0 0 0 0 0 0 0 100 40 4 29 0 0 1 0 0 0 1 0 0 0
 1 0 0 0 1 0 ?11 41 1 0 1 44 50 1 0 29 0 0 12 44 17744 51 52 0 0 0 0 1e3 1e-8 41
 53 32 1 0 1 1 54 55 56 0 57 58 0 0 0 0 0 0 0 0 100 50 2 41 0 0 1 0 0 0 1 0 0 0
 1 0 0 0 1 0 ?81 1 51 17744 59 44 0 0 0 0 0 70 52 0 4 T44 0 0 3 20 1 60 60 13 25
5 54 65 0 44 0 61 0 0 62 0 54 255 55 315 0 63 64 0 0 +-.001217582327212252 0 0 1
 0 0 5e-4 5e-4 0 0 -1 31 255 56 285 0 58 65 0 0 --.001385386443980432 0 0 -1 0 0
 0 0 1 .001 19 8 CCCCCCCA5 owner12 0 Z57 69 0 44 62 0 66 V0 16 255 58 282 0 ?67
 0 68 56 0 0 44 17 255 67 0 69 67 67 0 70 58 0 0 +16 68 276 0 ?71 58 72 65 0 0 4
4 17 71 0 73 71 71 0 74 68 0 0 +16 72 270 0 ?75 68 76 77 0 0 44 31 65 279 0 68 7
7 56 0 --.001217582327212252 0 0 1 0 0 0 0 -1 .001 31 77 273 0 72 78 65 0 +-.001
885386443980435 0 0 -1 0 0 0 0 1 5e-4 31 78 228 0 76 79 77 0 +.00188538644398043
5 0 0 1 0 0 0 0 -1 5e-4 16 76 225 0 ?80 72 81 78 0 0 44 31 79 222 0 81 82 78 0 -
.001385386443980432 0 0 1 0 0 0 0 -1 .001 16 81 219 0 ?83 76 84 79 0 0 44 31 82
 216 0 84 85 79 0 -.00121758232721225 0 0 -1 0 0 0 0 1 .001 16 84 213 0 ?86 81 8
7 82 0 0 44 31 85 137 0 87 88 82 0 +.000901601710718138 0 0 -1 0 0 0 0 1 8875e-7
 16 87 108 0 ?89 84 90 85 0 0 44 31 88 136 0 90 91 85 0 +.000585621094224025 0 0
 -1 0 0 0 0 1 775e-6 16 90 103 0 ?92 87 93 88 0 0 44 31 91 135 0 93 94 88 0 +-.0
00585621094224025 0 0 -1 0 0 0 0 1 775e-6 16 93 98 0 ?95 90 96 91 0 0 44 31 94 1
34 0 96 0 91 0 +-.000901601710718139 0 0 -1 0 0 0 0 1 8875e-7 16 96 93 0 ?97 93
 0 94 0 0 44 17 97 0 98 97 97 0 99 96 0 0 +15 255 98 309 0 97 63 100 17 99 0 101
 99 99 0 97 96 0 0 -15 101 100 0 99 102 0 14 255 102 101 103 ?104 105 106 54 107
 +0 0 104 105 66 81 1 103 17733 108 102 109 0 0 110 111 14 104 91 110 ?112 102 6
9 54 113 +0 0 112 102 66 14 105 106 114 ?102 115 116 54 117 +0 0 102 115 66 15 1
06 178 0 95 102 101 54 107 126 0 102 113 117 0 --.000585621094224025 0 0 -1 0 0
 .001275 5e-4 0 0 1 13 66 68 0 0 0 0 0 0 57 61 14 61 119 118 ?115 0 119 54 120 +
0 0 115 0 66 81 1 118 17736 108 61 121 0 114 122 123 14 115 111 122 ?105 61 124
 54 125 +0 0 105 61 66 15 119 220 0 83 61 126 51 255 120 130 0 61 125 127 0 +.00
1885386443980435 0 0 -1 0 0 .001 0 0 1 54 125 128 0 115 117 120 0 -.000585621094
224024 0 0 -1 0 0 .001275 5e-4 0 0 1 54 127 245 0 128 120 129 0 +.00138538644398
0432 0 0 1 0 0 5e-4 5e-4 0 0 -1 14 128 238 130 ?131 132 133 54 127 +0 0 131 132
 66 54 129 258 0 131 127 64 0 +.00121758232721225 0 0 -1 0 0 5e-4 5e-4 0 0 1 14
 131 251 134 ?135 128 136 54 129 +0 0 135 128 66 54 64 302 0 135 129 55 0 +-.001
385386443980432 0 0 -1 0 0 5e-4 5e-4 0 0 1 14 135 295 137 ?63 131 138 54 64 +0 0
 63 131 66 81 1 137 17740 108 135 139 0 134 140 141 14 63 308 140 ?0 135 98 54 5
5 +0 0 0 135 66 15 138 296 0 70 135 142 17 70 0 138 70 70 0 67 58 0 0 -15 142 29
7 0 143 135 0 17 143 0 142 143 143 0 75 72 0 0 -17 75 0 144 75 75 0 143 72 0 0 +
15 144 271 0 75 112 0 14 112 86 145 ?132 104 144 54 146 +0 0 132 104 66 81 1 145
 17742 108 112 147 0 140 148 149 14 132 76 148 ?128 112 150 54 151 +0 0 128 112
 66 50 255 146 123 0 112 151 113 0 +-.001885386443980435 0 0 -1 0 0 0 0 1 50 151
 122 0 132 0 146 0 +.001885386443980435 .001 0 1 0 0 0 0 -1 51 113 124 0 104 146
 107 0 +.001885386443980435 0 0 -1 0 0 .001 0 0 1 81 1 148 17743 108 132 152 0 1
45 0 153 15 150 226 0 80 132 0 17 80 0 150 80 80 0 154 76 0 0 +17 154 0 133 154
 154 0 80 76 0 0 -15 133 239 0 154 128 155 15 155 240 0 156 128 0 17 156 0 155 1
56 156 0 83 81 0 0 -17 83 0 119 83 83 0 156 81 0 0 +80 255 1 108 157 158 9000 1
 1 1 1 1 1 1 1 0 FFFFTFTFFFFFFF1 81 1 152 17704 159 132 0 148 147 160 161 82 255
 1 153 1018298736 80 1 159 0 162 8001 0 0 0 0 3 5 0 0 0 FFFFTFTFFFFFFF2 81 1 147
 17703 159 112 0 145 163 152 164 81 1 160 17705 159 128 0 130 152 165 166 83 255
 3 161 .752941176470588 .752941176470588 .752941176470588 81 1 130 17738 108 128
 160 0 122 134 167 81 1 165 17706 159 131 0 134 160 139 168 83 3 166 .9882352941
17647 .737254901960784 .517647058823529 81 1 134 17739 108 131 165 0 130 137 169
 81 1 139 17707 159 135 0 137 165 170 171 83 3 168 .988235294117647 .73725490196
0784 .517647058823529 81 1 170 17708 159 63 0 140 139 0 172 83 3 171 .9882352941
17647 .737254901960784 .517647058823529 81 1 140 17741 108 63 170 0 137 145 173
 83 3 172 .988235294117647 .737254901960784 .517647058823529 82 1 173 1732444529
 82 1 169 1724907888 81 1 122 17737 108 115 174 0 118 130 175 82 1 167 172366270
4 81 1 174 17699 159 115 0 122 121 176 177 82 1 175 1022427445 81 1 121 17698 15
9 61 0 118 0 174 178 81 1 176 17700 159 105 0 114 174 109 179 83 3 177 1 1 0 81
 1 114 17735 108 105 176 0 110 118 180 81 1 109 17701 159 102 0 103 176 163 181
 83 3 179 .988235294117647 .737254901960784 .517647058823529 81 1 163 17702 159
 104 0 110 109 147 182 83 3 181 0 0 0 81 1 110 17734 108 104 163 0 103 114 183 8
3 3 182 .486274509803922 .235294117647059 .0156862745098039 82 1 183 1020068209
 82 1 180 1021837621 83 3 178 .968627450980392 .87843137254902 .6 83 3 164 .7529
41176470588 .752941176470588 .752941176470588 79 255 15 162 SDL/TYSA_COLOUR79 14
 158 SWEntUnchanged82 1 149 1019478385 82 1 141 1731199345 15 136 252 0 184 131
 185 17 184 0 136 184 184 0 86 84 0 0 -15 185 253 0 186 131 0 17 186 0 185 186 1
86 0 89 87 0 0 -17 89 0 124 89 89 0 186 87 0 0 +15 124 176 0 89 115 187 15 187 1
10 0 188 115 0 17 188 0 187 188 188 0 92 90 0 0 -17 92 0 116 92 92 0 188 90 0 0
 +15 116 177 0 92 105 189 15 189 105 0 190 105 0 17 190 0 189 190 190 0 95 93 0
 0 -17 95 0 106 95 95 0 190 93 0 0 +17 86 0 126 86 86 0 184 84 0 0 +15 126 214 0
 86 61 0 51 117 127 0 105 107 125 0 +.001885386443980435 0 0 -1 0 0 775e-6 0 0 1
 82 1 123 1023345008 15 69 283 0 67 104 73 15 73 277 0 71 104 0 82 1 111 1021247
797 15 100 310 0 74 63 0 17 74 0 100 74 74 0 71 68 0 0 -19 62 64 0 44 0 57 54 S0
 74 4 CI16 index_map_offset0 0 1 dCCZ20 60 3 0 0 148 170 51 0 0 0 0 0 0 0 0 0 0
 0 0 0 0 0 0 0 80 1 59 191 192 8017 0 0 0 0 0 0 0 0 0 TTTTTTTTTTTTTF3 79 13 192
 SDL/TYSA_NAME81 1 42 17319 59 32 0 0 0 0 0 70 43 0 4 T32 0 0 3 20 1 193 193 13
 45 29 0 32 0 194 0 0 195 0 51 46 28 0 194 196 0 0 -.004170772887961005 0 0 -1 0
 0 .0002399999999999825 0 0 1 31 47 23 0 197 198 0 0 +.002370772887961005 0 0 1
 0 0 0 0 -1 .0002399999999999825 19 48 7 0 32 195 0 199 V0 16 49 4 0 ?200 0 197
 198 0 0 32 17 200 0 201 200 200 0 202 49 0 0 +16 197 18 0 ?203 49 0 47 0 0 32 3
1 198 5 0 49 0 47 0 +.004170772887961005 0 0 1 0 0 0 0 -1 .0002399999999999825 1
7 203 0 204 203 203 0 205 197 0 0 +15 204 26 0 203 194 0 17 205 0 206 205 205 0
 203 197 0 0 -15 206 17 0 205 207 0 14 207 16 208 ?0 209 206 45 196 -0 0 0 209 1
99 81 1 208 17316 108 207 210 0 0 211 212 14 209 1 211 ?207 194 201 45 213 +0 0
 207 194 199 50 196 22 0 207 213 46 0 +.002370772887961005 0 0 1 0 0 0 0 -1 13 1
99 8 0 0 0 0 0 0 48 194 14 194 25 214 ?209 0 215 45 46 -0 0 209 0 199 81 1 214 1
7318 108 194 216 0 211 0 217 15 215 24 0 202 194 204 17 202 0 215 202 202 0 200
 49 0 0 -81 1 216 17305 159 194 0 214 0 218 219 81 1 211 17317 108 209 218 0 208
 214 220 82 1 217 1762656629 81 1 218 17306 159 209 0 211 216 210 221 82 1 220 1
760690549 81 1 210 17307 159 207 0 208 218 0 222 83 3 221 .752941176470588 .7529
41176470588 .752941176470588 83 3 222 .752941176470588 .752941176470588 .7529411
76470588 83 3 219 .752941176470588 .752941176470588 .752941176470588 50 213 2 0
 209 0 196 0 +.004170772887961005 0 0 1 0 0 0 0 -1 15 201 3 0 200 209 0 82 1 212
 1762394485 19 195 30 0 32 0 48 45 S0 74 20 193 3 0 0 214 210 42 0 0 0 0 0 0 0 0
 0 0 0 0 0 0 0 0 0 81 1 30 17453 59 22 0 0 0 0 0 70 31 0 4 T22 0 0 3 20 1 223 22
3 13 33 73 0 22 0 224 0 0 225 0 50 34 69 0 224 226 0 0 +-.002370772887961005 0 0
 -1 0 0 0 0 1 31 35 41 0 38 227 0 0 +.004170772887961005 -.00254 0 1 22165612435
92995e-31 0 0 0 1 .000239999999999983 29 255 36 61 0 39 228 0 -.0023707728879610
05 0 .000239999999999983 19 37 5 0 22 225 0 229 V0 16 38 25 0 ?230 0 231 35 0 0
 22 18 255 39 60 0 232 0 233 36 ?22 17 232 0 234 232 232 39 235 236 0 235 -18 23
3 47 0 230 39 0 228 ?22 17 230 0 237 230 230 233 238 38 0 238 +29 228 48 0 233 0
 36 .004170772887961005 -.00254 .000239999999999983 15 237 52 0 230 239 0 17 238
 0 240 238 238 233 230 38 0 0 -15 240 26 0 238 241 242 14 241 24 243 ?0 244 240
 33 245 +0 0 244 0 229 15 242 23 0 246 241 0 17 246 0 242 246 246 0 247 231 0 0
 +17 247 0 248 247 247 0 246 231 0 0 -16 231 21 0 ?246 38 249 227 0 0 22 16 249
 17 0 ?250 231 251 252 0 0 22 31 227 40 0 231 252 35 0 +-.003390772887961 -.0025
4 0 1 710554980332196e-29 0 0 0 1 .000239999999999983 31 252 39 0 249 253 227 0
 +-.003870772887961005 -.00206 0 4264984453943835e-31 -1 0 0 0 1 .00023999999999
9983 31 253 38 0 251 254 252 0 +-.003870772887961005 -48e-5 0 -1224646799147352e
-31 -1 0 0 0 1 .000239999999999983 16 251 13 0 ?255 249 256 253 0 0 22 31 254 37
 0 256 257 253 0 +-.003390772887961005 -1249139735130296e-34 0 -1 0 0 0 0 1 .000
239999999999983 16 256 9 0 ?258 251 236 254 0 0 22 31 257 36 0 236 0 254 0 +-.00
2370772887961005 0 0 -1 0 0 0 0 1 .000239999999999983 16 236 6 0 ?235 256 0 257
 0 0 22 17 235 0 259 235 235 39 232 236 0 0 +15 259 7 0 235 260 0 14 260 2 261 ?
262 239 263 33 264 +0 0 239 262 229 81 1 261 17447 108 260 265 0 243 266 267 14
 262 12 266 ?268 260 269 33 270 +0 0 260 268 229 14 239 50 271 ?260 224 237 33 2
26 +0 0 224 260 229 15 263 10 0 272 260 259 51 264 31 0 260 0 270 0 +-.002370772
887961005 0 0 -1 -1224646799147354e-31 0 .000239999999999983 1224646799147354e-3
1 -1 0 13 229 3 0 0 0 0 0 0 37 241 54 270 32 0 262 264 273 0 +-.0033907728879610
05 -48e-5 0 0 0 1 .000479999999999983 .000239999999999983 1 0 0 51 273 33 0 268
 270 274 0 +-.003870772887961005 -48e-5 0 548963125309119e-30 -1 0 .000239999999
999983 1 548963125309119e-30 0 14 268 16 275 ?244 262 276 33 273 +0 0 262 244 22
9 54 274 34 0 244 273 245 0 +-.003390772887961005 -.00206 0 0 0 1 48e-5 .0002399
99999999983 1 0 0 14 244 20 277 ?241 268 248 33 274 +0 0 268 241 229 51 245 35 0
 241 274 226 0 +-.003390772887961 -.00254 0 1 3441208042740345e-31 0 .0002399999
99999983 -3441208042740345e-31 1 0 50 226 56 0 239 245 34 0 +.004170772887961005
 -.00254 0 1 2216561243592995e-31 0 0 0 1 81 1 277 17451 108 244 278 0 275 279 2
80 15 248 22 0 247 244 281 15 281 19 0 250 244 0 17 250 0 281 250 250 0 282 249
 0 0 +17 282 0 276 282 282 0 250 249 0 0 -15 276 18 0 282 268 283 15 283 15 0 25
5 268 0 17 255 0 283 255 255 0 284 251 0 0 +17 284 0 269 284 284 0 255 251 0 0 -
15 269 14 0 284 262 285 15 285 11 0 258 262 0 17 258 0 285 258 258 0 272 256 0 0
 +17 272 0 263 272 272 0 258 256 0 0 -81 1 278 17428 159 244 0 277 286 287 288 8
1 1 275 17450 108 268 286 0 271 277 289 81 1 279 17452 108 224 290 0 277 0 291 8
2 1 280 1483211147 14 224 63 279 ?239 0 234 33 34 -0 0 0 239 229 81 1 290 17423
 159 224 0 279 0 292 293 82 1 291 1486029195 81 1 292 17424 159 239 0 271 290 26
5 294 83 3 293 .752941176470588 .752941176470588 .752941176470588 81 1 271 17449
 108 239 292 0 266 275 295 81 1 265 17425 159 260 0 261 292 296 297 83 3 294 .75
2941176470588 .752941176470588 .752941176470588 81 1 296 17426 159 262 0 266 265
 286 298 83 3 297 .752941176470588 .752941176470588 .752941176470588 81 1 266 17
448 108 262 296 0 261 271 299 81 1 286 17427 159 268 0 275 296 278 300 83 3 298
 .752941176470588 .752941176470588 .752941176470588 83 3 300 .752941176470588 .7
52941176470588 .752941176470588 82 1 299 1482424715 82 1 295 1486881163 15 234 6
5 0 232 224 0 82 1 289 1482817931 81 1 287 17429 159 241 0 243 278 0 301 83 3 28
8 .752941176470588 .752941176470588 .752941176470588 81 1 243 17446 108 241 287
 0 0 261 302 83 3 301 .752941176470588 .752941176470588 .752941176470588 82 1 30
2 1483604363 82 1 267 1481703819 19 225 74 0 22 0 37 33 S0 74 20 223 3 0 0 279 2
87 30 0 0 0 0 0 0 0 0 0 0 0 0 0 0 0 0 0 81 1 20 247 59 12 303 0 0 0 0 70 21 0 4
 T12 0 0 8 20 1 304 304 13 23 120 0 12 0 305 0 0 26 306 68 255 24 5 0 306 307 0
 0 +308 .002370772887961005 65171164864876e-32 0 -1 -75467800215145e-30 0 ????0
 -1 0 ?31 25 82 0 27 309 0 0 -.002370772887961005 65171164864876e-32 0 -1 -75467
800215145e-30 0 0 -1 0 .000239999999999983 19 26 121 0 12 0 0 23 V0 16 27 81 310
 ?311 0 312 25 0 0 12 81 2 310 89 313 27 314 0 315 0 0 316 17 311 0 0 0 0 0 317
 27 0 0 +16 312 72 315 ?318 27 0 309 0 0 12 81 2 315 80 313 312 319 0 320 310 0
 321 17 318 0 322 318 318 0 323 312 0 0 +31 309 73 0 312 308 25 0 +.001885386443
980435 615080601467294e-33 0 -1 -75467800215145e-30 0 75467800215145e-30 -1 0 .0
00620000000000427 31 308 6 0 12 0 309 324 +.002370772887961005 -.000739999999999
982 0 0 0 1 0 -1 0 5e-4 141 255 324 24 324 324 308 15 322 3 0 318 305 0 17 323 0
 325 323 323 0 318 312 0 0 -15 325 18 0 323 306 0 14 306 4 326 1e-8 0 305 327 23
 24 -0 0 305 0 23 81 1 326 245 108 306 328 0 0 329 330 14 305 1 329 ?306 0 322 2
3 307 +0 0 0 306 23 15 327 17 0 317 306 325 17 317 0 327 317 317 0 311 27 0 0 -8
1 1 329 246 108 305 331 0 326 0 332 50 307 2 0 305 0 24 0 -.001885386443980435 7
59281015471514e-34 .000620000000000127 1 0 0 0 0 -1 81 1 331 236 159 305 0 329 0
 328 333 82 1 332 -1822555988 81 1 328 237 159 306 334 326 331 0 335 83 3 333 .7
52941176470588 .752941176470588 .752941176470588 81 2 334 16 336 306 320 328 0 0
 0 337 83 3 335 .988235294117647 .737254901960784 .517647058823529 80 2 336 313
 338 9000 0 0 0 0 3 6 0 0 0 FFTFTTTFFTFFFF3 3 81 2 320 15 313 306 339 334 0 315
 0 340 84 255 16 337 00000000637D99A080 2 313 341 342 9000 0 0 0 0 3 6 0 0 0 FFT
FTTTFFTFFFF3 3 81 2 339 14 343 306 344 320 344 345 0 346 84 16 340 000000006677F
2C080 2 343 347 348 9000 0 0 0 0 3 6 0 0 0 FFTFTTTFFTFFFF3 3 81 2 344 13 343 306
 349 339 349 339 0 350 81 2 345 74 343 312 0 351 339 351 0 352 84 16 346 0000000
05425EC3081 2 351 75 343 312 345 353 345 353 0 354 84 16 352 000000005425D0D081
 2 353 76 343 312 351 355 351 355 0 356 84 16 354 000000005425C3E081 2 355 77 34
3 312 353 357 353 357 0 358 84 16 356 000000005425DF1081 2 357 78 343 312 355 31
9 355 319 0 359 84 16 358 00000000540ABAD081 2 319 79 343 312 357 315 357 360 0
 361 84 16 359 00000000547B6B7081 2 360 83 343 27 0 362 319 362 0 363 84 16 361
 000000005425E78081 2 362 84 343 27 360 364 360 364 0 365 84 16 363 000000005425
D0A081 2 364 85 343 27 362 366 362 366 0 367 84 16 365 000000005425C50081 2 366
 86 343 27 364 368 364 368 0 369 84 16 367 000000005425DF7081 2 368 87 343 27 36
6 314 366 314 0 370 84 16 369 00000000540ABF8081 2 314 88 343 27 368 310 368 0 0
 371 84 16 370 00000000547B6CF084 16 371 000000005425C95081 2 349 12 343 306 372
 344 373 344 0 374 84 16 350 00000000540AE9E081 2 372 11 341 306 373 349 0 0 0 3
75 81 2 373 10 343 306 376 372 376 349 0 377 84 16 374 00000000540AE80081 2 376
 9 343 306 378 373 378 373 0 379 84 16 377 000000005425DD9081 2 378 8 343 306 0
 376 0 376 0 380 84 16 379 000000005425C44084 16 380 00000000540ABE6080 2 341 34
3 381 9000 0 0 0 0 3 6 0 0 0 FFTFTTTFFTFFFF3 3 84 158 375 4 0.0023707728879610 0
.0000000000000000 -0.0000000000000000 -1.0000000000000000 0.0000000000000000 -0.
0000000000000002 0.0007400000000000 0.0005000000000000 179 37 381 GSS_FW_GSS_AFR
_MIL_SURFACE_ATTRIB_DEF79 35 348 GSS_FW_FW_LNK_LOCAL_PARTLINK_ATTRIB79 29 342 GS
S_FW_FW_LNK_PARTLINK_ATTRIB79 26 338 GSS_FW_LNK_PARTLINK_ATTRIB82 1 330 -8642886
47 84 16 321 000000006678613084 16 316 000000006678052074 20 304 8 0 0 329 314 3
72 310 334 303 328 20 0 0 0 0 0 0 0 0 0 0 0 0 81 2 303 117 382 12 0 20 0 0 383 0
 80 2 382 384 385 8004 0 0 0 0 3 5 0 0 0 FFTFFFFFFFFFFF2 3 83 1 383 1 79 16 385
 SDL/TYSA_DENSITY81 1 10 348 59 7 0 0 0 0 0 70 11 0 4 T7 0 0 7 20 1 386 386 13 1
3 119 0 7 0 387 0 0 16 388 68 14 5 0 388 389 0 0 +390 -.002370772887961005 39953
25396217155e-34 0 -1 -75467800215145e-30 0 ????0 -1 0 ?31 15 82 0 17 391 0 0 +-.
002370772887961005 3995325396217155e-34 0 -1 -75467800215145e-30 0 0 -1 0 .00023
9999999999983 19 16 120 0 7 0 0 13 V0 16 17 81 392 ?393 0 394 15 0 0 7 81 2 392
 89 313 17 395 0 396 0 0 397 17 393 0 0 0 0 0 398 17 0 0 +16 394 72 396 ?399 17
 0 391 0 0 7 81 2 396 80 313 394 400 0 401 392 0 402 17 399 0 403 399 399 0 404
 394 0 0 +31 391 73 0 394 390 15 0 --.001885386443980435 436163586803181e-33 0 -
1 -75467800215145e-30 0 75467800215145e-30 -1 0 .000620000000000426 31 390 6 0 7
 0 391 405 +-.002370772887961005 -.000739999999999983 0 0 0 1 0 -1 0 5e-4 141 40
5 14 405 405 390 15 403 3 0 399 387 0 17 404 0 406 404 404 0 399 394 0 0 -15 406
 18 0 404 388 0 14 388 4 407 1e-8 0 387 408 13 14 -0 0 387 0 13 81 1 407 346 108
 388 409 0 0 410 411 14 387 1 410 ?388 0 403 13 389 +0 0 0 388 13 15 408 17 0 39
8 388 406 17 398 0 408 398 398 0 393 17 0 0 -81 1 410 347 108 387 412 0 407 0 41
3 50 389 2 0 387 0 14 0 --.001885386443980435 759281015471514e-34 .0006200000000
00126 -1 0 0 0 0 1 81 1 412 337 159 387 0 410 0 409 414 82 1 413 -1761410898 81
 1 409 338 159 388 415 407 412 0 416 83 3 414 .752941176470588 .752941176470588
 .752941176470588 81 2 415 16 336 388 401 409 0 0 0 417 83 3 416 .98823529411764
7 .737254901960784 .517647058823529 81 2 401 15 313 388 418 415 0 396 0 419 84 1
6 417 00000000637D8FE081 2 418 14 343 388 420 401 420 421 0 422 84 16 419 000000
00667856E081 2 420 13 343 388 423 418 423 418 0 424 81 2 421 74 343 394 0 425 41
8 425 0 426 84 16 422 000000005425D5E081 2 425 75 343 394 421 427 421 427 0 428
 84 16 426 000000005425C8C081 2 427 76 343 394 425 429 425 429 0 430 84 16 428 0
00000005425D55081 2 429 77 343 394 427 431 427 431 0 432 84 16 430 000000005425D
EE081 2 431 78 343 394 429 400 429 400 0 433 84 16 432 00000000540AC49081 2 400
 79 343 394 431 396 431 434 0 435 84 16 433 00000000547B6C6081 2 434 83 343 17 0
 436 400 436 0 437 84 16 435 000000005425E0C081 2 436 84 343 17 434 438 434 438
 0 439 84 16 437 000000005425D43081 2 438 85 343 17 436 440 436 440 0 441 84 16
 439 000000005425C41081 2 440 86 343 17 438 442 438 442 0 443 84 16 441 00000000
5425DF4081 2 442 87 343 17 440 395 440 395 0 444 84 16 443 00000000540ACC7081 2
 395 88 343 17 442 392 442 0 0 445 84 16 444 00000000547B588084 16 445 000000005
425ED2081 2 423 12 343 388 446 420 447 420 0 448 84 16 424 00000000540AC55081 2
 446 11 341 388 447 423 0 0 0 449 81 2 447 10 343 388 450 446 450 423 0 451 84 1
6 448 00000000540AE32081 2 450 9 343 388 452 447 452 447 0 453 84 16 451 0000000
05425DBE081 2 452 8 343 388 0 450 0 450 0 454 84 16 453 000000005425C80084 16 45
4 00000000540AC49084 159 449 4 -0.0023707728879610 0.0000000000000000 -0.0000000
000000000 -1.0000000000000000 0.0000000000000000 -0.0000000000000002 0.000740000
0000000 0.0005000000000000 182 1 411 -1931607957 84 16 402 00000000667833A084 16
 397 000000006678079074 20 386 7 0 0 410 395 446 392 415 409 10 0 0 0 0 0 0 0 0
 0 0 0 0 0 74 20 6 1 0 0 2 0 0 0 0 0 0 0 0 0 0 0 0 0 0 0 0 0 0 0 80 2 5 455 456
 9000 0 0 0 0 3 5 0 0 0 TFFFFFFFFFFFFF9 1 79 18 456 MULTI_BODY_ID_20011 0 
